<mxfile host="app.diagrams.net" modified="2023-11-29T10:51:58.251Z" agent="Mozilla/5.0 (Windows NT 10.0; Win64; x64) AppleWebKit/537.36 (KHTML, like Gecko) Chrome/119.0.0.0 Safari/537.36" etag="cGL64lINBGOFEWBCLC6g" version="22.1.4" type="github">
  <diagram name="Page-1" id="jPZwZsbmi0ULYyrwNViY">
    <mxGraphModel dx="1092" dy="490" grid="0" gridSize="10" guides="1" tooltips="1" connect="1" arrows="1" fold="1" page="1" pageScale="1" pageWidth="1100" pageHeight="850" background="#ffffff" math="0" shadow="0">
      <root>
        <mxCell id="0" />
        <mxCell id="1" parent="0" />
        <mxCell id="gg1GSGkbbHf50dHX3CCL-19" style="edgeStyle=orthogonalEdgeStyle;rounded=0;orthogonalLoop=1;jettySize=auto;html=1;" edge="1" parent="1" target="gg1GSGkbbHf50dHX3CCL-3">
          <mxGeometry relative="1" as="geometry">
            <mxPoint x="68" y="246" as="sourcePoint" />
          </mxGeometry>
        </mxCell>
        <mxCell id="gg1GSGkbbHf50dHX3CCL-2" value="" style="verticalLabelPosition=bottom;html=1;verticalAlign=top;align=center;strokeColor=none;fillColor=#00BEF2;shape=mxgraph.azure.user;" vertex="1" parent="1">
          <mxGeometry x="47.25" y="158" width="47.5" height="50" as="geometry" />
        </mxCell>
        <mxCell id="gg1GSGkbbHf50dHX3CCL-24" style="edgeStyle=orthogonalEdgeStyle;rounded=0;orthogonalLoop=1;jettySize=auto;html=1;" edge="1" parent="1" source="gg1GSGkbbHf50dHX3CCL-3" target="gg1GSGkbbHf50dHX3CCL-4">
          <mxGeometry relative="1" as="geometry" />
        </mxCell>
        <mxCell id="gg1GSGkbbHf50dHX3CCL-3" value="" style="sketch=0;pointerEvents=1;shadow=0;dashed=0;html=1;strokeColor=none;fillColor=#505050;labelPosition=center;verticalLabelPosition=bottom;verticalAlign=top;outlineConnect=0;align=center;shape=mxgraph.office.concepts.website;" vertex="1" parent="1">
          <mxGeometry x="41" y="309" width="97" height="78" as="geometry" />
        </mxCell>
        <mxCell id="gg1GSGkbbHf50dHX3CCL-4" value="" style="sketch=0;points=[[0,0,0],[0.25,0,0],[0.5,0,0],[0.75,0,0],[1,0,0],[0,1,0],[0.25,1,0],[0.5,1,0],[0.75,1,0],[1,1,0],[0,0.25,0],[0,0.5,0],[0,0.75,0],[1,0.25,0],[1,0.5,0],[1,0.75,0]];outlineConnect=0;fontColor=#232F3E;fillColor=#8C4FFF;strokeColor=#ffffff;dashed=0;verticalLabelPosition=bottom;verticalAlign=top;align=center;html=1;fontSize=12;fontStyle=0;aspect=fixed;shape=mxgraph.aws4.resourceIcon;resIcon=mxgraph.aws4.route_53;" vertex="1" parent="1">
          <mxGeometry x="219" y="271" width="58" height="58" as="geometry" />
        </mxCell>
        <mxCell id="gg1GSGkbbHf50dHX3CCL-5" value="" style="sketch=0;points=[[0,0,0],[0.25,0,0],[0.5,0,0],[0.75,0,0],[1,0,0],[0,1,0],[0.25,1,0],[0.5,1,0],[0.75,1,0],[1,1,0],[0,0.25,0],[0,0.5,0],[0,0.75,0],[1,0.25,0],[1,0.5,0],[1,0.75,0]];outlineConnect=0;fontColor=#232F3E;fillColor=#8C4FFF;strokeColor=#ffffff;dashed=0;verticalLabelPosition=bottom;verticalAlign=top;align=center;html=1;fontSize=12;fontStyle=0;aspect=fixed;shape=mxgraph.aws4.resourceIcon;resIcon=mxgraph.aws4.cloudfront;" vertex="1" parent="1">
          <mxGeometry x="391" y="269" width="62" height="62" as="geometry" />
        </mxCell>
        <mxCell id="gg1GSGkbbHf50dHX3CCL-6" value="" style="sketch=0;points=[[0,0,0],[0.25,0,0],[0.5,0,0],[0.75,0,0],[1,0,0],[0,1,0],[0.25,1,0],[0.5,1,0],[0.75,1,0],[1,1,0],[0,0.25,0],[0,0.5,0],[0,0.75,0],[1,0.25,0],[1,0.5,0],[1,0.75,0]];outlineConnect=0;fontColor=#232F3E;fillColor=#7AA116;strokeColor=#ffffff;dashed=0;verticalLabelPosition=bottom;verticalAlign=top;align=center;html=1;fontSize=12;fontStyle=0;aspect=fixed;shape=mxgraph.aws4.resourceIcon;resIcon=mxgraph.aws4.s3;" vertex="1" parent="1">
          <mxGeometry x="553" y="269" width="59" height="59" as="geometry" />
        </mxCell>
        <mxCell id="gg1GSGkbbHf50dHX3CCL-8" value="" style="sketch=0;points=[[0,0,0],[0.25,0,0],[0.5,0,0],[0.75,0,0],[1,0,0],[0,1,0],[0.25,1,0],[0.5,1,0],[0.75,1,0],[1,1,0],[0,0.25,0],[0,0.5,0],[0,0.75,0],[1,0.25,0],[1,0.5,0],[1,0.75,0]];outlineConnect=0;fontColor=#232F3E;fillColor=#ED7100;strokeColor=#ffffff;dashed=0;verticalLabelPosition=bottom;verticalAlign=top;align=center;html=1;fontSize=12;fontStyle=0;aspect=fixed;shape=mxgraph.aws4.resourceIcon;resIcon=mxgraph.aws4.lambda;" vertex="1" parent="1">
          <mxGeometry x="493" y="446" width="57" height="57" as="geometry" />
        </mxCell>
        <mxCell id="gg1GSGkbbHf50dHX3CCL-9" value="" style="sketch=0;points=[[0,0,0],[0.25,0,0],[0.5,0,0],[0.75,0,0],[1,0,0],[0,1,0],[0.25,1,0],[0.5,1,0],[0.75,1,0],[1,1,0],[0,0.25,0],[0,0.5,0],[0,0.75,0],[1,0.25,0],[1,0.5,0],[1,0.75,0]];outlineConnect=0;fontColor=#232F3E;fillColor=#C925D1;strokeColor=#ffffff;dashed=0;verticalLabelPosition=bottom;verticalAlign=top;align=center;html=1;fontSize=12;fontStyle=0;aspect=fixed;shape=mxgraph.aws4.resourceIcon;resIcon=mxgraph.aws4.dynamodb;" vertex="1" parent="1">
          <mxGeometry x="274" y="444" width="61" height="61" as="geometry" />
        </mxCell>
        <mxCell id="gg1GSGkbbHf50dHX3CCL-10" value="" style="sketch=0;points=[[0,0,0],[0.25,0,0],[0.5,0,0],[0.75,0,0],[1,0,0],[0,1,0],[0.25,1,0],[0.5,1,0],[0.75,1,0],[1,1,0],[0,0.25,0],[0,0.5,0],[0,0.75,0],[1,0.25,0],[1,0.5,0],[1,0.75,0]];outlineConnect=0;fontColor=#232F3E;fillColor=#DD344C;strokeColor=#ffffff;dashed=0;verticalLabelPosition=bottom;verticalAlign=top;align=center;html=1;fontSize=12;fontStyle=0;aspect=fixed;shape=mxgraph.aws4.resourceIcon;resIcon=mxgraph.aws4.certificate_manager_3;" vertex="1" parent="1">
          <mxGeometry x="393.5" y="129" width="57" height="57" as="geometry" />
        </mxCell>
        <mxCell id="gg1GSGkbbHf50dHX3CCL-11" value="" style="points=[[0.35,0,0],[0.98,0.51,0],[1,0.71,0],[0.67,1,0],[0,0.795,0],[0,0.65,0]];verticalLabelPosition=bottom;sketch=0;html=1;verticalAlign=top;aspect=fixed;align=center;pointerEvents=1;shape=mxgraph.cisco19.user;fillColor=#005073;strokeColor=none;" vertex="1" parent="1">
          <mxGeometry x="769" y="122" width="52" height="52" as="geometry" />
        </mxCell>
        <mxCell id="gg1GSGkbbHf50dHX3CCL-12" value="" style="dashed=0;outlineConnect=0;html=1;align=center;labelPosition=center;verticalLabelPosition=bottom;verticalAlign=top;shape=mxgraph.webicons.github;gradientColor=#DFDEDE" vertex="1" parent="1">
          <mxGeometry x="775" y="258" width="57" height="56" as="geometry" />
        </mxCell>
        <mxCell id="gg1GSGkbbHf50dHX3CCL-13" value="" style="shape=image;verticalLabelPosition=bottom;labelBackgroundColor=default;verticalAlign=top;aspect=fixed;imageAspect=0;image=data:image/png,iVBORw0KGgoAAAANSUhEUgAAAMgAAADICAYAAACtWK6eAAAABGdBTUEAALGPC/xhBQAAACBjSFJNAAB6JgAAgIQAAPoAAACA6AAAdTAAAOpgAAA6mAAAF3CculE8AAAABmJLR0QA/wD/AP+gvaeTAAAAB3RJTUUH5AYIFA07FH+yvgAAROZJREFUeNrtvXd8HNd57v89Z2Y7eiNRSALspChWkaIlS1SzJUWybDm24xLZidN8Uxw7ybX9u75JfHNvnBunJ44TxykusZ0bO+62ClVMFUqkKEpsYgVAEiTROxZbZuac3x+DZQFmF20XIKl5Ph+BELCYnTN7nnPO255XaK01Pnz48ISc7xvw4eNqhk8QHz5ywCeIDx854BPEh48c8Aniw0cO+ATx4SMHfIL48JEDPkF8+MgBnyA+fOSATxAfPnLAJ4gPHzngE8SHjxzwCeLDRw74BPHhIwd8gvjwkQPmfN/AVOE4Nmlbk1QBEhYMJqG1H3riMJKCtHPptUUhKI9ASQiaKtzvTQlhaRMKGCDEfA/HxzWCq54gIwmbJ1sk+1qTdI8o2lMmvaOClA3xNKQcsBVcXvZlSggY7r9FQaiIQklIUxNKcmN9mDuWmyyrdH/vw0cuiKuxotByoLkrQXO3zdG+EN8/FuDMgLvqZ9Z+MfYl216gL/sm873SUBaG7Ytha4PixqoUyxeEqIhKDJ8sPjxw1RBEa2jtsTjcbbD/gmTnCYfeuCalTLTO36lI4xLFEFAadKgvk9y5VHHH4gQramOUhIR/AvNxEVcHQbTiieM2f/68yekBQcoe2y1y7BB5eVtcYkqhKQ85rKs1+Y03Ody8WFLYd/ZxrWBebRANNHemONhl8I39cKxbIiXIOZqbgszOJOhLmjzbCqYAA4dNDQbGXN2Ij6sW87KDaGA4qXnmlOIf9gha+gSWmtpkzKz6jP2rcY3tjA2htWu0K31pB7pEhKldv65Yc9dywZ2NFrctNQj61vwbFvNAEM2+NsUX9hjsbdMMp8SUjlJqjAzlEVgc7qfMiLNoQRk15TGKQ4JoYOx1wEAC+kdSDI0kOTds0DJcRE/cdQVLOfl7aQ2Ohqqo5te3pviFrSaBwFXv8PNRAMzxp6451a34wkvwdAugRc7jlNZjBrWEhlJYXQ23N0FjFMoMaKiBilLv3SGRhKE4nB+ClhHoGIYXzsBrF2Ak7f6NzEJMIdyjVl9C8JX9oITmXesVlTF/J3mjYc52kERa8erpYb7wcphn20IYOYihtDt5a2KKNdUO2xcb3LlcsqgUosGZ38NAAna1aPa0Jjg1GOFIp2Ao5Xq0sh3BNBCQ8PMbFb+2zWFhaWAuHpePqwRzQpBkWvFvr8CX9ij6Uwa5DjkBAxrLFG9ZanH/KlhSGaA4LMinV8l2HEbSBrtaFE8eT/NaZ4hzQ9mvr3Fzcu5Zmub374aG8gDC9wW/ITAnBNl9YpDf/EmM3qSZ9Uiltbs7bF+k+dQdsLxSI2VhjzRaa2xH8fhJyWd2arpHZVZ7SI99+cC6OL95i6C2Ilrox+bjKkCBbZAxm+PlMP0pb3JoQClYWKz5je0Ob10BC4qNgpMDQAhBwDS4e7mmyLR47JjNo80RBpJywr0KQAv40akoSe3w6bsUFb5Nct2joDvIvjaHL7wETzYbnjaHxs2VWlOt+dAmmwfWmvN4dNGkLIdvHxJ8/iVJ+5B3RF1r9xj4idssfmGrQcDPUbmuUbBPdyip+cIeg6dbjKwGudbwwGrNF98p+Jk180kOAEEoYPKBzZJf2Qoh88oEyIuvEm6u2D/vMzjUAa5j2cf1ioIR5OlTir1tl2UKXoZMPtQdTYpf3aqoiIK8aqLWgofWKP74Xs3meo3KQpKuuOQLux1eOetM/y18XDMoyBHrZGeK3/xhgGM9E8/ymWPVA6s1v7pVsazKmNI1Ry1IWG6UPGxCxNQEzcKS6uAFi088anC0W2Z1LmxbpPmbBxQLS6c2Dh/XFgpgpCsOdRm09nuf4ZVybY5P7BBURiefVI5S9I4KvntE8GyrG/DbUg+3N9rsWCopDhduYq6vC/DOdZrPPuMSe/xwtIZDHYLXuyULSwt2Gz7mEXknyBPHbL6xHyxlek6ohcWuQV4RMckV29BaM5hQ/NdBh+8eNTk7KBi1wFFudPypZpP1hxzev9FmcwNURI2C2DBvXaE40SN59IQgnr7yjoVwd7UnTmpuWaIJB3yD/XpDXo9YLT0WH/mewbFu7wKkSAA+ebvNB7dMPplfPe/wt7uSvNQeIW7JK9JCMjEJBZSHNSurNA+v1Ty4VlAUJO8u4uGU5g+f0HzniJywK2oNpWHN373N5vZlfpT9ekNeZ9KhToPTAwKv+Rkw3CDgW5YzKTks2+Y/9yfZeSZGwpZuKshlv89k5xoCBlOCPW2Sz+4y+OLzcZo74nl/SMUhwfs2CWqKJnq2xNg97D0nSaR8g/16Q94I4ih4tV2SssWEg5PSbvrIp+5gSsbsYMrgUE9kAjG8IHCTGeNp+LcDMT71VIw9Z8F2NJ4utBliQ63gwdXZXbrfP2rw/WO+oX69IW8EOdmRYOcJ7xVUCnjLUstNH5mCnfDKeUFLv5x26euoLdl3XvKxH8GnH3N44phNIp2fOEXQgAdX2dTE1MRdBDgzAF/br7gwYOXrkfq4CpA3gjT32PTGtecZvSamuG/V1G2Dk72ulI8XP5S+VBsyHgKXjO1D8M1DJp98TPBfrwxiOfnZSdbWBtm2WHqGBqWAs30OLQU44vmYP+SFIPGkqz6S8vBcKQ1rqh0aK6duwDrKmwBSwKaFNssrNOEskW64ZJ8MpAz++uVS/up5wTMnkgwlZmcjhE24uzFBU3HCcxdJOCat8ZJ8PFIfVwnyQpCdzZLvHwt4TlhDwvbFxljK+tSQa+L/7HqDr71X8MkdUBVV5HbCCXpGJf+4B37rR0E+96ygY0gxG9vkjibNjibtuYukHcGLbZKkf8q6bjBrgjiOzb7WUc4MTAwMKg11JXDn8vyphBhSUFcCj2yCv3+bxe1NGlPimRICLqm0hpG05JsHJB/9geDLL9sMJmdGkvKSKG9ZE6U05O3ROnhB0THoM+R6wawDhWlb0z3ibQhr3DLZhgJEmU0Dbm4KIQ2HxWUOP20xaBt0f+eVFiKES6K95wWnBwIMpjQPr7VYXDH92MWySqiKwVBqYuBwJOXQOzRKY5UfWr8eMGuCJJ0A7SmPqDmuwMLtTRCbRZnsZNi6WLKpAQ62K/5tr8OBzsBFonhBAF0j8DcvCJ5pMXj7aodbF9usWBia8h5XGnRoLE7R3DexaCppCy6MGGwp3JB9zCFmTZCEDb2jE6eW1q76SGMUoLyAQxCYEjbXw9oHDU72wqcfh/0XXOEFkWU30cCrFyQH2zWrqwN89j7YWDe1dwwHNPXFY+5ecfmdQFqb9FpFBRyvj7nErG2QwSSkbG8Lo8yIU2bMldtTEA5IblgAv7zF4pa6Ucoj2V3C4B7FFIKj3ZJ/eVlztMPCVpPbJoYhKYl57ziOcoOWPq4PzJogrf1jE8Ij/rFoQRmLFpTN7YAEvO0Ggy++K8BfPuBwe6ND0HB1rryQue2fHBf87k9MXjs/lQi8ZGlVgHBg4iu1htP90Dkyp8P2USDMmiA9cbcFgZcNUlMeo6I0NueDEkJSHgtw53KDv31I8jvbR3lT7SimkX3qKw2HOgX/8UqCtDV5vKSh1E2+xMOTdW7Q/c/HtY9ZE2Qk5RYxjYcp3SS/+RaBLo8K3r8Rfu92zW2LbQS5XcJtwyYJe/LHUhR0bRwvxNOuOJ2Pax+zd/M6TDBWwQ0QRq+S7O+Soihbi6ChUvFPexQ/bYG2IYkzjtgC6EqEmEpSbmnEzVAeP3QB9I5C3+h8j9pHPlDQCp/576twJWpLJI/cGOfNi1KEDO15fyk7+w5zOQIyhxqjnto1fFz9KJgultZXG0E0HcOar78mefRUkKRHWj5A0Jxa+4WUk50ExmVq8z6ubcyaIEUh715/tnK1cK8GtPTB7tOK7xxSHOiM4Sjv1V8D9ZE4ESM06aPpHXWPl17OiaoYVM+9b8JHATBrgpSPncXHTxal3RYEyRSEQ6F5GZxSmudbHf7iBZMjnQaWY7ilu1l2CClgY52gKDT5FtI94h7HJri3gaooVPrKpNcFZk2QkrEdJD3OsBUChkaSDI7MPUG0VgwlFK+2C/7uBTjQ7v48qy4w7jxvKlPcsTKCmMIZqy/bDqKhvhTq/az36wKzJkhThevyHB0XLBTAuWGD80OwoHJuBqO1Ip6GH7/u8L3DNsf7I/SO5rYplIawqblnuebDm23W103B9aYVrT0WaTs0wdaQAhYWQ/H8bJo+8oxZE6Qs4vYh7xyZ6O5sGS6iZQQ2z8FAbAXfOWjz+Al48VyQkVQAKXKTQwhYXgG/tMXmgTUGpZGpZVUmbc35wYkWusaVLPXtj+sHsyZIQEJJaGIgRAg3yt4xXOghaGwHXrkg+OLLQY73XNmzcOKrudhWelWl5pe2ah5cE3Cj4lOEpQwGLMMzBmpiEyMJ+AmL1wNmTZCwtKkJJVG6aMJqnXbctmc/v8ndafKNhKXZ1ezwTDM8e8akfdglbDa4xymoL1E8uEbw0GrFsmo57Vh/V9wVaZjwd9pNP6n3S0GuG8yaIKGgwfr6MLvaYHic8qCUbk/AXS2at9+Qn5QTrTUpS3OyV/AvexVPtpgMJXN3ss10iFpSpvjwFs2dTQ71FQFMOX2ZnmTa4vGjcGEoMGFBUMDKGoPF/hnrukEeAoWCHctNXr4Aj5/kilYHAjcnaU9rggdXhzCM2elGCaBnMMkXdiXZ2VbOkU7jopJJNmT6eTSVO3zi1hR3r44gxMzv40RHipdawVYBz7YOmxY6lBZQL9jH3CIvkfRV1bC1QfHkqYnnGyHg1GCE4bSY9TFLafjW0TBDySBxa3JiaK2piip++WaDt6wwWFIWmbV+72vdUY704alaHzI0TRXzn6DpI3/IW6rJjVUpSoNBBtLGlccsAUc6Bbta1Ngxa/LJUxVzhdrGp3IoDecGBQgj51WkgIqoZku94kMbLW5aIgkYs5+4bX0W/3nQoGfUox2ChoqwYm2VBfg7yPWCvBFk+YIQ9WWC/s4rbQGBK26w83ia+1YGCAUmnzxra6AkDP2jE+0KMUlMQ2tYuQB+Y5vF7U1QFgvn7WEdOJfiZE8YISbulErDulqDxmqfHNcT8pZSVxWT3LlUIcXE+IAh4EBniJ2nJAlrcinQpnLF0tL0lDNiMy9rLIeH19j8yb2a+9cEKIvlL9++N654vCVKyvFu67B1ETyyubACFT7mHnkjiBCwY1GC8rDjqRd1bkjwmZ2aPacn14wqjwres15SHp68MEMAYUOxo0nzjw/D5x4w2Fwv8nKkykArxdf22fzkhEf7AyAcgA9u0tyxNF9P08fVgrwmZa+qi7FuYfZTW/eo5LFjNsm0PcmVBPetFvz8mj5KQ44rRXpZ+nymx6GjYWEJvG/NEH98T4o1NRAK5NdA1hrODmiebjXx2vy0hoqIYm21LxZ3PSKv9SAlYcFvvsnBFPB060RDWgh4tDnCusOa92/UORt3loQNfm1HBYsXar59WNPcB6OWwBnrUVgUgg01aR7ZYrB+YTFF4cIUYBzrsvm/P5Wc6JWebl2B5t4VmiXT0B72ce0g7wVT2xZLJA7HejQXxvUaF8BAUvL3L2nSDjy0xqGqyNuoFQJKIgbv2aC5bxU092rODQuSlpsMWFusqS8xiQYL51Y9P6j4i+ckz7RIpPSu/VhRqfi5dRZBI3/OAB9XDwpQUSjY1GBw13LBV16ZKGzgticQ/OkuKAlJ3rV+kqsJQWkENjeIcUmPhY83/Pi44Klm4ZnXpYGICQ/faLC61vdcXa8oyLnEkII7Gy2qoiprn/GUDd84oDl44eo7u58fVHxpr+ZbB0V2pXng/hU2dzVNZk/5uJZRkD7pAJaj+fKeFF/ZD+fi4azNcNZUa965zu0m21gx/yvxsU6bP39O8lSzvJj1OxGa+1c4fOatkpoiP3J+PaNg0gIBQ/ChrSaPbDEIyOwNcY52Cz77jODzL0qGU/Mn8+A4ijN9Dn/yU8kTJ93H4tnnXUNF2OEXNyaoKcpfWwcfVycKpmoCEAyYvHuDomNE8ZX9buuy8dNJjglJP3pCoJTifZtg/UJBqKB3diV6426c4+lWkxO9kmyd4pSGxnLNBzYa3LjIz9h9I6BgR6zLcWHA4jM7NU80ByFL59pM7/OaInhwteah1RarFwYJmYVZozVubtWhcykea4nykxMSS+HpygWXHPUlmv95h8PdKyShgK/r80bAnBAEoK03zT++aPGjU1EGkyKn6Bq4jT+3LZbc3ZhgR5OmoiQ/MiGJlMWprhSvdsX4z4Oakz2KlGPkzPLN7ByfvM3h/jXGrDOCfVw7mDOCaK3p7E/wZy8E+cExE8vJnXiotVuA1FTsEuQta6Isq4TSkEPE1G7HXDH5Kq6VIuVoLGXQHYfHjlq81JriSF+UnlE3dST3dNdUhB1+bbvBhzZrf+d4g2HOCJJB/6ji2wcd/nmfQVd8ChN8jCilITcNvrF4lPpiRUksxNKqAA2lrqpKacQtt005rqhb94grzdPak+L8oGbACnNmAC4MuQIPchJiZKrs719h84sbE6xbFCOSB3I4ym06lLSuFP0OGG6KfyTgLcR3PSBlu2O3nSvHHjRdHedCHadngzknCEDaVhzuhC/sdniqJZDDnXoJmVysi6ILuEmCkYAbjAwYl/oQph33w0g7cDHtSzBp9eHF98INAt6/wuZTd0pqimc+Yx3HoXswweHeCCd7jYutES4MXVKAl8KVCaqMuhnJi0phUanD+so4DdXF1+yRLp22ONZpc2wgQvcInOyBtkEYSl459sqo206ithgWl8ENFXGWV0JpcXTexz4vBAFAK15pc/jc8yaHOgQJiykR5YpLXPxypRtZjH2ZzqO9RDzNikrFO280uKvJZlWNMb2bGhtbyta0jxg8fdLh9QsuQZr7DZIWWY91mfGETGgocdhQFWd1fTG3LBGsrFKEA1d/zEUpxVAKjnZJ9rdZ7DnjEqRvrI+MzGF7aqAiAmvK4yyvgk2Lo+xYKigL2ZimMS9jnz+CjKF90OFot+SJk5pHjwsGU+5DmMtHobW7G1VEFPeu0PzcOotVC8PT5gVa0xPX/PB1h31nLQ71hDk/JEmPTYyp7F6X31PGLb6wGLbUprlliWTHcpO6Yo0xnYvNASxbcaRL8nyLxTPNilP9IYZSbsa1ZOprTGahUto9dq2qUqypSHDv2jDbF8ux3Lu5w7wTJINEWvFym8Pec5LvHzU4MzC5nTAbZFZrNVbs9MFNmrXVFosqAoTN6b9rVxyea3b4xquKA10BUvb0SZH1XsfIEjSgqVzz7nWKD90kCc3gPguBtgH4pxfTPH7KpCchXRuP6W+8E8ZNRlsAyqOwvcHhHTdI7lzG2G5aeFw1BMkgkXb4/lGDr+1XnO1zSDgmacd1C0/ucfKGvuybjG0YMjQVYcW6WoNHNsOOpTMnYzyt+corgv84AKcHssdS8gFHuef1/3u/ZlvD3E0UL2itae0TfOsQ/MvLuY9Qs3+vMbG/Kvifd2lubWRO7JOrjiDgTuj2AYuWjjit8RJebJMcvKAYSSnitoGtsj+Y8ca8FO6Z3sQmEnB1qzYtdGiqEKytsmisDhMNzGy101rTOaz46+c03z9mMmpN/xgFzMheWlgE2xtsfuvNkqUVYs6NWUdpnjju8Ne7DVr6BJaa5hhmOnYNi0o1v/kmh7ffYBAOjF2kQLgqCTIeCQs6B9N0D6X5+31Rnm7xLl6KBV0Fx5qY6xmpL3XP79UxiDFCfSksro5REgaRh4f6k6M2X34F9l0wUXoSt/E44kZMqIy5xExarmta6Uu7ZC4hPLj02htqNH90j2LLorlN9PzeYYf/84ykKy4m3TEzGd2ZZ5AZO7j9HAeT48Y+CWmUdr1+71hj8/ObYPWCwuUlzWHG08wRCUBjVZBFlUHqT3r3RFQaVpbGeXA1rK6PURF1WxBcUlnPr1bugXbNv+432XvOPVJl+0AveWc0TeWKGnOA6tII9ZURqmICKSBpuzrG/cMJ2gdtOlMx2gYlPfExVUiPi2d+9nqX4N8PGEjhsKFeIgu8kwwnNbvPCr5+wKBrZHIN5IABS0pcfbKGSJyFFVEqikwqIi4R4mnoHnZo74vTOyq5kIjSOiBJ2tntGClgOAU/OGYipOZ33uxQHi3MAnFNEOQiJtvrlM2qKrhlSSFvQtE+BJ99RvJyW3Z7IyN3WhHVbKgVfPgmzbqFgpAoJhQwkB5/qFSQlBUgpQSnehRfeUWzp03QnwBLyaw7yveOwIluyd8+pFlWWUCCaM0Pj8Kf/NSVmTVyJHWGTUV1FN67UfDQGk1pRBKREYIBL9FviWVFSDuCoTQ8ftzhB0clrX2a/qT38VEKN57yHwcEC4skH9leGM/eNXHEysBR8Ac74av7vaPNIRN+fTt89NbC3cOJLosv7YXvvB7IKkuktBvd/+BmzQMrHZZUGBSHp//hxdOKC/0Wz54WfGFvkJ547iZAb19t8yf3GwVzhb7SZvOxHxmcHRRZ78PRsK0BHtlosaYallYHpp0ZoLRmKAnHO1J8cV+Qp5qzpwRpDVVRzV/8jMOO5flf76+tHWQSjKZh3znNYEJRGsn/lms7mh+fCPBUC9n7HGq3qdAdjTa/ss2gIjrzRxwLSlYsCFFfrukedfivQ5ruUTdw6aXNteecyb7zmpsX6by7gC1H8VSLyfkhb5JqDaYBqyo0H9nmcM/KmYtYSOHK1N7cFEYYCkNq9pzVDKYmKloKAT0JwXePmlQWaW5YIGbtXr4cxmc+85nP5PVJFhBawzMtbks1rw9JCOiNa26scVhWlX+C7D6j+NNdgt5R4anNi9ZsbVB89l7Jz944tV6HU0HAEGyphy01cZK25MyggT3OKSDEmFD4WQFasalO5M0eSViab+y3+bdXJKPWxAmoNZSEFL+yFT5+G2xpkHnzqtWVwF3LNFWhJM0DJgOJie8vgBM9bieBmxcpKqL5S2a7rtLiBDCclnz7aJCBRMZnlB8Mp+AbBwx6Rr2PFwHpRn1//w6LjXWMCdflD5Gg5OblJfyf+wzesjTtOTSBm+f1rcOSC0P5e//dZwR/+1KQXo/Jmemq9YH1aX7jTYrlVfl1OQshKApJPnBThE/vsFkYs7KWb7/eJS5Wg+YL1xVBwF1Jd7XAo8cc0tbkyoxTxZ42zbOt3g9MadhcD5+8Q3JjfWHlf8qiBo+sT1IdtT1tIEPC6T7B06ds8rFAxNOa/3cQeuPeNoAUcFsT/NLNoSnpLs8YQnBbE3x8Sw9VHmMXuJ/Do8ehazh/QhrXH0Fw3aZffdXkO4c1tjN7kliO4ukTaYZTeB4vqmOaX93qcPvS/J5/s2H94hg/e6OgKoan6kpawZ4zikR69gQ53pHm1fMqq1F+d5PNR7ZaVBUVfuCRUIAHN1fztjXeUkxCwOl+zesdk+s/TxXXHUHAJcnRLvjcswbfO2hhOzN/YEprTnZa7D3vbXQaUvO+9Zo7lsm81XEoDWd60+xrHuTg2RH6R68keSRo8Ntvlvz6tjQBOXFsEnilI8jJ3tnekOaFs8bFwrLx97i0XPG7OyQ3Lc6fr2c4qTh4doS9pwZo7kpeUTcCEAub/PJWuLE67bmLDKUkPzkZ5Pxgfu7nuiQIjBnsCclf7jY53pGe8XVGUoJvHgpwfshbuDpmOtzWEM+bD15pzbFu+N2fmHz4+1F+4Tth/u0Vie1cORsiAcFtjZryyMQ+KkK4zVN3n5mdHTacErx0zsDxuITSsKEqzrJyLymOmUFrzf87KPjF74b55R/E+O0fBzjZPfHNa0sEWxt0Vs21HxyFnxzPj/153RIE3PNxZ9zk7/eG+N4RTf/o9HeSnuEUz512j21ertVVNQZLF+SnXl5pN7/pd36oOdAhGUoH6E2a/Mdr8NPmiUfFhvIANy/SWWtLjp0f5lz3zNoMK6Vo7RjidN/E62vcVPRtS6ME8mR3dA4rvvSSw5dfgZ6EyVA6wJEug3940aEvPu5zE5I3NxlUR/XETgK47v7mzgS2Pfvj9XVNEHBXuh8fF3ziUcGnH9c8fyrBQEJPufdIc4+ia1hPWIc1UFvk8K51Kqu+8HSQtjXffFXx+08aHO0W2GNxFimgY0TwlVdNhlNX/k00KPnQFm9bRAIHemIc6JmZPNGopXnyhMVgQnvaXSsrFXevyI8uWEuPw6cfh889b3JuyPUSCuG+z5MtJn+zWzKUvPJvbmk0uG+V9o7mC2geDBO3Zz+9r3uCgDvJ0g78+Ljkoz8O8sfPCE71QCJlo1XuVaY7FSGtDe/dI9bDmuKeWd9fytY8fwY+/5Kkc0R4BsNO9bp5S+OxrEqwqFRNILDbk8WgbXBm5E0rg9eHKr3HDiyODFJszl42NmUpvvaaK9Znq4mxnXgadp6E0XFvFTQF2xZBbbHy3EW64pKkPXvyXjeRdCnc9JO0c0lw4XK4WaKC/qTBD4/C3jbFqtIEDeUBGiokK6sFJaEr/8aQcKwbLI86B61heX0py+tmd99Ka759UPH5lyRdI96ZsVq79dphDz9BWDosCCXQFE/4XcqB491wfjB73pQXhHBFL071umP3up+G6hjh4Oymz9kBxT++YPNYcyCren7IhC0NbsuL8VgcHmBxGNoGK64kFm7c6sIQLJhljup1QRCNm/H7nhvSdI7AzpYgaSf75p+04XS/pLW/GN3qBvliIfff8UhY3h1twwFYUxsm6tG5t30gzaluiwujUcIBQUOxw/o6OSF4aCvNzrGais5s5ABChuLBlTZl4Yn93cIBQW2p6ZnhbAh49AS8eHb69S5KuxnG2Z71iprghPezFVzoT/Nau2bUCVES0myuUywsmbiLdQ0r/mIXfO9oMGtqv9awuiLNx24xKfXo/7K0OsjSaniuY9xnJNwdp20ANs1yAbsuCALuw7y1yWRDHfT9AF44k13F5IoPZEz6dDiZ5cJeSXJj9dJLyie+fNSCP3ve5PHjkrRy4yJ1xZK/ewhurL30upSt2X0G/vRZI/vOASgFa+sEP7M6Sx8VaVBeHMkap0ja0D4DOz1rPUqOsR/qgC/sNtnVmknTF3xws+QTO/QVi4PlaP5ln+CHx0TOJMSgAe+80WBZlffgykqKqPa4D4GrZtM3Ov1xj8d1ZYNoIamKST59p+aRTbCk1AH0lBydF0t6x/+X5fVBA8on7B6anSfcfvEjlomt3CPfmQHBn+1StPS5blfb0XzrgMP/eBzasmTGZgqLNtVpfvc2WFia3ZaoGisQ8xpnZpGY7n+5dhyvsfePKj6/W/PsaUlaufZE0oZvH4Kv71d0jbhu3J645uv7Ff95kJxFZkUheO8GzTvW5XYElIXdmpPxsJTbXXm2uG52kMuxbqHg9ys1LevSfPNwkO+8bjCSyl+9tMY90xeNO/FYls1zx0fpT5ReDBpm3vLZMwa/+2P4hc0OPXHN371o0J/ITY7feBO8Zz1UxXLfeNgcs09GyVdIYtpjb24f5uWzUZJ24OKYpID+hOBPnzP48XH40GbNd49odp81SFjZ1fM318Nv3QJb6qF0kjKBoOG+T7ZYzWxxXRIE3LP52voIn6x2Uy8eP+4wknaPPRKmXQs9Hkq7RvCVP9OkLcfzugI32/QP+gyUco3IbIRVClZWad59I2P9Rya/l7ms6vEae8py0HqiS1gI147bdx5O9bnu2lylAkEDHl6ruWvZ1DTAFOQzJ3UCrluCZFAUhE/u0Dyy3uLVziCPHhcc73JcGUzHuGTMZyGM11lc4Co39sRhSdmln4cCJourI4hWb08acNGfn2uC3LjQPVbVFE+Nwj1xTW/cOw8sU/o6E2Sz37zGvrAiSnlUMjTo/bwABhI5xo7rsXr3jZqH1k71DjUDCbDUxJ3Ya5ebCa57ggBURAUV0TDr6uFtazQX+lJ0jAjOxyN0x91mox0jTAjECaBjxE3b8PLPn+jWbKnPvBIQkvdsMDjUMcpL58Ok1fRMvHAA3nOj5te3u+SYCj2U43C+N0XCjk7IBdO4tsKi0ul5sQSu7dTc6/57xe/Gxn6yh7Gxu2isCvHx7XH+/TXJq13RaS/qyyvhl27S3LcSyiJTu9nuvmHOdoLWJVd8QJkjal3JNG/CA28IglyOsoigrD7KpUVKYDmuQTk+Mc6U8MU98Le7J9aeJ21o7kqTTEI4fCmAsrgyyKfePMKX9ib5bnPFlO4ps8q/dQV87FaoiE19NqcsV/tXiInpLo6Ce5bDp+6Ynv0lBHSNwK9+B870T/x90obTPRZgkPHzGFLw8MYodUVDfPxxk/MjwSm9p9Ku6swnbte8daX7eUwVbT1xzvWAEOOYoF1XdEPp1MecDW84gnghYHh7QsDtUxKQ0jMhsLVzmNZOWLPkygjjqoYyfsVM0zxic6DDu0Q2Aw0EJdywQPPhm6ZHDoCUMumyyzyvHw7A0grXwzVdOAoWlTicHzQmLBwCuNA3SiodJRS8bNsSkk2NRbx/g8MX9ipGLZlz58ocq352neb2pdO3CNvS1Zy1hGeAsTjkNmOaLa4rN28hUB8ZISytCUcGKeC1vnL2dk90xEspWVMX5nP32tzeMEpQeidJatxd6ufWa/7hHbC+dvqT5HAntPbLCZNEaVhW7rCicmYJe2Fps628nbC0PdNYTgwV0Z+auL4GAyYfvjnAH94+wuYF2QMRWkNTOfyvezQfudk7Up4LCUvz01bJ+SHDM8u6vkQRDczeevcJMgmW1USoKjI8U1e6EwbfOSLpGvaehKtqw/zf+wUfvWmIgLwyXypjOL93A/ze7bCwREzbDT2c0vzrPkmfRyms0rCuMsG6ysSMxh0NSe5ZV05JRE5MhBRwqs9g5wmFlwspGpS8Z0sRf3qfZmP1KOPLcRwNi8rgf79V876NUB6d/sLwTDPsPCU9XblKQ2Nxilhg9oVTPkEmQWVxgLeulEQDeO4iLb2KU13Zk/bqKqM8vD7ILfWu+8pRrq1TEXF496phPrBBUTpFo3Q8Tvc6HGj3TncPGrC2LsKCssi0rwsghGRRdYzlVdLT4E7Z8PIZi5TlPQmFlCxfEOE96yyqog6OvjT2yrDDI+tTbFs0NVfueDhKs7vVYSjpXeFZWwzr6kMY00lAywLfBpkExSH45W3w4hnNoc4rV2pXJMLgxycFNy3RBLNI7dRXRvjsz9h846DmQLvbwfedaxR3Lw8TmqGG1UBC85MTbrDRa/dYVKq4a4VEzCI6WhR0FUWePy0mrNSGgD0XQhzu1Gxp8HZqCyl51+Yiais0z591Eycby+H2JYo7lpnMtJSktU/zQpuRxb7RvOfGTAR+9vAJMgVURzXrFzoc6DA9j0E/PCa4a5ni7hXZPnFBXVmAj7/5UvJjJBiYcaAyZWv+6jmHbx82PVtrKw03ViVZGAvheppmjs21DiWhiUQUAjpHBH++S/GxN2tuXuL9PgHT4I7lcNtSd+whEwLGzDWz0rbmy/sUp/tNzyTSooBie12KaCA/RWz+EWsKkFKwbbFBSRhPg3UoJfju6wb72hQqR36DId0co2hwdlH8o12CXadNRtLe1wmZcNPiAOE8KCwurjBYt1B453kJ2N9u8O3Dkt547vN+ZuyzKUAcTcMzLYIXzpqetofW0FQpWF4zcwKOh0+QKeK+VYJ33eDgNVUE8JNj8NEfCp447qZcFAJaw8FzST77tMPpPu/YhqNhQ43Fg2svxShmg9Kw4GO3alZVWkgxcVwpB75zRPB/ntJ0D7vJoYXAcNLhqy8n+eSjcLrfuwQhZCjev96httQnyJwjbMLDq9OUh5X36gWcHxL80TMGL7flf5KkHXimWfPfHwuw95zMmujXWAbv2ySpzqMMz40LFb+zbZiykHf1nqPh+8cM/vhpONaV/7HbCv7hJcFf7Q5eTFcZD0fBmhoxVgacP/gEmQaWVgfZWq8IGt7rpBTQMSz46quSp085JK38TBbb0TzX4vDFvYKWfu+mohkhhfdugB3L8tvwMmgabF9ewuY6lTWlXil4utXgX/cJzvTlT7CvfdDh2wc1j5+UJB2ZNYdtTQ28e72gMpZf8TrfSJ8GSiIGn7wDaksVX39NTogwgztRf3QMnm2VvG215m0rUyytDlBdbEx7ynaPOJzuGuXZthjfPCjpjmfv2yiFq+7+oc0GsTxpAl+OspjJb93qcHrQ1cH1qpsfSsG3DgmOdUvetTbFuhrF2rrwtNvEpW3oHLI50qn46msB9p1zO1hlE82uK9H8/p0OtzaZeStpyMAnyDSxtMrgt291ONef5omWoGcloACGkoKvvwY/eD3A0krJO29w2FbdT+OCYsKhYFb92pHRJK3tg7w+XMW3D0uOd0WI2wJH5W45sL3e5mO3iYKQI4P1dQYff1Oa/7HTZCAlPYOnAAfaBa93BCgNa96yUnDvkkHqowka6yoJBr3tA6U0/UMjnOgRPH66iJ0nDPoTkriVu+owZGp+c7vDbU1GQWphfILMAOURwfs2wNFeaBv0bqIjxnLohy2DV9vh3ABsrICmBbCsBlZWu5WAIQPillseenYAXr8Ap87D8Ti0jwiEMHO2Y1Mati2CX9wMNUWFPzG/aQl85Gb499fgbJaxSwEOkp4EfOsQHDwD9VG4oRFuqHXHXR1zXzeQdBMjj3XBmS443gOH+yBluyLYufqqG9JtlnTnMqaXrjwN+ASZCYTkrlVBIM03D8CuM8GsTSwF7iTqTRrsPF+FPuca/LGg646VwjUw045bz560wggRvqiJlQ2ZCbK1AT59l2ZD7dx8lOVFQT7yJlhUavMnu4ysJcPg3r/ScGSglMMDpey84I47aLoLgxBczKQeSQscVXxF2W+usVfG4F3rFO9aB7Wlb/AehVcjBHD3SpMtizR//YJrk6RztEHOEAXhemUGEpcMfXHZi6aSHaG0m6F791KLj99uUFcy976WB9YYlEY0/+spONkrrhzHOFz+TOKWW09yxdjHjlBT0TZ2NDSUKP7HDod71wQIyMKWUvperNlASMqikg9u0tzVZFEZmZ5IxOUCCVPpAa+1O0Eqo5pHNsOvboO64im8WUHG7gq3/betFrctShGWrvt7srFnjotXjH0Kb6fGWnrXFSl+fhPctSwj01TYInx/B5k1BEurDP7sAWjtTvOdY0G+fcRgKDm9CZANl5fMFofg9ib4wAbF1sWS4CxSNvKBoCl5eL3JHcscdjWn+eqBMEe63LbWUyV9zrHrSzXnSyvh/Rs0OxptmioDBM25GbtPkDyhJGKwYXGElbWwuV6z96zDgQ6D1n7BqJW9Rj0bMq+PmFBXrNhWb3H3qiDbFglKQnPbEz0XhJBUFEke3hBg8xLYfVqx84TieK9J3ygkxnrZTHXslx+9yiOatVU26xZqHlgbGKuXyUOh+TTgEyTPiATg7TcIHlht0JsQ/PNeeOKEomfEIakCWJeVUFzueMn0UxfCTVUPCoeaYrer0nvXWaxaEMDMc1u3fGNJGSzeKHj7WoNj3a4m1mPHbOKWwNIGF8XWL9tZ9NiXTD/4kKGJBRxqik3ev97i4XWS4rCR17Zu04FPkALBNAQ1RW5L6g+sd2juSnA+YTCYkrQPQ/uQ6+JUyvVmlYbHBBbKXAO8OpRmWZWkqiRELBAsSA/wQkAgiAZhQy0srdC8e3WS04MmQ45B57ArBzqchsGkuyhEA1AWgfoS1zNVHdEsKU7SUBWjNBwgMs0gY77hE6SAELh2Q3EoQGPVpTOzrdyCo4xiiBRjdfHy8mzXyLgrXVswpCuQsamxiE1jP9O4UXJLXRLFNuTYjmlkvF0SyEMxeZ7gE2QeYEowgzCzzh3XLgTubhma9ZXmDr6b14ePHPAJ4sNHDvgE8eEjB3yC+PCRA76RPgdQSpFIK5LKxHKgc0zvtz/hplBk3LwVEagtcf8/KB0iAYEhr+01zLJtLCXRSBK2m4OWtF0BB3C9dhlXb8QEQ2hM4RAMXB1T8+q4i2lgDlX+84KRNLR1J3jycD97+2s5N2wwlHAjzOmxEm4pL7l4K6KuXOjakgHuWRlgaW0J0YBGzlOgbKbQ2lU/PNzSQ/NQmFFZRu+oSww1ppEFrms34+qNBWFBxGZRqJe1jTXEQmJC27q5xjVFkFwp4Ep7N5ycDwwmNGf7Hfa3GzzdLDjVE2EoESKpXJ3bTD/BzFBsZ4wsYwG0c4Pwkijjv04KGis02xsc3rzEYeWCINHg1FTf5wNKQzytONunaBs2OTcoaB+sIq1c8blMMqMY9zfWWDeq4RT0xE2Oiyp290gaShxWVzksLIbKosC8kOWaIogUXm3PLvWsaB+a3/uzbIeDHZK/fkFwuMNgKCXG6kQkQlyqwMvWPyPzjeVAGoPhIWgbgt1nTL76qmRTveDn1sMtS/S8R5gvh9aaeEpxoMPgUKegfci41G14rOBrwliz/MxWAguTxCj0jhq83iWIBGBjnWD7YigJqTk9dl5TBAF3G/baRSwFnYNp0mkIBuc2oQ1gIG7z0qkh/nJvMcd7AwjcUtGZLnrjqwi745LHjsPL5+Cj2y0+sNkkOJUCigJDa0X/cIqnTqQ41F+G5YhZZ/KKi1/A1pKhNDx3GtqHFLfWj7K0JkpgjsZ+zRGkdEx8bLwgshCX+kUsrZs7gmgNB9sdPv+CZv+FUgZSMu/CAZnxGcI17D//UoDuhOCeZTYb6ox5y9NKWJrXztkc7pC0DZdg68JUvmYu2dIv6RqJclNccHODTXGk8NP3miNIbTRJ2Agwoq5UCZHA4f4SDvXB0ln2xp4q+kfSvHgG/urFICd6jJy14+OhtXdF4WR/LoDeUcE/vgQ/fN3gv22Ht63VFBdQrMELA6M2P22R7G8PYjnTI4a++OXS4KdaNDWYlvy0FbrjBrc1KRbEKOhucs0RpDqmCBmud+jypyoEnBk0ONINb5+je/mPQyZf3AP9yck7OGUabWpy16Rnur9myOZ5Zhfudc4OCv7kp24W7L0r52jQY9jfbrD3vLiYop8Nl6ezC+HWoptyrLxWXFJ8T9qXCsNyHc/E2LM82CEYSsHdy2B5VeHGec0RpKokTFWRoHt04vleA6+e1/QMO1QVF25oSmkePebw9ddMBnJ0q82UyIZMWFXhsLJkhLqKKI1VAVZUXVI1GUm7R6ezA3CiM825njhnR0s50SsZtbKLGEjhpo7/88uQSDs8uEYWvGZkIG6zv8PglQw5srwusxgUh6AqECciU9RXl1JXahALuj8XwtXbHUlDx5CmZyhBf1LQnYwwkLw0Ri8I4faYf+60pizsUFVUmCIyoQslJFsgKA1//yL868vuyn3589NAxHD4q5+xuG9tuCDvb9mKPW3wqccEZwdFViNca1hQpNhen+amxQHeslJSHrIJBQwQ2Y8EWilSls2IHeDJk4q9LaMc6InR0p/9bxwFNUWaP7rH4f7VhSsuSlqax45r9p6XWcmR6ZpVHU5RW6TY2hhhQczGQBEMBHJuN8pxsBR0jxq83mFzbkBxdjhIys7+Z1q70qgPrlKUFMAmueYIAq6C39/thi/twbM3xltXaP78ZxSlkTyvKlrxnYM2//By0FNdEDIiym7bgN/bIVi/UI+dkWcwabXGchxa+iR/vkvxVKurau51JUfDmmrN379DsLwy/89ca8VLp20ePZVd4khrCJua25Yoti4SREyNac70M9AkLc2r5xUvthn0JQTZhPOFgB2NmlsaRV5aP1+O+fcTzgAlIVhbrQga2rMdwd42eLHVQav8Rg774g7fPaI52ZudHIaAh9bAx2+DTfWCgDkLnVwhCJgmq6oFv3qz5q5lLvm8ljRDQEuf4L8OuYHGfEJrTf9wisMd2jXIPV8DxSHNlnrN1kVQHJazIAeAIByQbKiFu5dpFhSRlSBKw4EOwf7zE72bs4Xxmc985jP5veTcIKDT7Gqd2J9PAAlb0DFoURNTNFXmb9t99KjF114LYOuJspt6LGXk7asd/r87YUV1Ho86QlBXYnDrEg1OihO9ckx58MqXORoOtkMylea2JpE39+9ISrHz6CgnB6N4NXzTGsrCmvtXOty8SBDNo6hEwJQsLBZUhG26h9MMWeaEOxC4Do6OYcXiEovyaP7e/5rcQQCWLwjxjnUyq/G6vzPMnz4X5GRXOi/vd3YAvnYgTMKZKEKtgZIwPLTKJUdVASRAhYCqmOBjtwf4hS0Cr8VZ4PbrePyUyeGu/JBDgxsh7y/D1hPHldk57l3hsKHOIBQozJRaUW3wjnUBVlZ5i+tJ4aozHug0cfJoNFyzBAHYuMCiJJS9X8epXnjqFNhqtk9M88JpxZEub2NRAPet1Pz6mwQ1xYV9pKGAwdvWwvIK7TkRpICehOSFFhv07M8bIynF4U7tmefmuqw16xdq1i6QBVYeEdSWSHY0aaqiGm/LWdDaB33D1nQvnhXXNEG2LTF4xw2CWNCjNRpgK8k/vhzg3/cr+mbWDRlwpTJ3nlCuINq43ykNNy7U/Pp2xcqaGRrj08TySvi92xy2NXify20FzzSri67S2eBMn6J9yHthMCXctkSxo0nPSdqLIQVN5XDbEoewh26cENAzCq19+TNErmmChAOSD21yuHe57ZkHLwQMJASfe9bgEz9WtHZP/7jlaDjeLTjea3pOkoBQvGttmsaKuRNzE0Jwz0qTRzZahM2JTW0kcKo/xOtds/94zw2bpB1vu6M6nOKmRYLi8NyOfc0CSW3MytIjXXKsL0THcH7e75omCEBTOfzsOlhU6r2aZoJRzzTDl1/R9IxMr4/ecFLz7UNuewIvl3JpWLOuJs+ukylidTVURyd6tTLNbF5ts7CtmR83RtOac4PeT0sDtUWKaGDuowQhw9XR8jzuCreH4Ykum3xUD13zBBGGya1NJv/9zSkqwk7WbqwOkq8fCvE7P7D5j9cc2oc0zhR8gq2dcR47ZpOwJx6eTAlvWWmwrr4wQcnJsKImwHs3Cs/OsY6GPWdsXu+wZ3Rty7Y53NJJ+6A9YSJmIuRbG8OYxtzLoEop2bo4QG2Rty0yasGZfoe07RMEcAlw/xqTj27poyk65L2T4PrId50N8QdPmnz4W5q/fs6muS+37/z0oEncmrhUKQ2rSgZ565JBgub8ZNNKAW9bo2ko0RPGLIFjAxGO9UdmdG1LSZqHwqTVRJc2GioDcRZE569CraZIs26BJuThxRfAoBXCUrOf3tdcLlY2BEyDB9YG6Ywr/vmgxlbCcwuWwk0MPNItOTsUpGUQHr4BNtVBWNoEDQgELgX3hpwwlkf0WgP10QQNUYDSeRt3aVhQFVW09l+5kgsBfXHojs/sugrJqCzLeryKyhSGmE91eUFFVBELOKQ8XO8JC88ektPFdUMQgJrKUv7bDgUBi68fDDCS9l7ZM81s4mn40VF4thWWlGqqgwmqopqa8hjlMYOiIOw+7e4w4+MtErihsZKl9d73orUmYSnODRkMJt04yaISh0ggtztUaTfF4vygYjBlUhTU1BZrSiPeq2HEsGmIJNirSyawOOXAyR53QQga2d8v7cBQEgaS4uJuOpCEzuHsdl19dSnB4PweQMoYoExAH+Nya4RLkN5RVwxjNriuCAJQGpH89u0Bti6y+MYBkyebZc6uT0K4tdCHOgWa4oup2YYEU7j9Kbya1seCcENtgGxtKjr6RvjJCcm50RiW4xZ5LYomubVuhGUNVVnP7md6HZ5qkbQPG6QcMKWgrtg9StWWTBxIKGiysCKatS31uUH3TO5FEK01B9qS7O8M0zsqSFyWcu7o7EfPkAG1pfPfgqGuqpjafmhuY0I2heW4GdKzxXVHEIBIQHD3CpOSsGIoqXil3fTcBTK4otDpstdkjchqt89eVQ5x3XNDBi2DIdRYbUPShpahMBGRpGEhnpFwpeFEn0lz/6VbSTlwZkDQ3KeoLRl3g2OvKo+ZREy37Hg8BpLZxSzStuZAp8mJHkGmzHvSLle4zol8JwXOBMFgkOJo9uTNRB7ihdeFke4JIdm62OTv3i75wAbFkjKNIZhSm7DJkMnYrc5CkN5RaB6O4nDpbCwAhUFLopLehPfqG0/DkS73DS7/O0fDiR5B0vaevpVRt2jKy6MTT2ffCXoTkgsjAaQcWySmOHhTul6sqwER0zv1xNGukMdscV3uIJdjYYnk03fDhwdtnmkx+M+DcLZfkVIGjp553DuXBJGjwMmSmqFyHF201iglsl4zW2HCTDM8kvYMDVlRsK7LVx2u3x3kMoRNaKo0+fBWwV/el+AX1vZwQ41DQLoTxNGXlcROYXsRuIZvtvSVqqiivkR5Zp1WRNzWYl6IBAS1JWN9+cahJpImZHjP5nja/Y8sXrtsKA0pwqae0pgvH4Sj3ODr1QBLkdWtnw8SX/c7yHisqg2zuDLEB1IGu1oUh8+N0j4iOT8aZTChGbXcnoKXN7eRHjM9ZUNPFheqlJIVVYrjPdA2yEUjfXEZ3LLYIZbF+xMwYONCRW9c0DMqSDmut622SHPDQon01IPSdA8rBpOGJxkqo6695IWSsGBdjeLVDoN4euJEy0YuW41pAswzbNtmOAFKmxPu1ZCuI2W2eMMRxJCSojAUheH9mwTO+jBJWzBqw0jC4dywwekBQf8oIODFM7D7zJWTReBOkGNdmjuWZn5yJepLJe/fCMe6XbXE0rCbGlIclDmXtjULBIvLBad63R0qbMLySkFNzPujsiyb9r4ESpdM9LZpqCtxz+leCBiCe1ZINtS7YxlMCTKdlbWGQx3uMexyZBwOHUOalVXze87q7B2ivQeEqLhy3Lg2YlkeEhzecAS5EgLDMIkZEAtBdcykqQpuu+wVQekSZDwcBWe6RugdgMoy72blxSHY2jDxPXNBCkFxyA1cTuXv0o6gd1R6ck7jEiScI54XNAX1JVBXLC4p8Yy5vtsG8Uz60xp6hhIoJ4Sch1STDAZTkqGU9+8C0hXEni3eEDbIbFAdVYQ8SnulgOM9guPd87uKDqYlFxJRz0h/RQSWlE/NEZFxOsgxt7QpNAsiFqb0NlD6E+LiMXS+0OcUM0SJZypMLOiqxs8WPkEmwZLiUWKBiTNBCjjcV8QTZ4outTeeY2iteeK4pnVg4g6iNawpj3ND+cxyTQLCYVGoF1M4nnX/3akIPYn52z364q4O8qjlUeUIlJpJgnL2H4xPkEnQUBWjptj0XIVTNuw8obkwmAeH+wwwmIQfHJUkPTKNlXYF1VbMUFQtEDBZ21hDNGhOCBwJ3ACkmyk8P6I4zX2CC8Mi69GyLKI9s5ynC58gk6A0DO+/MU1ZWHvWXfQnNK93zE89yLGOFK19asKHqHGPF5sWRyktjs74+rGQoKEk+yp8bkCRtOaeIJbt0Nyd9ownaaC2GJbXhJFy9gzxCTIJIgHBwzdK1lbbE+ITAohbkq8eCNA+OHfnLK01e88q/mlfkP6k9/FqVZViRxYP21QRMASrKh1MOXEmSgFnh4O8el4xmo+Q9dRHz8keONkf9ByaITQ3NyjWLcyPbegTZAooCUvWLdBZy3r3nRPsapXMWhtiioinNF96WfBUs3dmsNKwpiJBWWj2pK0tdncjr6GlbHixzeBk71xNI81oymHfBUnckp6OiaB0WBDOQ5biGHyCTAVC8sDaAEsrJwbTBG4090svC/7iWcVworA7idaa7x9Ksues9j5/a9d79dY14VkKt7moKgmwsU567kNCQF9C8OxpycnuwtsjPcMWPzw4yuk+7R3E1LC8yqC2PH8Vnj5Bpoj1tYL3bdBkE+841Qv/vBf+/RUrL1mkXkikLHYet/mn/REGU9kn7c2LHLYvyY/CiikFNy+C5RXKc1IqDeeH4PHjrpZuvpUNM+gdTvPcGYMDfSUkHG/PVdjUbFioiAR94bh5wR1LLKqjKqseVcqRfPGVMM+2gp1P9TJgJGnzg1d6+IOdcKZfeEufalhVBQ/fIIkF8xefKQ0rbq0bpSigstadnI+H2dlscGZgigltU4ZmNGWz81iSl8+7Ez9bG7f6UmiqyO+UvmalR+cDpRGJo+F0v2Y4NdHFKMZytA53Qkuvw5Iyt5JwVh1qtaJ9SPGFlwRfPhile9T0TFVRGhaXav7oLXBrk7vy5wtSCEpjJpYjODsgvIUxuNSANCgdyiICQ+hZicnZjuJYt+bJZoPmgSCWzt7AdHOd5s5lUBHNb5PTa1LdfT4RT1o80wx/+HSA3rh3WpXS7qraWK5582KHNzUa3LmMaTXeTNmaF087PN/q8PI5waHuYNaiL6XdtJbfv9Pm3esNZIFasg0nbH503OBgh8jZjiAcgNqYRUMJbF0SoDo6vd5sfXGH5j5Bc3eak/1B4pbM2YNlRaXmHWsdKmJ++4OrApaj+YtnNV96WeKo7J99JoW+JAxvWa64o0mxONhNfVWM6vLiCatr/+AIrT1pzibL2NsmeOw4dI+KrA104NL1H1pt8+m7jYJ3vz03oPjxcUHboMjptVNjnKgdUx+pjGrKGGBhZTGh0JVptpZl09U3xGBK0ucUc7BDcmFYYKvc3abUmGj2u25wWF5dmLTCN3iy4swQMFyxuuM9mt1n8FRah7FJLWAkBd9/XbLvnGZxABqqYPECt6V1prZkIAnd/dDSDWeT0D7sCijkUvTU2r2Xt6/V/PwGiMyByMiCIrh7OTzXqjnRk30nyRC6fVjQlxDEAg5lAmr7oTh6KcPYUjCcgPYeGEzBMIJRS+QsSMuMvSys2VSrWVRAURl/B5kF2gdtnmmGz79kcGFITHqKyLQl02Ora2DM0aT0pbrxTLLgpNcCKiOaD98E79+gKI/NbV5Uz4jDE6cER7pk1qY+4+838wwEl8pklb6028DU/W7LKzS3Nzo0lEI4WLh13ifILKGU5oVWh//9U5OjXe4HX8hDjsYl0UNr4GfX2ryp0Sh4X8JsGErYvNRmcKBD0Ds6eSPTfIxd4Brkdy91KC+AzTEevpt3lpBScEuTyQc3ux9cUKq8CEOMR6aeXeC2WvulmzS3LTPnjRwAJRGTW5a4cZLioELraZbvTmPsWkPY0Cyt0GxfzJyQA/wdJG9wFPTGHZ46qfjGQZPWXsWI5Z6hZuXlZcwQDykaywX3r4J7VyiWVhkF3ammO/a2vjSvdQZo7dP0jLoq67OtCXdb2mmC0mF5lcHGhYrGCkkkmF9Xbi74BMkzNNAxYNHcbfHihTD/eUjSPnyZbYH7JVuH2IxwXeb7aNA9Tj2wMs2aBZKqIrPgR5mZwlbQP2LR2qc41hfidL8rWnfxdnN4pPRl32TGX1sMNzcoFoQT1JaH8xohnyp8ghQQ8TR8/4ji8PkUp4dDnB+SDKdcQbOEfaX8T0C64grRgBvTqIkplpUmWbYgwn0rBYvK5ns000PHsNuC4Ey/w6AVcsdsuc4IR18S5csY7EHDfQaxoFvsVBbRLK8Js3aBmNcFwSdIweG2WRi1JfG0oGvEjTZfGLqkDCKF27m3IgqLysbqyE1NzFR5STict5FrjeVoLCWxlSuo159wiZLJkBfCJUVZ2K0hjwbcSHzAIC/1HLOFTxAfPnLA92L58JEDPkF8+MgBnyA+fOSATxAfPnLAJ4gPHzngE8SHjxzwCeLDRw74BPHhIwd8gvjwkQM+QXz4yAGfID585IBPEB8+csAniA8fOeATxIePHPAJ4sNHDvz/XF6LS+aX644AAAAldEVYdGRhdGU6Y3JlYXRlADIwMjAtMDYtMDhUMjA6MTM6NTkrMDA6MDD0/Bl3AAAAJXRFWHRkYXRlOm1vZGlmeQAyMDIwLTA2LTA4VDIwOjEzOjU5KzAwOjAwhaGhywAAAABJRU5ErkJggg==;" vertex="1" parent="1">
          <mxGeometry x="696" y="266" width="54" height="54" as="geometry" />
        </mxCell>
        <mxCell id="gg1GSGkbbHf50dHX3CCL-14" value="" style="shape=image;html=1;verticalAlign=top;verticalLabelPosition=bottom;labelBackgroundColor=#ffffff;imageAspect=0;aspect=fixed;image=https://cdn4.iconfinder.com/data/icons/scripting-and-programming-languages/512/Python_logo-128.png" vertex="1" parent="1">
          <mxGeometry x="699.5" y="380" width="47" height="47" as="geometry" />
        </mxCell>
        <mxCell id="gg1GSGkbbHf50dHX3CCL-15" value="" style="shape=image;verticalLabelPosition=bottom;labelBackgroundColor=default;verticalAlign=top;aspect=fixed;imageAspect=0;image=data:image/png,iVBORw0KGgoAAAANSUhEUgAAAQEAAADvCAYAAADy1WG7AAAAAXNSR0IArs4c6QAAAARnQU1BAACxjwv8YQUAAAAJcEhZcwAADsMAAA7DAcdvqGQAAA/FSURBVHhe7d1peJRVmsbxB0RkS9gjAmELe4CwJCQg0qKtto24tIiiItIOOi6I3U5vOq3OpT0jfbXSqOClggsqINAjgqKCCohASCCEECAJIRBCAiGAQFjCJuM5nHJQoZJKqlLv+57/74tVz8e+um7qufPWOTXOfE8AWCknr0hqmtcALEUIAJYjBADLEQKA5QgBwHKEAGA5QgCwHCEAWI4QACxHCACWIwQAyxECgOUIAcByhABgOUIAsBwhAFiOEAAsRwgAliMEAMsRAoDlCAHAcoQAYDnXhkBpwXHzCkBVuDYEDmwtkyWPbTPvAFSWq9eBtEm75IUaK2XT9BIzARAoT3QCn47eItPj0mVv5lEzAVBRnikGSzKOyjs90+WzMbkiXKwGVJhnQsBn49t75IWaK2Xdy7vMBIA/ngsBn68e3SZvtFsrhStKzQTA+Xg2BJRD+cdl1qAN8tFvsqRs/ykzBXAuT4eAT+6H+2Vy0xRJfm6nmQDwsSIEfFb8dYe80ni15H3yrZkAsCoElOMHTsuHN2yW2VdtlAN5ZWYK2Mu6EPApWHJQpsWkybL/2G4mgJ2sDQGfNS8U6acON7/PU4ewk/Uh4LPw7i3yXr/1Urz2sJkAdiAEzlGcdkTei8+QRWO3yskj35kp4G2EwHlsmFosLzVIlnWv8NQhvI8Q8OOrcdtkWsc0yf/ioJkA3kMIlEOdWzD3mo2yYES2HN55wkwB7yAEKihnzj55LXqNJD/LU4fwFkIgQCue2iFTmqfoUAC8gBCohGN7T+n1YO51mzjIBK5HCFRB/qID+iCTpb/fLt+d4iQTuBMhEARrJxbJpHrJkvFGsZkA7kEIBMl3J8/I4vu3yvuJGbJz+SEzBZyPEAiy3SmH5YPBmfqsw2MlJ80UcC5CIETUWYdTolIl9e+FZgI4EyEQYl//KV/e6rpOts7fbyaAsxAC1WB/9jGZd1OWfHRLlnybc8xMAWcgBKpR7rz98maXdbL8L/lmAoQfIRAGKc8XyqstUmXjO3vMBAgfQiBMjhaflM/uzZUPrsyUXas5yAThQwiE2c5lh2RGUoYULOXnyggPQgCwHCEAWI4QcDiuT0OoEQION//WLP6k6CKnjn7nun6HEHAB9SfFiRev4m4Eh1v5XwUyqX6yeecehIBLqPMK1N0I0/usl5L1R8wUTpA1a6/+8K96psBM3IUQcJmS9CMyvfd6WThqi5wq426EcNqz7oi823e9fDIyR68BbkUIuNTm90pkUt1kvSqgep04dFp/8FUAqCBwO0LA5VRpOLlZiuR9zHXr1UHt/S83XK1XAK8gBDygbN8p+XDYZv0I8oFcrlsPBbfv/f4QAh6iHkGe1ilNvnwkz0xQVeqCWi/s/f4QAh6UPnm3vm59/au7zQSBUg9pqQ++uqDWC3u/P4SAh33xUJ5MjUmTgiX8OCkQau+f3DTFU3u/P4SAxx3MK5PZV23UJxuVcpeiX17e+/0hBCyhzjh8PXqNfPPkDjOBz67kUs/v/f4QApZZ/d87ZWLtVbLpXR5BVge7qA/+jAEbPL/3+0MIWEhdlPLpPVv0v35Fq0rN1C5q71dHvNmy9/tDCFhM/es3c+AGHQi2XJSivgHZuPf7QwhAfzDURSmr/2enmXhP4TeH9DcfFXg27v3+EAL4wTdP7JApzVMlZ84+M3G/w4Un9N4/64pMq/d+fwgB/MixvSdlwYhsmT1ko+s/NCue2iGvtV7D3l8OQgDnpU7HUV+fv3w4T06UnjZTd8h8c4/e+5Of9e56E0yEAPxKn7JbXo5cLWsnFpmJc6knI1VwfX5fLnt/AAgBVMjS32+XaR3TZOsC512semj7cfn4jhz9ZCR7f+AIAVTYga1lMu/GLP0I8v7NzrhYVZ2n8Eb7tZL9AXt/ZRECCJh6BPmt7utk6ePb9YNH4ZDxerHe+zlZqeoIAVTa2heL5KWI5Gr9yXL+4gN671/8wFb2/iAhBFAlp4+f0T9ZVh9M9QENFXVi0vzh2TL32k3s/UFGCCAo1AdTfUA/HpEtB7cF74gzddT6sj9s1ycmbfmXdx5ichLXhkD0lQ3l7tRe0ubqhmYCJ8ies0+mdkgLyk+W1QlJ6lDPNf9w/p8n3czV3wQujW8gt30RKzfM6iyR7S4xUziB+smy+j1C5lt7zKTiti38Vt6JS9dnJbL3h54n1oEutzeTsdv6yaC/tTETOIH6ZeLnv83Vv1TcufyQmV6Y+rOj+vPj/w7dLHszjpopQs1TnUDiE63loZL+0uO3UWYCJ1BnFnwwOFP/gu981E1KSx7bpv/sqP78iOrluWKwbrNact20jnLnqp7SenCkmcIJSguOm1c/ljKhUNIm7TLvUN08FwI+lyVFyO3Lesiv3+0kDVrVNlMAP+XZEPDpdndzeWBnvAx8JtpMAJzL8yHgM+DpaN0XdB/V3EwAKNaEgKL6guund5I7vukpLQdGmClgN6tCwKfV5REyckVP+dVbHaVe1MVmCtjJyhDwib03Sh4sTpCkJ1ubCWAfq0PA5/Ln2ui+oOsdzcwEsAchYKi+YOjMzrovaJHQwEwB7yMEfkL1BXel9NIPHNVpUstMAe8iBC5APXr88L7+kvCnVmYCeBMhUI7Bz7fVfUHnW5uaCeAthEAFqL5g2Nwuui+I6l3fTAFvIAQCoPqCUevidF9QO+IiMwXcjRCoBNUXjDuUKAl/pC+A+xECVTB4wtm+IOamJmYCuA8hUEWqL7h5XlfdFzSLrWemgHsQAkGi+oLRmb11X1CrDv+zwj34f2uQqb5g/LEk+gK4BiEQIj/0BTfSF8DZCIEQ0n3BR2f7giZd6pop4CyEQDVQfcGYrD66L6hZq4aZAs5ACFQj1Rf87uQA+gI4CiEQBvQFcBJCIEzoC+AUhECY+foCIFwIAYdQtywD4UAIAJYjBADLEQIOFxF9iXkFhAYh4HD6xqSve3BjkgvUqltThkxq77p+hxBwgVZXRP7/jUmXcmOSE/Udf5k8vL+/9H30MjNxD0LARfSNSbsTJOk/uTHJKToMayz3ZvaWIf9s79qfkBMCLnT5s23k/h39pOtIbkwKl6ax9eTmBd3klvnd9Gs3IwRcShWGQ2d0lhFfxXJjUjXy7f3qX/+YGxqbqbsRAi4XPaShvjHp2jdiuDEpxNTe/2hpoiv3fn8IAYc7tu+UeeVfz3+7VN+Y1J8bk4JO7f1jNvXRe3+Ni7z3U3BCwOEWDM+Sr/+cb96V74rn2+q+oPNwbkyqqnP3/ibdvPsjL0LABVInFMqLNVfKxnf2mIl/qi8YNqeLDF/UXaL6cGNSoLy49/tDCLjEmTMin92bK2/Hpsuu1YfN1L+21zSSUWlx8sspHaR2JDcmVYTa+8cfTfLc3u8PIeAy+zYdlRlJGTJ/eLaUfVuxviDuwRYy7mCixD/e0kzwU2rvvy+3r977bUMIuNSWf+2TyU1SZMVfd5hJ+X7xj3a6L+jIjUk/UHv/bxae3fsbxdQxU7sQAi6X/NxO+WedVbJ5xl4z8U/1BTfN66r7gmY97L0x6dy9v/313t/7/SEEPOD08TOy8K4cmd5nvRSvrXhfMHpDb7nq5fb6A2ETG/d+fwgBDylJPyLvxWfIJ3fmVLgv6POIPR8ItfePze9n5d7vDyHgQVkz9+q+YNWzBWZSPvXVWPUFHYZ676ux2vuHL47Ve39kG85n+ClCwMNWPlUgL0Wslpw5+8zEP9UX3PJxN90XeOEEZLXmXD2lg9772/6SMxwvhBDwuJOHT8uCEdnyfv+MgPoCdQKy6gvcemNS38fOrjm9H2xhJrgQQsASu1MP677g09FbAuoL1I1J6r9uofb+fy+KlyET2fsrihCwzKbpJbovSHm+0EzKp74RqL6g7bWNzMR51N5/+9Ieeu+vf1ltM0VFEAKWWv6XfJncNCWgvmD45911X+Ckh2rU3q9+Rq32/ta/iDRTBIIQsFjZ/lO6L5g5aENAfYF6vFZ9Owi3hD+00nu/+hk1Ko8QgBStKNV9waKxWwPqCx4/MzAsfYF67PmhkgQZ/Pe2ZoKqIATwgw1Ti8/2BRMq0Rd8/w0h1NTeP3JlT/3Yc91mnLocLIQAfmb5n/Pl1RapgfUFi872BREheBhH7f2/eruj3vtbDuD+hWAjBHBeR4tP6r5g9pCNAfUF9+f3C2pfkPhEa733x46OMhMEGyEAvwqWHtR9weIHqrcv6HxbU3nkQKIM+lsbM0GoEAKokIzXq6cvaB5XX+5K7SXDZneRSxpyGlJ1IAQQENUXvN5mTaX6An/U3v/r9zvLPelx0iKeexSqEyGAgJUWnNB9wdxrAusLRizpYd79nNr7u93JjUrhQAig0vK/CLwvOJ+BT0ebVwgHQgBVVpm+AM5BCCBoVF8wNSatwn0BnIEQQFAdzCsLuC9AeBECCIlg9QUIPUIAIUVf4HyEAKqF6gtmD8k07+AkhABgOUIAsBwhAFiOEAAsRwgAliMEAMsRAoDlCAHAcoQAYDlCALAcIQBYjhAALEcIAJYjBADLEQKA5QgBwHKEAGA5QgCwHCEAWI4QACxHCACWIwQAyxECgOUIAcByhABgOUIAsBwhAFiOEAAsRwgAliMEHO7qVzpIhxsam3dA8BECDtc0tp7csqCb3PxRV2nSra6ZAsFDCLhEzI1NZMymPnLli+2k5sU1zBSoOkLAZfr9rqWMO5AovR9qYSZA1RACLlSrXk25enIHuWddnLS7rpGZApVDCLhY89715dbPusuNc7tIo451zBQIDCHgAZ1ubSr3bekrgye0FaEuQIAIAQ9J+GMrGX84SXrdf6mZAOUjBDxG9QXXvBYjo9LipM1VDc0UuDBCwKOi+tSX276MlaEzO0tk20vMFPg5QsDjut7RTMZu7yeDnmtjJsCPEQKWSHyytYw/kiQ9xkSZCXAWIWAR1Rdc92ZH3Re0HhxpprAdIWAh1RfcvqyH7gsatKxtprAVIWAx1Rc8UBgvA56JNhPYiBCADHw6WvcF3e9ubiawCSEATfUF17/bSfcFLQdEmClsQAjgR1RfMHJlT90X1Iu62EzhZYQAzkv1BQ8WJ9AXWIAQgF++vkCFAryJEEC5VF+g1gPVF7SIb2Cm8ApCABWm+oK7UnvpQKjTuJaZwu0IAQRMrQYP7+9PX+ARhAAqjb7AGwgBVMm5fYFaF+A+hACCQgWACgIVCLUbXGSmcANCAEGlVoNxpYn0BS5CCCAk6AvcgxBAyNAXuEONM98zr4GQypq1l28GDpOTV0QIADZTIcA6AFiOEAAsRwgAliMEAMsRAoDlCAHAcoQAYDlCALAcIQBYjhAALEcIAJYjBADLEQKA5QgBwHKEAGA5QgCwHCEAWI4QACxHCACWIwQAyxECgOUIAcByhABgOUIAsJrI/wFRwvX5DzQ/bgAAAABJRU5ErkJggg==;" vertex="1" parent="1">
          <mxGeometry x="767" y="440.11" width="73" height="67.89" as="geometry" />
        </mxCell>
        <mxCell id="gg1GSGkbbHf50dHX3CCL-26" style="edgeStyle=orthogonalEdgeStyle;rounded=0;orthogonalLoop=1;jettySize=auto;html=1;exitX=1;exitY=0.5;exitDx=0;exitDy=0;exitPerimeter=0;entryX=0;entryY=0.5;entryDx=0;entryDy=0;entryPerimeter=0;" edge="1" parent="1" source="gg1GSGkbbHf50dHX3CCL-4" target="gg1GSGkbbHf50dHX3CCL-5">
          <mxGeometry relative="1" as="geometry" />
        </mxCell>
        <mxCell id="gg1GSGkbbHf50dHX3CCL-29" value="" style="endArrow=classic;html=1;rounded=0;exitX=0;exitY=0.5;exitDx=0;exitDy=0;entryX=1;entryY=0.5;entryDx=0;entryDy=0;entryPerimeter=0;strokeColor=default;" edge="1" parent="1" source="gg1GSGkbbHf50dHX3CCL-14" target="gg1GSGkbbHf50dHX3CCL-6">
          <mxGeometry width="50" height="50" relative="1" as="geometry">
            <mxPoint x="399" y="354" as="sourcePoint" />
            <mxPoint x="449" y="304" as="targetPoint" />
            <Array as="points">
              <mxPoint x="662" y="404" />
              <mxPoint x="662" y="299" />
            </Array>
          </mxGeometry>
        </mxCell>
        <mxCell id="gg1GSGkbbHf50dHX3CCL-30" value="" style="endArrow=classic;html=1;rounded=0;entryX=1;entryY=0.5;entryDx=0;entryDy=0;entryPerimeter=0;" edge="1" parent="1" source="gg1GSGkbbHf50dHX3CCL-15" target="gg1GSGkbbHf50dHX3CCL-8">
          <mxGeometry width="50" height="50" relative="1" as="geometry">
            <mxPoint x="700" y="428" as="sourcePoint" />
            <mxPoint x="750" y="378" as="targetPoint" />
          </mxGeometry>
        </mxCell>
        <mxCell id="gg1GSGkbbHf50dHX3CCL-32" value="" style="endArrow=classic;html=1;rounded=0;exitX=0;exitY=0.5;exitDx=0;exitDy=0;exitPerimeter=0;entryX=1;entryY=0.5;entryDx=0;entryDy=0;entryPerimeter=0;" edge="1" parent="1" source="gg1GSGkbbHf50dHX3CCL-8" target="gg1GSGkbbHf50dHX3CCL-9">
          <mxGeometry width="50" height="50" relative="1" as="geometry">
            <mxPoint x="396" y="399" as="sourcePoint" />
            <mxPoint x="446" y="349" as="targetPoint" />
          </mxGeometry>
        </mxCell>
        <mxCell id="gg1GSGkbbHf50dHX3CCL-33" value="" style="endArrow=classic;html=1;rounded=0;" edge="1" parent="1" target="gg1GSGkbbHf50dHX3CCL-12">
          <mxGeometry width="50" height="50" relative="1" as="geometry">
            <mxPoint x="804" y="197" as="sourcePoint" />
            <mxPoint x="449" y="302" as="targetPoint" />
          </mxGeometry>
        </mxCell>
        <mxCell id="gg1GSGkbbHf50dHX3CCL-34" value="" style="endArrow=classic;html=1;rounded=0;entryX=1;entryY=0.5;entryDx=0;entryDy=0;" edge="1" parent="1" target="gg1GSGkbbHf50dHX3CCL-13">
          <mxGeometry width="50" height="50" relative="1" as="geometry">
            <mxPoint x="775" y="293" as="sourcePoint" />
            <mxPoint x="490" y="351" as="targetPoint" />
          </mxGeometry>
        </mxCell>
        <mxCell id="gg1GSGkbbHf50dHX3CCL-35" value="" style="endArrow=classic;html=1;rounded=0;exitX=0.392;exitY=1.3;exitDx=0;exitDy=0;exitPerimeter=0;" edge="1" parent="1" source="gg1GSGkbbHf50dHX3CCL-47" target="gg1GSGkbbHf50dHX3CCL-14">
          <mxGeometry width="50" height="50" relative="1" as="geometry">
            <mxPoint x="440" y="401" as="sourcePoint" />
            <mxPoint x="490" y="351" as="targetPoint" />
          </mxGeometry>
        </mxCell>
        <mxCell id="gg1GSGkbbHf50dHX3CCL-36" value="" style="endArrow=classic;html=1;rounded=0;entryX=0.5;entryY=0;entryDx=0;entryDy=0;entryPerimeter=0;" edge="1" parent="1" target="gg1GSGkbbHf50dHX3CCL-5">
          <mxGeometry width="50" height="50" relative="1" as="geometry">
            <mxPoint x="422" y="188" as="sourcePoint" />
            <mxPoint x="483" y="302" as="targetPoint" />
          </mxGeometry>
        </mxCell>
        <mxCell id="gg1GSGkbbHf50dHX3CCL-37" value="" style="shape=image;verticalLabelPosition=bottom;labelBackgroundColor=default;verticalAlign=top;aspect=fixed;imageAspect=0;image=data:image/png,iVBORw0KGgoAAAANSUhEUgAABAAAAAJlCAYAAABE9IBQAAAACXBIWXMAAA7EAAAOxAGVKw4bAAAgAElEQVR4nOzdfXRU93Uv/O/+zUgITDDBhFBCuTLMjGQEMwIRjEEajYWva6e+uUlakjTvyW2TvsV9T2+aJ7krT5s+ddK0103TNM1tu5rnSa4T4voFBzvEoYMkg00tkASyxWjAKiUUU0q4BMtCmvnt5w/JDrZ50cuc2ef3O/uzFms5jpC+YGnmnH323j9AKaWUUkoppZRSSimllFJKKaWUUkoppZRSSimllFIOIOkASimllFJKKeWj+ubcwrmxcl15jOeVgYUAQLH4AkOIX+v3EnCuXC5bw3wOpnZ01I6NrLwhfiGfz5eCT658pQUAVXX19bm6Oa8fX1Qq1yyiWHkRLOpAZoEBzwOozjIvBKjOgK976fcwsACAudLnJODcS/9siSyYf0TgEWKMWmPOEeyIsTRaYnuOuPYcrnvhTPGpp84H/EdVSimllFIeaWlpif8Ic5fFS/EVzLwcxi4H008DWAxgMREtZsuLQVgMYF5AMUYBnGXgLIHPAHQWwBlm/JAMHyeKnUAJJ0bmXxw+sW/faEAZlKO0AKAqxaQyHUuZx5azoaWGscISfgqg5WR5GcgsAXgRgEUI7sVwukoAzgA4A8ZZIpxmwklmfg5kTjD4ZIzjw4XUDaewfbuVDquUUkoppaqjsTlXP27RaMApJm4gIAUgAWAFrvJQKoTOABhkokGyfIRBg9bw4IqFZlg7CaJJCwBqynK5XPzkfyBhiRMwNkGMVWBaCaIEwPUAaqUzBqQE4ASAAsAFInqWQYUSxQrPHdx9XDqcUkoppZSaMZPIbGkEzHoA6wBqNsB6nmzX99gYGMdAGCSgwKBnweVnasvxZwYG8hekw6ngaAFAXVZqbetKS2aNAa9m0FoQrQG4Ef7e5M/UCIDDAA4Q0UEAB0bmjh3WdiullFJKqfBZfsstdXMv1GwkolYm3kLA5gjc7E+HBXCMgF4wHWRje9nG+ov9+RPSwVRlaAFAIZXpWAYa32iBNxPTRgI26AvhrJQADDLzkwbURUDnkf7OYelQSimllFJRlGzONTPb2w1wJwOboQ+0po9xFoReBvcapj6OY//Qgc5B6Vhq+rQAED0mta51DZdjORC3A9gEYJl0qAg4yUC3AXeViB471ttZlA6klFJKKeWjZS0t864bn3cHG/qvxLgDwBLpTJ46SaDdTPYH5RjvPtbTraOxDtACgP9MIt3WDEKWiG4FoxUTi/iUJOJjzLTTEB69EHshf7KnZ0Q6klJKKaWUq+qbcwvjXL6LQD8H4HaEZ+l0lBQB7GbgBzC8u3iw64x0IPVaWgDw0Kp0bo0BdzDhVgPOaTt/6I2CsZsMvjUG8/Bwb/7ctX+LUkoppVS0NTU11Y7XLHqLZfNBAr8F2tofMtQP2McIsR2F1Bv26qla4aAFAA/UN+WW1tSU7wCbnwG4A9rm5LIxgHYR8/ZSTe2Dx3oePy8dKKrqm3ML49ZmDVGCmW8gQlw6EwNjDPwYRBfAPErEp6jMg4VD3cOYWNqj1GUl1nSshCmtAfECkFkA5gUGeH1VQxBGLeMFAs4RYZRBJ9nSoC6WUlO1Kr15CVG82TAvgjELLPNCEF9vmMReny1xiSz9CIRj4yWzd3ggf0oqS5Q0rMttKFv7QWK8B6SdrY44w4SdsLwjdtE+duTIE3rSgBAtADgol8vFf/gfdjPH6E5ivgNAs3QmFYhRAP/IZL5W7M3npcNERSrTsYxR/hzA7wPkb/qnaATAIIPzBrEHCn35bulASlYq07aRibYxYzMBawAskM50FefBeIYN745R7IEjB/NPSwdS4ZBY17bYWLybYX4G4PVwY2fRTgY+Vezr7JUO4pv6+lxdzcLyu8H0awA2SOdRszIGIE/gHeOm5mE9Vru6tADgiIaGLfPLc+N3kOW3E+Et2tYfLQwUiPhr1pa/frR/72npPL5qWNOWtjH6HoCl0llmqdcwfudIf+du6SCqeibmX/luIvtBMK2UzjMLT4Pok0O9ex6XDqJkJNa1b6IyfxqE2+FOIfZSY0z4cLG385vSQXywsqV1RWw89nGAP6JP+73VC+Jv2BLdd/Rwp3aFBUwLACF245qtS+Kx8bcR+O0M6oDONamJEYFvMkpfKPY98Yx0GJ8kbr55AV2sPej4jdMrMNGfFHv3fFI6hwpeItP2PgLdC7+WvP7di/PGf+3Evn2j0kFUdSTWtS2mMn0RhA9IZ6mAMQK3Ffq69ksHcVVyfbYRJXwShPfAzUKQmj4LQjeBvmHnjN5XfOopHYUNgBYAQqaxcesiW1d6BzP/AoAcACMcSYUVYycb8wUdD6iMZHPb74LpC9I5AvDNodQb36+Ld/yVyGS/SMBvS+cIAgF7x8j8rC5H9d9NLW1Lx0u0h4CUdJZKYWB3sa9zq3QO1zSsy22w1n4SwNug18FRNkLAfQB/VQtplaUFgBBIp2+fN0IX30HMv+Bwu5uSs5+BTxf7OndJB3FZMp19FoRG6RxBYODPin2dvyOdQ1Vesrn9E2C+RzpHwHa/6fXmZ/L5fEk6iApGU1NT7Vj8hi4AG6WzVJph3Hikv3NYOocLEuvaVpOlPwTwDuksKnQOgOkLb1pE39H3gtnTAoCg5NpsFoY/DNDPA5gvnUe5jYC8ZfPJYn/+Seksrkm15BZzyf67dI4gEfPWQn+X7gTwSCLdtp6InkI0isafHurr/CPpECoYqXT7HzDx56RzBIEIHyz0dn5dOkeY3biuY0Xclj8L8AegT/zV1Q0D/EV+Yf7fFIuPjkmHcZUWAKoslelYZlH+RQJ/EIA3s8YqPIjxMMfx+0MHOgels7gimW7dCDJPSecIWHFB/IWbenp6tHLuiWQm+xQ8fGJ6BWNcjt9UPLz7mHQQVVmNzbn6MtsBAPOkswSD/miob8+npVOEUTp9+7wR8+KniOl3oXuu1PQMg/Cpod7O+6DHIE+bVtmqJNncflsyk32AUfoXAn8WevOvAsKEt6KMQ8l0+xfS6ds9vaCqLCaKwqkaifOl6z4iHUJVRiKdfSuic/MPALUUK3v5hDjqymz/HN7e/AMM9mkxZ8UkMtl3vkijR4jpD6A3/2r66sH4RiKdfaphXU6PhJwmLQAEaGXLbQtSmfbfTmayQ2D+PiaWmUShVVPJi4P4d1+k0SPJdJvO0l0LxaLSRvZ70Nd9LxD449IZqo/fmUjnlkunUJWTWNe2GhPXRt4yoKi8v0xJY6Y1lcpk/4mAbwHQn2c1K0TYYK19KpHJfmlly20LpPO4Qi8EA3Djuo4VqUz7n8dKY//K4C8CSEhnUpG1HET3pzJtj+qF81VQ+bR0hCpJpNa23y4dQs1OYk3HShDdJp1DgAGsdrF4xFjyfzkp2+elI4TCtm0m2dz2u2WYPp445UqpSjEE/HqsNPZsKt3WIR3GBVoAqKBVa1vXJzLZb8Vt6SiDfxOAVqJUKDDoDkP2UDLd/m7pLGE0YkaGEZEZMqYoPjn2i4mVPiadQQoRfgnbtum1iwduXLN1CQPvkc4RNCZzSjqDtERmy+pk4fl9k0ft1knnUd5axkTfT2ayf5jL5bTj+ir0TbQCEuncpmQ6+11jTA8B74S2+asQYmAhiP93IpP9VlPTLTqTeImTPT0jAKKxNJFwR2ptq+4gcZcB8AHpEIKWpwZPaxeLB+Kx8Y8iAjeDlrggnUFSorntNwmxg4jWzhIlxwD4v07+yH4/cfPN+iD2CrQAMAupTK41mcl+j8juA+Et0nmUmgoC3jkWrzm0qjm7WTpLyPRKB6gSA4ppJ4ijGtbl1jOwVDqHJDZ8p3QGVQn0C9IJqqEM84x0BgmpltziZKZ9BzH9OXTJn6oyBnLmYt0/Jda1LZbOEkZaAJiBVencmmQ6+12G7QKgTyKUi5YZxj8lmtt/VTpIeHCXdIJqYcPvks6gZsba8h3SGUIgivsPvLIqnVsD8GrpHIFjHB/uzZ+TjlFtqzLtOS7ZPoDvks6ioouZ11OZulasbY3CSU/TogWAabhxzdYlyUz2bw3ZPn3irzxQS8xfTmba/76+Pud9G+a1cLlml3SGqmGkJ7dvK+fQz0onCIHVqUzHMukQauYM2UgUIZnwpHSGakul2//AgH8AQH9GlTxC4xxjvqW7Y15J/zKmKJXJvjMeGx8A8BHo35vyCn+o5nrbdeOarUukk0gqHt59DMTHpHNUi7GIxAW4Txobty6CztFOoJJ2ATiMJ/YleY8YT0hnqJYVa1sXJjPZHUz8Oeh1sgqX25NHnv9D6RBhoj+g15BO3z4vkcl+iyfOK9U5EuWrDfH42L5V63PRPrKSKTpdAGS0NdMx5dqxHPR9GwDAzLdKZ1Az05hpTRGQks5RDUQciQ6AZHOueY4xPQD0fUWFE+ETE6NHCtALiau6qaVt6ai52EURqVSriGNaacr2iVVrW9dLRxH0fekA1cLMzfXNOZ2Lcwq1SScID2qVTqBmpgyKyjndpwuppU9LhwhasrntLWDbBUBPl1FhFjdU/pJ0iLDQAsAV3NTStrRUon3MHOWbIRU9S4wxe1LptqhcoL3COJndAErSOarExK3NSodQU8eA3vT+RKK+KRfp0xBcRaCt0hmqgZkfxvbtVjpHkJKZtl8G00MA5ktnUeraKJdIt+l9HbQAcFnp9O3zxsdpB4B66SxKCZjPRDuSa7ORuzkc7s2fA8P7JzYvIUDbqB3R1JSbT4Rm6RxhEo+VtSDiIAZy0hmqgRG7XzpDkFKZ7D0AfQVAXDqLUlNFhj4onSEMtABwGSM0eg8RNkjnUErQPBjsSGXaIrdwjIgjtAcgMq24zhur4U3QC+1XIKMjEa5JrWtNIxr7lM7Vlf99t3SIgJhEuu1rDHxCOohS08Y61g1oAeA1Vq3JLifgl6VzKBUCCwD63uQFW2SUib4nnaF6eM3kZnkVcgTWm91XId0D4BzL0Sg6EuiRgYGBMekcFbdtm0k0Z/+eiH5ROopSM7RUj5HVAsBrUAzvgz5lUQoAwMBCtub7N67rWCGdpVqOJt/4JIDT0jmqxJTnjOekQ6hrY9b5/1dj5nRDwxadPXYIcVTm/+0D0hkqLZfLxZOF098gxgeksyg1G4yxyO8B0ALAa/1n6QBKhcySmC19NzIX2tu3W4B3SseoFtY9AKHX0tISB7BJOkcIxct1sc3SIdTU5HK5OIAo7JYZrS3HfBslMz88a/8B4HdLB1FqthhmtXQGaVoAuMSylpZ5pFuWlXoNAtbYObFvYdu2SLxmEMxD0hmqhaJzJJezflyatx7APOkcYWTAW6QzqKn54dnSegALpHMEjx4fGMhfkE5RSclM270gvEc6h1KVYIAbpDNIi8TF/FS97uK8BIBa6RxKhRLhLckjz39ROkY11PGcXQBGpXNUB69eld68RDqFuhqjhekroig8UfZCVIqNxNarAnIi0/4ZgH5dOodSlcKRKERenRYALlGO67F/Sl0V4TdT6TbvWwD7+3eNgOHrBufXIIrnpDOoK2NdAHhFDGycHJFQIcdAFOb/bRnlh6VDVEoyk/0ogT8rnUOpimItAGgB4JVWSgdQKuyY6GsN6S0p6RyBI94hHaFaiFj3AISbzrlf2bzz43Mjv9Ap7JqammpBFIXv471H+/d6sUQ2lW5vBfAl6RxKVRqRLnvXAsArvUE6gFIOmG9NbHt9fa5OOkiQjLHePMW5JqacdAR1eam1uUYAOqJxFUQ6IhF2F2vesBkR2GNBgBfb/xvS2XomfgA6FquUl7QAcCmG1zc0SlUMI11zvb1HOkaQjhx84iQznpbOUSWNDeu2RP5c3DCyZKPw1HRWLEhHJELOcDkSXUYlgvOF45Utty2wwKMAFktnUUoFQwsAlyDyvzqtVAXd3ZDO+r3UiSgyYwCWYznpDOq1iPTm9loIrB0AIceA3+8VAAB65lhvZ1E6xWyZ0vg/gNAonUMpFRwtAFyKjXYAKDUNlvC1dPp2bwtnROT805ypYlAkntC5R29up2Bxcn1Wb1hCauI9gjZK5wgc84PSEWYrmW6/m8Bvk86hlAqWFgAuwcT696HU9Kx8EaOfkw4RlKHefC+AYekc1UDMOekM6pXqm3JLASSkc7iALGmhJKRG+WIWEZglNzHj9Px/w5q2NIi9Hu1TSk3QG16l1OwQ7k6kc5ukYwSFgZ3SGaoksWpNdrl0CPUT8Rp9+j9VVo9KDC2mSBz/d+LIwbyzO2MaGrbMtzG6H9BdWEpFgRYAlFKzZYj4q9i2zdPXE35IOkG1xEwU5nTdQXpTO2XE0GJJSDH87y4idnv5n62LfRHabaRUZHh6wa6Uqi5Op4ZOf0Q6RRDmlM7mAZyXzlENTKx7AMJEb2qnY2UindMOlpCpb84tJMJ66RxBY0POtv9PLvP9qHQOpVT1xKUDKKX8wMyfS9x887eLTz3l1c3ywMDAWLK5fReYf146S/AoJ51ATWho2DLfAs3SOVxiJo5M/LZ0DvUTtSjnGOT7w6ZzteNnOqVDzERDw5b5lvC30jk8ZwGcAnAcoDMEe46BcwSctcCPiHCOYS6wpQuxGEoAgDKPlrk8cuknicfjhoGFAGCtNSBaAABkESeDBQwsBNsbmMwiYl4MxiImLCJgESZ+6XiHepkWAFQ1jID4FJjOgHni5pDoPAEW4FEGjQCwdMlTVgYWYKJDJU4T/wwG5oG5lojiFlhME2fULoZ+H4fFEjM651MAfl86SKUx4yECIlAAQH1DOlt/pL9zWDpI1JXrYptJu/SmhSdGJrQAECLMEZj/Z+wcGBgYk44xEzwndg+AeukcHigBVGDwYQIOMWiYLB83hOPx8n+cDMP3x4q1rQvr4lhhy6aeQPVM9j8RqJ4ZK4iwAsAS4YiqivTGSc2GBfEwMQoMFAF6nhknAToN0Jm4wanzsR+fPtnTM3LtTzVzTU23LCrFzGKmmiWg8mLALLGMpQRuAJCa/LUgyAxqAgO/eeO6ji8/d3D3cekslRS/GN9ZnjNuEYEbsjKhA8DfSeeIOgK1ASwdwzF6EkD4mA7fv4+Z4OSemFVrW9cz4ZelczioBKCXwZ0g6jFkD9eM/WgwDDf5V3P8UPc5AOcA9F/u/29o2DK/PKdmjTGcZrZrCbSGGWkQFlU3qaoGLQCoayLgFIMHmVEkgyMMFEw5Vqix/34sDC94AwP7zgI4C6BwpY+5cc3WJbGasUZTRophGgBeDcJGTHQQqMqpjdvSpwB8TDpIJQ0O/uBssjnbDUZWOkvQDPhWaAFAHIFb/b5tCkR6ZcttC471PO7VGJKrJo6xtKulcwRsLDZadvKkGGPMlxGBonYFWID3gqmTiffMKcX2DgzkL0iHqrQjR564AODJyV8vu6mlbWmpbNbAcjMItwBohXYLOE8LAOrVzgN4momfBPBUTQz7n+3pOiUdaraeO/yD0wBOA3jFnF5DOlvPhI0TraOmA2DfL1aq4UMrW1o/d6yn26suAFjsAPlfAGDdAyCupaUlfr6EjdI5HGRovLQZwGPSQRRQE/N/+z8Tdk/eODklmWn/EMDeHt9bASUAu4no/rIdf/Bo/97T0oGkTN4DnALw+Ev/btX6XCJm7WZruY2INgPQa2fHaAEg2krM6DXAfhg8xQb7hw50FjCxsCQSJmedhzE5N1rflFtaU2M7wPRfAL4DkwtX1LTUxsr0SQC/Ih2kkmJkHy7DfEE6RxUsX9mcTRzr7SxKB4mq8+Nz14MwTzqHiwxsG7QAEAoMu5VA0jECZeDe9v/EzTcvwCjfI50jpPYz8NU5pfEHJ7tL1WUcPZAvAigC+DowMYp7MVa7mYz9WWa8hUArZBOqa9ECQLRYAP0M7DaEH9SMm04f25hmY3ggfwrANwF8s6WlJf5j+7qcZX4XTWyA12LAVDF9ZNWa7OeOHu48IR2lUgb7ugvJTHYQQKN0lqDFQR2YeHNXIoz3nSYB0j0AIUEGHZ6P/9tYzD4sHWLaXpzzmyBt4b7EGBPuM6AvFXr3PC0dxkWTxZJHJn8hkdmymih+F9jeObmbJVT3m5F5ynkVofoPogIxSIzdDP5BbKw2Pzj4A61oTlFPT08JEy1Pj9fX5z4ev96+lYBfAnCbcDQX1FKMfwvA70gHqSimR0DsfQGAYW8F8DfSOaKKibaQ53dOgSFsbGpqqg3Dfpoou3FdxwrY0krpHIFi90YkGxu3LirTuF/vyzM3AtCfsbH3Fg92nZEO45Ni3xPPAHgGwOfrm3ML4+DbiPntAN4KYL5sOoCAyD/81AKAf84xsMswvkux8uNHDj5xUjqQD4aH86OYGBP4dmptrtEa+2sEfATQNt0rIdBH0unbP93fvyvQUyCqiYgeYvDvSucIGrHuAZBEYH2KPXN1ozU3bACwVzpIlMVtuUM6Q9CY4Fz7v50z/vvQU5FKAP4uHuf/8WxPp1MFHBcN9+bPAfgOgO8sa2mZd934/LeC8N7JMVuZ+1DSAoAWAPzwDJh2cszuWH59bG8+ny9JB/JZ4VB+EMDHE+vaPksWvwfQryIEFc0QWjiCix8A8NfSQSqlkHrD3mTh+TPw/PQIBpYm12cbhw50DkpniZrk+mwjyn5/fwXNTLScagFAEAFbfe9hiXH5QekM03Hjmq1LGOO/Lp1DFGOnQfm3jvQ/ccVTo1RwJo8Fvw/AfY2NWxeVakvvJLLvrf4Rrvyv1f164aMFADeNEjgPoh1ksXNykR0AHdqtpsmWsd9PrGv7AjH+EEwfhR6p8wpE/HF4VADA9u0W6exOED4gHSVobKkDgBYAqowstbK2/88OcxuAz0vHiDIG+94BMOjaTWRNfPzXmCPbtXiBiH6r0Lfnf0kHURMmR5L/GsBf37iuY0W8XPoYCL+IKhwxSGVzOOivEXZ6s+KOUQD/SMC7akvmDYW+rjsLvZ1/denNv5JRPNh1Zqi361dMmdeBX3nMoMLq1LqcZzsT+CHpBNVgmG+VzhBFFtwmncEDm6UDRFlqba4RwDLpHEEiwKmn/4nEnbVgfFQ6hwQC9nI5nin06s1/WD13cPfxof7OT/EL1/00g98PYH+AX87auI38skctAFyCmMK2GHIEkzf9c7nuhqG+zp8r9HV+Wzf3h9ORw139Q/2d7UT4NeiCkZdZa39JOkMl1ZZjuwB4v2CMgZx0higi1i32FbAokdmi51ILscQ56QxBs2zcKgRfN/JOBpZKx6g+/stC6o1txcO7j0knUddWLD46Vuzr+v+G+jpvNsa8GYyvY+IBaCXldemjFgBegcFhWFY2AqLv8MRN/xteuun3aZGa7wq9nX9F1mYARL7CCAAEvLW+OefNEYoDA/kLBN4tnaMKFjeuza6RDhElDeu2LAPg9+b0KiHEtJAihAy2SmcI2Klifz7IJ5SVx/wb0hGqjZg/OdTX9XFs3x62h3tqCo4czD891N/5QYqbnybmTwKoyFJzJr63Ep/HdVoAuASBJZ/adgP0YTNafuNQ755tRb3pd1rhUPcxfuG6LfBp/n3m6mrBPy8dopKce/ozQ2Xj/5O8MClbvWmtFALpKIUMA/b+deNhOHSUeGpda5oIG6RzVFEJxB8u9Hf9iXQQNXuFnvyZQn/XnyyIv/CfJk4PmPnDNQI/VuzteriC8ZylSwAvwWT+hbiKy5cYx0H0dRujfzh6IK/7+zxTLD46BuBXEun2PiL+MiJccLPMHwbg0fwdPQLwV6RTBI+2AvhL6RRRQeA2gKRjeIH1KEURyeZcGmy9PsXCsnHq+D+29F7pDNVEhP9W6O36unQOVVk9PT0lAN8E8M1Va1vXGzLvJ8K7pzHa8rStG3tXgBGdEtkbksuJWa7GxutRAN8kY/7zUH/njUN9ez6tN/9+K/bv+WsA21D5OSZnELA5sabDm9bmYn/+BIAD0jmqIAt9n6iiah+F5LX6VWuyy6VDRA2x99v/z9PIXJdGwAxA75EOUS1M/MeF3k69+ffc0UPdB4b6O3+rkHrjmxj4GQL9T4D6r/DhpwD+dG3pP7YUn3rqfFWDhph2AFwiXjb7x+J2FEBdpT83ER0A8NVSrOa+Yz2P6zdgxAz1df5jam3729nwDkT0586Y8XcC8KYljwiPMGO9dI6ALUo259JDvfle6SC+S9x88wKMIi2dwyfGUCsmzpxWVcJgr+f/GXhssrvPCcm12VYA0SiEEX2n2Nv5KekYqoq2b7dFYBcmfmHF2taFtUQrAbOMjLVEfKJwsPswHBrZqZZI3ohcycBA/kIyk30cwF0V+pQXmPk+Zv7K0UPdUXhaqK6icGjPY6l02/uZ6BuI4FNVJno7PCoAWMsPEdFnpHMEjbmcA6AFgIDxi3M3E9nIvS4EaWKkQgsA1ZLL5eI//JH1uouFmNxq/zd4VxSGihgojM4de790DiXr+KHuc5joztR7rmvQi41XYUOfq8CnOQDgY2a0/FPF/q5f0pt/9ZJCf9d9DHxSOoeQjZNbzr1Q7O86AOCEdI6g0cQeABUwQ3aLdAbfsNEjFavpxFlsALBAOkeAxso1NTulQ0wHEd8hnaEaYoxfObFvX2THLJWaLi0AvErx4J4nAZ7J0qsiAX/CwLqhvs6Wob7Ovzly5Ak9C169RrGv8/MEfFs6hwRrzVulM1QU8SPSEaogi23b9L0iaIysdATvMNb4dARp2Bl4P/+fd2mEc9X6XAJM3uzeuRImfP1If6dLexmUEqcXdZcxlFr6G2D6U1x9ZsQC6AXoj8jYzFBfZ7LQ1/nJYl+ntsqqa6rjug8DVJDOUW0E/FfpDJVE5UgcB7igofjvvu86ENXU1FQLwkbpHB4ytbCbpUNEBZPn8/+Otf/HrL1dOkPgGGdNzPyOdAylXKM7AC5n+3Y7BPxeY6b1a2WYd4JxEwiLwTgFouPMeGqMy92TsyZKTVt//66RVKbt/Qx6AhH6OWRQRzp9+7z+/l0j0lkqwb44bzdd98IFAPOlswTJTuwBmPHZu+rqLtYuXk+WK758VgEW1AbAqbZtF9XX5+rgebHFUMyp850GRDcAACAASURBVMOZcad0hqCRwV8WevJnpHMo5ZrI3HjMxGBfdwHAH0nnUH4q9HXtT2Xa/pjh/yK5S9SO0GgrJje2uq5YfHQsmcnuAvAO6SxB4ok9AH8qncNXxLYViMKqruojZt0DUAWx63kTAjhBKUT2F/p2n5QOMR0EtLJ0iGCNlm3py9IhlHKRjgAoJaimdPZzURsFMIBXbaJE8H4MgBitLS0tWjAODLVJJ/DYxomn0ypIxvPj/4jZqfb/hvSWFAO+77/4+tH+vaelQyjlIi0AKCVoYGBgzDL9hnSOamLAr0VRMbMT/p8xO///jL9ug3QIb1ndVh+g2trrod+7AfPudf1VbAxOtf+XyXi/U4QN3yudQSlXaQFAKWFH+/OPIVozqut92sw9MX/Ie6VzBM2gnJPO4KPEurbVICySzuEzC7/PppfW1JSbT/B6iWWxeLDrGekQ00GgN0tnCBY949p/E6XCRAsASoUAA5+SzlBFJo6yX0eeRWAMgIm8bvGVQpb05jRgBOiIRYDGDbfC551STA9KR5g29rogA8BG4QhepQKjBQClQqDY19kLou9I56gWYmyRzlBJVI5F4WJkc1NTU610CN8Q2KmbUwKcO/2GgM3Q653AcMzv+X9jrFPz/wAAQqN0hEBZ+q50BKVcpm+ISoWEKdk/lM5QLQTy6ulE4VB+kAHflznOK9Us0lnqCmO41gHAfyGdYLoYWNi4NrtaOoe32Ov5/9NHeruelA4xHYl1bYvh8QJAAs696Qbj/didUkHSAoBSIXHkcFc/AXnpHNXAwAZs2+bV6w+RW0uiZsIy+XyhX3WpTMcyAPXSOaZh1FysvRdASTrIdJXItUKLG5qablkEoFk6R4AehGNLXpkpJZ0hSAzsz+fzzr0GKRUmXl2AK+U6y/RF6QxVMj9ROOlXi2IZO6QjBI08O8JRHI87tguDnxwc/MFZIuqXTjJdro1auGI8XpuFz9eSxM7td4kBCekMgWLo8j+lZsnfF22lHFTs37MTwAnpHNVAiHs1BvCmG8xeMM5K5wgSA5v0TPXKsUSO3ZSabgAAo1M4yPQRHCu2uMHC6/n/C+PnYrulQ0wXM5LSGYJEhp6VzqCU67QAoFS4WDC+Lh2iGojZq2OK8vl8iYh9P86xLr4Qm6RD+IJcm/8n7Jn8pz1X/bhwWn7juo4V0iF8Q/B4/p/oseHh/Kh0jOkiYJl0hkAxaQeAUrOkBQClQsbGzd9LZ6gGJqSlM1SaJeNcu+h0GS7fKp3BBytbblsA8BrpHNNQqh2nJwHAGtstHWYmYlxyq+AScje1tC0F4O1yRWbr5Os5ExZLZwiSNeVB6QxKuU4LAEqFzNED+SKA/dI5Asf+XTjOGafHAIxJ5wgSE+WkM/ggXh5rhVvvwQcGBvIXAKB4sOsMGM5dhBPDsZGLcBsve70UtDRm2c3jXRlLpSMEafn1MeeOIlUqbFy6+FAqOojul44QOMKiG9dsXSIdo5Imb5Dy0jkCxdi0rKVlnnQM11nwFukM08HAK5/6k4N7AADtAKggw14vBc0fP9Tt6o2mzx0AI3oCgFKzpwUApUKIS7HvSGeohloz7lIL9JQQwcm20WmonW9ft1k6hOtcm/83xF2X/m8mJ/cArJ48tk5VAHs8/09wb/v/JXwuAFyQDqCUD7QAoFQIFQ/vPgbgsHSOoFli78YASjHrZtvoNHDZ6h6AWUgk7qwFw61TMGKxV3QA2JiTewDMxVitFq8qoLE5Vw+gXjhGYMplelA6wyz426FFrAUApSpACwBKhRSBHpfOEDhCk3SESjvW030cQK90jiARISedwWWx+Rc2AHDpOMVnCj35M5f+i8nv82GZODNniHUPQAWU2Pr79J/owNHDnW4ex7ttmwEQl44RHNICgFIVoAUApcLK4nvSEYJG7OcTJAI/LJ0hSAxsbGjYMl86h6vK7Fb7P3D5eX8COdcFYHUPQEUQ/J3/Z+YHpDPM1LJjx1wqLE4fk99/PqWqRAsASoVUHc3phO8b5UH1whECQSa2QzpDwOKlOTV6IzVDBHLqKTQTui77fzi4B4CADctvuUVvImbP2w6AmIWz7f/xsbm10hmCxVp4VqoCtACgVEj19+8ageet5PB0hvTIwfzTAE5K5whSjHQPwAwZgJ2aQ7/ivH/ZvQ4AALVzL9S4tX8hZJLrs42Ap0fNER8bPNTp7P4dY+O+F7f83W+gVBVpAUCpMGPslY4QsDrfjgK8hNfLABm6B2AmVqVzqwE4s4mewccn5/1fo3AoPwjgdJUjzV5MxwBmg6y/T/+Z3X36DwDx2rLvR+QtqK/P+V7kUCpwWgBQKsTY0BPSGYJWExurl84QCHL6GKmp2FDfnFsoHcI1BHbq5tNcYf7/Es51ATDg1AhG2DD7O/9v2Dg7/w8A88pzR6QzBMzEX19eKR1CKddpAUCpECtTbL90hqBZUL1whECMn4vtBuDzxZip4ZJTN7NhQK5toSdz+fn/l7CDewAYmye3pavpM2Bvu3/OFBqWON1119+/a1Q6Q+DKlJCOoJTr9A1QqRB77uDu4wDOSecIEjF5OUs6PJwfBbBLOkeQGEb3AEwTO9YBwIav2gHAdM0OgTBakBz697R0CBclMtk0yJ0RlunhR7B9u5VOMUsWgN9FAEKjdASlXKcFAKXCjtAvHSFY/EbpBMEhr8cASPcATEsinVtOoBXSOabhzNCBzsGrfUAx9cZ+AOerlKdiiMtOFWLCghi3SWcICrO5XzpDRbDXnWcgoF06g1Ku0wKAUiHH7HcBgMG+LgEEG/sIJp7I+Kp5xdpW3QMwRWRsVjrDNF17vn/7dsvk3rJShtkincFRvnb9jIzUXNgtHaIiyO8CAIBWHeFRanb0B0ipsGMakI4QJDLkbQGgeLDrDAFPSucIkKmLUU46hCvIwqmbTgZPab7f2Kl9XLiwa8UYcS0tLXEQfP1723Wyp8eTG2dyriNnmhakhk6vlw6hlMu0AKBUyJFBUTpDoCy8LQAAgAV2SGcIEoN8fSJYcdaxmye2V5//fxnFnDsJAMCyhnS2XjqES86Vr9sIYL50jiAQw+nt/5di4sse2+kTBr9LOoNSLtMCgFIhFwP5XQAgvwsAMPywdISA5aQDuKC+ObeQgNXSOabhwk/fEJ/S+JF9Ye5+OLh4rEykewCmwTA6pDMExKLG7JQOUSkEHpbOEDjGe3QMQKmZ0x8epUJuMPmG4wDGpHMEyNON0hOKB7ueATzu4mCkUy25xdIxwq4G5c1w6z13bz6fL03lA4vFR8fAcO7IUoJjRzIKY2/n/7mz0JM/I52icsxz0gmqYFmi8Ly3CymVCppLFyNKRdP27RbEJ6RjBMjLltJLEegR6QxB4vGyU63tEojJtZvNrml9NJF7xwGyWyMZkurrc3UEbJbOEQgmb9r/AYA5Ah0AAIj596QzKOUqLQAo5QBiOiWdIUDx+vpcnXSIIFny+zhAJtoqnSHsGOxWu7nFtG7oGTy9gkEYEBoT69q0e2UKaheUNwPw8nXaAF6NaRHbYekMVUF026rmrJ9FKaUCpgUApRzAwGnpDEGKLRhbIJ0hSMsXohvAWekcQSHdA3BVicSdtQBtlM4xDWMvzh+fVkv/nJLZC2BKIwOhwp4+1a4whrdFvt4j/Z3D0iEqySIiBQAABHxaOoNSLtICgFJu8LsAwMbrMYDJWerHpHMEaHV9U26pdIiwMvNGNgKolc4xVQw8fWLfvmkt9RsYyF8A0BtQpMCQNa6NZkjxcgEge7T9/yVH+/eeBuBz1+DLiHFHqrntbdI5lHKNFgCUcgCB/X4zj0dhDwC8HgOojVudp74i61T7v8H02v9fwpjisYFhQo6NZghoaNgyH4QN0jmCYGL2QekMAXlaOkC1MNOXGhq2eH8NoVQlaQFAKRcQPS8dIVA27vUIAACU4rWPwePTHBjwtUV41pgcWwBI01wA+JPft6fCSaph/bKWlnnSIcLMzjVZAHHpHAEYLhzsntJRlw56SjpAFS23dbEvSIdQyiVaAFDKAday1yMAxNaZ9uiZOtbz+HnM8MmqC1j3AFyJAbBJOsQ02DGYvTP5jXPGS90AbIXzBK12Xvl1Lu1nqDpmT+f/Gb4+/QeDnTuWc5Z+Odnc9iHpEEq5QgsASjmAmLwuAJTJy6dLl8HejgEQkEplOpZJ5wibhjVtawAsks4xDf3DvflzM/mNAwP7zgI0WOlAQSN2a0Sj2sjX+X9jvH09nlMqRWYE4GVMX0mk29ZLx1DKBVoAUMoBBON1AYCII1EAiFHsEekMQbJUyklnCJty3Dh2c8nds/rtZF3scnFrRKOKGhu3LgKQls5RcYyzk6ezeGmiGIeidI4qqyOih25c17FCOohSYacFAKUcUKotjUhnCBL7OV/6GoO9+WEQfJ05hWHdA/BqZHmLdIbpYDKzm+O3s/z9MjZj2za9HrqMcu1YDn5eKz4yeTqLz1wsxs3W8jiP/1PDui3ajabUVfj4oq6Ud/jinGkdyeUastEoAAAAGA9LRwgKE+ekM4QOwanTEWpidlZPRRnk4lPV+Ykjp5qlQ4QRwc/5fyLy7vi/VyPQDukMIphWWhv7vo6kKXVlWgBQygEcL3u7PR4AiCgyBQAC+3tRxrRS2y9/YvLvYrl0jmkoPtvTNasjR4v9+RMAhisTp3oIro1qVAeTl/P/o3U8Z5d0iKBN/hm9fnhwFasZpZ5Va1t1J4BSl6EFAKUcUJp70es3cRuZJYBAoa9rP4BZ3WSFWQ3rHoCXxLjk2k1lZVqG2b3WYyLWPQCvMtlG3Sido+IIu/r7d3k9VgcA/f27Rgicl84haKkxZk8i3X6XdBClwkYLAEo54MS+fV53AIA5aq9F/o4BMN0qnSEsiB1bLkfcVYlPw4CLewBcK9YErmyNj0//Afa//f9lFNExgJ+YT8Q7kpnsvU1NTd4fN6zUVEXtolspV1kAvi8sihDr70UZs583DTNCTs3/c6mmIk/u4zS7PQISGFiaWNOxUjpHmBC8LOZZNtbr01guVYpF5896DXeP1yze15hpTUkHUSoMtACglDu8HgOIkhfnlR8H4GcLKmFFam1r5G+kmppuWQSwS+3TJ4uHdx+rxCca7OsukINjLhQfd6pgUwX+FfMI3cWDXWekY1TLsZ7u40R0QDpHGDDz+jJMTzLdfree+qGiTn8AlHIFw+8xgAg5sW/fKDEel84RFGtMTjqDtIux2s1w6D2WUfEz0R3sAjBOHdkYpMkiXr10jkpj5ui0/7+M/1Y6QYjMB/G9ycLzPYl0bpN0GKWkOHNxolTkkXYA+MQCD0lnCAoBXh4dNh3GsaVyhio7t89g5/YAELt1ZGOgiPx7+g/AWPZ2/8qVjMF8E752nM1cM5F9IpXOfrmxcesi6TBKVZsWAJRyBesOAJ8wSo9gYreDj3LSAULAqaVyVOLKPrGnmHMdAACnVqU3L5FOEQZsPCziEfoLh7orMubikuHe/DkmfEc6RwgZJvxqec74v6Qy2XsaGrbMlw6kVLVoAUAppQQc7d97Goz90jkCsmxlczYhHUJKInFnLQMbpHNMFQHnjhzuOlzJzznUm+8HcK6Sn7MaYlSzWTpDGBBTTjpDpRHzg9IZpBhLX5POEGLzGfiErYs9l8hkP6GnBago0AKAUkoJIbC3YwBx+NlCPBU094VNAJy5iGRQNyrfjWIB7K3w5wychXVqdCMIicyW1Qwslc5RaZb9Hbu6lkL/nm4wBqVzhNxiAu4Zi99wJJnO3r38llvqpAMpFRQtACillJAyYt4e0cQMH48QmxIicqr9H4SuYD4vubcHAI79twuAgfGxeHei2N8V6W34bPir0hkcUQ/CvfNGap5LNrd/InHzzQukAylVaVoAUEopIUf784cBeDmTSuCcdAYp1ri1ANCiwvP/k5jQGcTnDdj6dPr2edIhJDHIu/l/BiLb/v+SeXbu3wCIzBGIs8XAUjDfQ6Nz/iWZabunsTlXL51JqUrRAoBSSklieLmVmoGlyfXZRukcAgwxXDpearRu/D+eDuITX28uPA33to/HL2LUpf9+lWYA/05DiDEiePzfK/X37xoh5i9K53DQQoA+UWZ7NJlu+34i3X6XdCClZksLAEopJcgAO6QzBIUsfGwlvqrUutY1ABZK55g6fnJgYGAsiM/c09NTIri36LLs2AkOlbRqbWszAK+ORSPg3PyaF1zsRqk4umj/EsBZ6RyOMiC6jYh3JDPtR5Lp7N16hKBylRYAlFJK0E8tMp3k4Lb0qWBQ9PYAWHLq6Skh6DZ9du7Gi+DWCEclmZiPyzv5kZ6eHj1GF8CRI09cYMa90jncxykQ7i3PGf+3ZKZ9R6K5/edbWlri0qmUmiotACillKB8Pl9i4sekcwSCo7cHgGG2SGeYDiYTzALAl78AnFsECKJNuVwukhfzPs7/R3n7/+WMsf0LAOelc3iiFuC7iHn7j0vX/Wsik/3iqnRujXQopa5FCwBKKSWMrLcXqIsb1rSlpUNUF7vUPl6qHacng/wCdZj7JADXnr7OP3mOm6VDVFtLS0uc2Lvxh9E55ZifBdYZOn6o+xwzdBdAhTGwlIDfNmQPJTPtA4lM+2dSa3NR3IOjHKAFAKWUElaqmbMTQCBz2NKsMTnpDNXSkM7WA1gunWMaDgwM5C8E+QX6+3eNAHDu+DUL69uN8DX9uPS6TQDmS+eosMeD/h530eh1458HMCydw1+8msCfZWOfTWayA6nm7Gcb0ltS0qmUeokWAJRSStixnsfPAwjkKDZpTIjMHoAyuXWGPFfre47JvT0ATJHbA2DB3s3/s27/v6wT+/aNMtHvSeeIiNXM+Iyl2JFkJjuQymTvSWVyTr1XKP9oAUAppcLA0zlVAuewbVsk3mucWx5HXJX5fIaDewAieBIAwfpWrLOlstkpHSKsir17vgNgl3SOiFnNwCcYtiuZyT6XzGTvTa3L3RbVnSNKTiQuypRSKuxKsfiD0hkCsjBReD4qewDcumkk7K3GlxnjcjcAW42vVUFLVjZnE9IhqqW+PlcH0CbpHJXFe4cH8qekU4QZG/4tuLejwxf1AO5ma7//wx/Zf0tl2v7fRLr9rqamplrpYMp/WnFSFZFY17aYiBZbi0UGNI+BhcSYD9j5DJpvgNe/9LHMqAVh3qs/xyuOQmP+kSWyAGDAIxY4BzbniPk8xe05w/Hzo8C54d68l8enqeh57uDu48lM9jAA7zYIG1AHgF7pHEFqbNy6qIzx1dI5puGZ4sGuM9X4QscPdZ9LNmcPg+FUIcgwsgCK0jmqoXZBeTOD6qRzVBT52VVVScWDXc8km7N/Bcbd0lkibjGD3kfE7xuL33AumcnuZOYH5mHuzsk9KkpVlBYA1FXV1+fq5iwYX1GmWL0hWsGWbySiFQy7HKDFAJYAWAw70U0y0VLCoJc/A4EA8KWflHBZr/wYevnDePJzgBgggK1BGRY1AJKZLDBRODhHwEkLOg3wSYCeN4ST1uIUoXyaET95fc2PT+lZwCrMmPhhYvKuAMDArQD+TDpHkEq1461XeGkLq6runGBGN8GtAsDkSMffSeeoBmuwlfjaH+eSMsjXrqqKKsdqP21KF99GoBXSWRQAYCGA9xDRe17E6GiyObsL4Adio7UPDw7+4Kx0OOUHLQAoABNP8MGxNcTlRoBuArAaQCNgl1vEJm7iefIGHIwr3sXLWAhgIQP19HIZgcEMEAGAAcHifOk6m8xkTwI8TDDDzHycDD1nmY/HYYdH/0/8+PBwflTuj6Eiz8Z2gOwfSMeoPM5i2zaD7dtdawOfMgK1vaqMGWpM1Z3LN8AeBn61ml9z9txa6jgbxOTbAsBnjvV2RqJ7Y7aO9Tx+PtGc+yDY/gA6Ghw2dWC8FaC3lueMlxKZbKcBP1Au04NHD3eekA6n3KUFgAhKteQWl8exwZDdQIw3M2EDLJZNjGiG6sa+0gyA5QAtZ3AraKKoQQDKMKi53iKZyZ4koMBAgcHPGmsGLccKxZtuGPb55kWFQ7E/vz+VyZ5iYKl0lgpbkBo6vb4APC0dJDjs1M2ijdmqdgCQKXezjVXzS1ZCor4pt9T3OfLEzTcvwCg2SOeoJCbWp//TUOzN5xOZ7P8k4Lels6grihPQwaAOE8OXkpns08R8Pzj2YOFQflA6nHKLFgAioCGdrWeDLDPdCrJZLtmVZvI+n72+35+RZQwsA5AjENgwCCUkC8+PIZMtACgwUYEs+phK/ctfX1PI5/M6VqAqxQLYCeAj0kEqjYEOeFoAWH7LLXUYwXrpHFPF4OPHerqPV/NrHjn4xMlkJlsE4NRivXis3ArgO9I5gkSjNVl4dj1oPD1VJVAvXPdJvu6F28nDPTSe2sBEG0D2/0lmsoNM9KAB7i/07vHyfVZVllcv+GrCirWtC+dQ7A4i+7PMlLWEFROdqax3/DNXi4k3xTU0OQpBiOGHP7Kjqeb2Z5i5F0x9bKh/rFzqPX6oW5cTqhmxjIeI/CsAENtbAXxeOkcQ6l6cswmwzmxuNjCdMl+ZuwFyqgBAhtrgewEAsa3s0PjKFJws9HXtlw7hmmLx0bHUutb3sjX/jIlrHuWORmL+7wz892QmewLgBw3TAz+1yHTqQyp1OVoA8ERiXdtqYnMXwD8LxmaA4zxxl6qCVcfM6wGsBzGIGXOMQTKdPQ6DXjD/s+XY07EaPF3oyVdl47Zy20jNC49fV7puFIBXG7kZ1NrS0hL3cREnsXWq/R+ELpkvbPYA/CGZrz0zFIE9AAzOSWeoKOKHpSO4qnCwuz/Z3P5pMN8jnUXN2HKAft0Sfv2HZ+3ZZKb9YWZ+YPS68V0n9u3TPVcKgBYAnNaQztaXCe8kxodh0ejSAirvTXRdrADorYYsuAQkM9lTAD1NxAespX+eUx7bOzCwTze6qlc42dMzksxkHwdwl3SWCpv/f+z8DQCelA4SgDbpANNSJpEOABujblN2632KmdMNDVvmHznyxAXpLEGYPL7SqdMZrs3cL53AZUO9ez6fyLTfQuC3SWdRs0RYBPCHiPChuSM1o8lM++PEvH3MmIf1GO1o0wKAYxLp3HKQfR8B77JA88TxeNKp1BQtBfguZtxFxBiL19hkOltgg/2wtM/EynsLiZ86rMsGFRE9xMy+FQBgyuiAbwWAbdsMCs9vko4xDWekFkYdPZAvTpzEgmUSX3+G4nZufBOAx6WDBKFUO9ZBIJ82v5+vHT8jNOLijzmlsf82Fq9pBlAvnUVVTB3AdzHhrhq2Y8lMNg/g/vGSedj3RafqtbQA4IJt20yy8G9vAczHAPsW6DEtvjAgNBKjEcQfYGuQLDx/AZm2p5nMk7C8j1F68mj/3tPSQVV1xWL2kVKJLDz7WWfYWwH8sXSOSkoUnk8DWCCdYxqquv3/1RjoJuCdkhmmi9i2wdMCABls9ap5kHjnwMDAmHQM1w0M7DubSLf9HBE9Ac/G0RSAiR0PtwO4vSZuv5LKZJ9kxgNs4/9YPLz7mHQ4FTwtAIRYfVNuaW2N/RUuPP8RwCyXzqOqYj5AOWLOTaxwiCPZ3HYMTE8CWCgdTlXHsz1dp5KZ7NMANkpnqSiizYnEnbXF4qPeXKATuNWlNiwG7xENQLQHzE4VAKzPewDYdPg0PkhMD0hn8EWxv+tAMpN9L4Dt8KwYrV7BMLAZhM0UK30h2ZztJ+BBhnlgqDffKx1OBUN/oENo1fpcIpnJ3lsTt88x4zMA9OY/yphWAngP3HrKqGaLvDzGap6ZN+JVUYNATs3/s2XR9uhYyYp2IMwEAZuampq824resG7LMoBT0jkqaMzWXXxMOoRPhvo6/xHEvy+dQ1URI82Mz4DtwUSm7V+Smey9qXW523K5nD409ogWAEIkuTabTWay3zVlOwTgbmjblVKRFSvDy03WltAhnaGSGHDp6fCFn74h3i8Z4MjhrsMAXFt+Om8s9vpm6RCVVrZxr34WCby7+NRT56Vz+Gaot+tPAf5L6Ryq+gi0AsDdbO33f/gj+8NEJvvlVCbn0nueugItAIRAMt26MZlp3wGDPQDeIp1HKSVv8FDnYQDD0jkqzYBvlc5QKYk1HSvh1kK7vSE4E9oC2CucYdqIjHcXvQRslc5QUWS0/T8gQ31dH2fm/yWdQ4laQsCvMmxXMpP912Qme68WA9ylBQBByeZcczLTvgNkngL82/itlJo177oAGNhUX5/zorvJmJJrFz9d0gEAAAzZPQQzYB0b9ZgKhvWpA8DGYta718swKTYs/RgB35bOoUJhOYC7J4oB7UdSzdnPNqS3+DRO5D0tAAhIpHPLk+nsN8D2oN74K6WuhIzZIZ0hAHWx69mlY/OuyIKduilkIzv//xM2JDmmbmLZoz8SazpWTrb3+mL/sz1depRZkLZvt8teb94L4vuko6gw4RQzPmMpdiTV3N6TzGQ/2tSUmy+dSl2dFgCqqKmpqTaZzt5NZJ8F4T3SeZRS4fY68+M8gHPSOSotNnEcoPOInNoOPzZaV9ovHQIA3rQofgDABekc07Q4tTbXKB2iUky8fJt0hkpiQNv/qyCfz5eGervey0Q6DqBeg5nXA/jqWNz+WzKT/WpqXWtaOpO6PC0AVEkyk33HWPyGIyDcC0ArY0qpa+rp6SkxsEs6R6Ux3F8EmFjXthiAMzeEDDx9Yt++UekcwMRNBJiflM4xbTF/ugCY4UUR7iXGGm3/rx5b7N3zSwz+M+kgKrTmA/goW9OXzLR1JZqz70kk7vTuJBWXaQEgYDe1tC1NZrIPALgfQL1wHKWUY8jL4wBp47KWlnnSKWbDsFPb/2GAULXdM5lw7COYBrZujXxcHTtfhLvEYOFQflA6RNQU+7p+B0y/gYnFnkpdAbUS4xt03Qs/TGba7pk4flRJ0wJAgJLNbR8ql+hZAG+TzqKUctPFst0JQHpze6XVXleev1k6xGwwaIt0hmmhkCwAnMQhK0hMNB97zwAAIABJREFUCblV9LmSRGbLagBLpHNUCnm4LNUVQ/17/oKJ3w5gRDqLCr3FAH3C2thzyUz2K43NuXrpQFGmBYAANKzbsiyZyX4PTH/PwELpPEopdx0/1H2OgG7pHJXGrh9BxshKR5gGOwYTqqP3Xoxf2A9gTDrHNK304ekVwfj09B+W9fg/ScXerodBZguAY9JZlBNqAfxyme1QMp39B592q7hECwAVlmxuv41trAfA7dJZlFJ+sGDvxgDIck46w0xNji80S+eYhv7h3nyolkme7OkZAeOAdI7pKtuY810ADON28e2VThf786FYbhllQ7353trS+Jvh4c4aFZg4CB9gYweSmfYdDetyG6QDRYkWACokkbizNtmcvRfM32dgqXQepZRHyjX+tbgSNjQ0bHFyIerc0vyNmHiK4QgOZQcJkXtjAOTY0Y+vsW2bMXC3+HYZD0Jn0ENhYGDf2aHUG+8kwv8N/W+ips4AfJe19p+Tmez9qbWtK6UDRYEWACogtbZ1JV33wlNg3C2dRSnln+Lh3ccAPCOdo8LiXBt38mmqgXUqN5PZI53hcpg4lLmuzqmjH1+jofjv630aTSRL2v4fJtu320Jv5/8gpnYwjkvHUc55BxvzbDLTds/KltsWSIfxmRYAZimVbutgMv8Mt9pBlVKO8XHRFZOrewDIqafANTEbyg6AccT2wr0nhenEzTc7e2Fq2avt/+fti/N2S4dQr1Xo39N9kW2GgG9LZ1HOqQXoE7HS2FAyk/0otm3Te9UA6F/qLKSa2z/KRN8DYZF0FqWU38qEHdIZKo4cbEWeuBhx6QSD4rM9XaekQ1zOxF4COiydY5oMRms3SYeYMWZHi26vxcBjxeKjri2SjIzjh7rPFfo63wXY/wLgpHQe5ZwlAL6aPPL8QKo5+xbpML7RAsAMNDU11SYz7X/PzF8FEJfOo5Ty39HezicBnJbOUWHrXWvzSxw51QzApd0FIZ+ztyHP91rkWAfIS5qammoBP44yBABibf93wVBf9yMUNxkQ3yedRTmI0MiM7yab2/53Y+NWfeBaIVoAmKamptz88fiihwD+kHQWpVSkWACPSIeoMBMrjbp0nB7ItRlw4i7pCFcT1v0EV8dufQ9MGo8t3ghgnnSOCimNG3pMOoSamkJP/sxQb9cvWNCtYAxK51EOYnp3ec74s6lM+9uko/hACwDTcFNL29KxuO1i0B3SWZRS0UPE3o0BMOhW6QzTQQSnnv5yqSbUT9hL4xTK/QRXR5smn6Y7xRJ8mv/fHbajLdW1He3bk+eR6zIAfxrAqHQe5ZwlDH4g0Zz9h/rmnDfLTCVoAWCKEms6VpZK1AVd9qeUEnIhNrILwIh0jkoikFM3JexWC/WpyRMkQmt4IH8KQFE6xzTVXaxdvF46xHSRT/P/2v7vrGLx0bGhvq4/IsRXAfgbuLcIVAkjxgdq2T6bSGffKp3FVVoAmIJEZstqipX2AUhIZ1FKRdfJnp4RAHnpHBWWbmq6xYm5vlXrcwkAS6VzTBWHfv5/AjmS81LEbh0FuaylZR4I7i4vfBVDMe9ORYmaQt/uk0N9nR+z1r4Z+P/Zu/f4KO8yb/yf6zuTkAakSJEiy2IKkwmSMAmk9gBhGKFSq7ZaFdfVrcc9qatuHx/Xx92Xjy+frrq7rq6u6/5218O6Hqq7uLUHbCsLOJmEQyuBzJAgmRloRESKFJGGNCQz3+v3R9JzgUwyM9f9ve/r/XrhapdmPuEwc9/X/b2ui5PSeZRbGFhAhHuisfhXIpGbnDuRJU0LAJcQXZFYRghtx/g0SqWUknaPdIAyM2M1YSfmAJiiW73fhuBGf70rOZ/FrUGAM4uzVgPwy0Xyw9n0Dp0q7xOHD3Tvy6W7XkkwawHy25wbVWFMeD/NPLc7uqJjiXQWl2gB4CIirWuWs7GdcOiJj1LK34wp+u4CidmNOQAEduqmjwrsRH89WfdOAMA61QoCBnxz/J+Y/FYEVQCy6WR3Lt1583ghAFul8yinrGJjfhppjW+UDuIKLQBcQFNsTZQQ+gn0yb9SykMG9u88DmCvdI5yYrgxnIwd2gBAwJmBvq4+6RyTMZBJDQI4Jp2jJIS5kdY1y6VjTBYxO/F3bDIsFe6WzqAqZ7wQkLoRbK8FcL90HuWMuQT8KNK27v3SQVygBYAX0LRyzUJLoR9Db/6VUp7EvnoCRkBLZOXaedI5LmZpbPV8gKPSOSaLQd1wabgWuXFa4ZkIIScKQkvab5gNwLmhhReQz6d3HpQOoSovl+l+OJdOvZaZ20H0AwAF6UzK88LE/JVIa/zL2LRJ73EvQn9xniNy7bWzrQ39CECDdBallHohZNh/A7CKSEhHuBhDYSdu9p5C6JKOUAq2xrk5AK60hJix0QSAsHSO8uC7pBOo6spnuvblejs3jRXM7zLwMTCOSmdS3kbAn0UHHv1hQ0OiTjqLV2kB4Bmam5traWTGf0NX/SmlPCy7vzsDYFA6RzkZeHsOADk29I3Jsb56KriVF+60hBDg6b9bpbCk/f9BNdifPJFPp/4ul0ldRca8SgcGqothwi21l9sHmprWzJLO4kVaAHiG8zVXfBXADdI5lFLqUhjw1cWP1+cAMHi1dIYSDM8YPbVPOkQpJo51n5LOUaKGSCyxSDrEJRlv/90qwcnDvak90iGUOJvdn9yWS3febLjYBMI/AjgjHUp5DwOJYl3ox83NCS0CPIcWACY0xtZ9iBjvkM6hlFKTdJ90gLIiLGtoTnhy40ostrEeTvVQ88P9/f2j0ilKRYxd0hlKRfD2asjIyrXzwIhJ5ygHJroXLs21UBU3kNmZzfWmPvxE/dhLGfg9AHcDGJHOpbyDgNWjNfZHE5/jaoIWAABEVq6Ng/jz0jmUUmqyZhQeSwI4K52jnGpDxYR0hhcygieug0M91ATHjv8/ici5OQBMHp8DwCYhHaFciIt6/F+9oGO7d4/k06n/yqVTtxbDtVcS4Z0EfhA6OFABACM+TCP3RSI31UpH8QpnLmgqZWlLfBFZbIb+WkgaBnBy4scpAoYBHmHQMACAcJYY1hJZMP/mqX+L+HLD9NTvGwN1AOqYyBjmOQDPYtAsIqpn5jkAZgGon/i/Sjmtv79/NNoa38rAm6WzlAsTvRLA96VzPJcFdZB0iFKYkFMDAJ9CSIGlQ5SGPD4HgJg3SGcok6Gx34a3SYdQ3nekZ9tZAN8C8K1oe2IeF4pvBtPvg9ABffAZWASsp5nnvg3g96EniQJ+07tpkzG5R78L1nV/FVQAMAhGFkCWQQOGMWjJnmRLJ8+/aOzUsd27q3pcKxK5qTb0orPzMGbmwdA8Bs8HYR6IXmIZcwFaROBFABYB8OSRZKUAwILvIZBvCgDw6ByA8WnvzpQACjWjcLJPeuEc6v3lb3gIThVpuaWhLTFnsDfpyR5kBtY78yf34rYODib1aLcqSbYneQrAvwD4l2jr+oWWi7cQ8a0AEgD0aXDAMPCWaOu649l05+3SWaT55HNhaqKxdX/JxJ+WzuEjZwHsYcZOIruvSObQi0PnBnt6epw9gtXe3h4+bS9fWGPtYmZeBPAiGF4KpgiAJRhfF6kV5Wli8G35dNd3pHO4prn5+rmj4ZpH4aNiLrP53XwmeUw6x5MSiUT4l7+xv4E7N6V7c+nUK6RDTFVja/zHADZK5ygFEV6b7U3dL53juSKxxCIi+wvpHOWgnxGqnJa03zA7PHb+NUzm9QC/BsBs6Uyqeojoj7K9nV+TziHJNxeNpYq2rbuamT8lncNxgwAlibC7aGnX4UzyIHx2rGaieHF04sfzNDc31xbDL26wZCJsKcLEjQQsB9AC6MkSVVn9/btPN8biu0CIS2cpGyomAHjmQv9Xv0Ub3Ln5B4Pd7P9/WhccKwDY8RWRnisAGNj1jnVUXEhh1LKvtp4oWRNtAt8H8P3m5uba8+ErEkR8K5huAbBQOJ6qMGb+SmTlur78/k4nT8uVQyALALHYxvoneOR7COj3P029zPihCdm7J3aRB9rEpO3sxI9nibYn5hUL3GJgWwBaQUALjxcGtNKsyoYI9zD8UwAg0CvhoQJAkYsd5NJhOYJzg/SeiQ2nyDr06w2A2JubABjwS/9/6uiBbk+2WCj3TVzHbZ348b6mlYmrbdHeCsItGL9mU/5TS5Z/eFXLhtZH+raflA4jIZA3wMM0cgcBEekcDtnD4P8MMd09kEkNSodxxUTvWXLix1OWrkpEQkW7iplewcSrCLgaWhRQU1Qg3Bti+GmLiafmABCTt6e8P4cJhZxbpfdMhd+EHq653I7Crf7cqyORm2rz+Qe8tnoxIR2gPPiH0glUcAzsT+4FsBfAX0Va1i8xoeIbmPj1YB0i6DMLwqGxrwO4WTqIBLfK7GXQ2JZoA9ufIqDFjxKcAeFb1pqvHs4k+6TD+N2StngkbPlqS3gFMa0GYRXcugCeFu3vnJ7GWPxnICyTzlEuITJXHepNDkrnAIDG1vijcKed52AunWqWDjFdja1ru+Dx6frPRTBrs+lkt3SOJy1dlYiYos1J5yiHYti+7EhP9wu24SlVLeMbBfh1xHwrE27A+FYp5Thi/qNspitw8wCCdhNsYO3/Bwrc9z1pBJwA4d9GYf7Bq1ON/ehIbyoPII+JFWiJRCL8i8cKMUOmgwhrJ454u3IToqqN+F6AfFMAKKKYAPBN4RhY1toRLbr19871/n8AAJPp9uqx+guxsKsBeKYAYIrWUydppoqI9unNv/KCiVOd3wTwzUXXX19XPzKjg629GcBboBujnMVEX1rSFk9OXIcHRqCOskRb174fhOukc3jUcWZ6X03hsZdle1Of1Jt/WclksnD4QPe+XCb1j9l0alMunbqSiV8vnUt5kyHcI52hnHh8DoC4AoxTN6FM6JLOUA6m6N4cA4K3WkX80v/PbPX4v/KcY7t3j2T3J7fl0qkP56JX/g4xrWXgCyA+Ip1NlazeMP4DmzYF6p44ME/CF6/omMMgnfr/fMPEfMfwzMIXj+3erTt2PcwwTvhkorMqs4HGBXsas4+eAjBPOks5kPVG7zIBa6QzlMKGrGeeQE+HrR/ZRSMzLBx6SEHgJ/uDPbEJh3zS/2+KuFc6g1IXtXmzzY6f/ukG8JGlsUSLMfYWMG7F+Iwn5XEErI5kH/2LPPA30lmqxZkP1+maETJ/BWCudA6PucsW0ZTNdP2N3vwr5bDNmy1A/lmTRVgcaVm/RDoGHNquwOCjfjkqnX/oobMAeqVzlIKBOctWxJdL5wCAZSvifllDe2Sgryvw24aUWw5nkn253tRncunUKwjh32Gm92F8w4DXhoSqZyDgk1etXL9YOke1BKIAsKwt0QDGn0nn8AoCzjD4tlw69abDfalj0nmUUuXA90knKCtTSEi+/FUtG+bDoW0xxif9/08h7/TTT1aBvDG4sBDiG6QzlAMDd0tnUGo6sukdx/OZzn/JpVM3ngufezEz3Uzg7wDQNlvvqauxBT9tVLqoQBQALPMdAOqkc3gC87axYk2TTlxXyl9qC2YrAN+c5CHhHuawGfXEzdykkfFF//9T2MU5AOyJOQDkkRka00XWX7NNVLAd7+kZzmc6t2TTXbfVFh67koEbifHPAPRBnEcw8ObIyrXOnPybDt8XAJpia6IMfpt0Do/461zTghsf6dt+UjqIUqq8+vuTQ0xISucoG5LuYfbWULdLYcO+OgFgueDcCQAA8kWjTZsM2J3WlYs4lVt2pYt/BpS6pP7+/tF8OrU1m0l9IJdO/a4x5hVgfAaArt0WRtZ8OQgDAX3/DVoyH0cAvs9LGAXh7bl06hPjvcJKKV+y5KcnZguXtXZEpV6cvXAzN3mncvtSh6RDlNPhzK6TANz6ngiLl7R3iPaQRrMnrgYwRzJDmdyr1ysqKAb2J/fmMqm/yqVTK0JkrgLjw2DeBqAgnS14ONaYffQPpVNUmq9vjJe2xBcBFPSn/6fY0Lpcb+pO6SBKqUrz0SBAAEWQyC7z5ubELCK0Sbz2FPnySSkzO/d9maLs6kgLSki+frkwsZ+KmUpN2qHe5GAuk/rHXKbrVRQ2LwXo3cS4F8CwdLYAuWNhe3u9dIhK8nUBwITxUQC10jkEnQxZvDK/v3OPdBClVOXlM8ljRLRPOke5SPUyj9XiOji0JpfBzvXLTwrpHIDSX192dkaZDI9cVtgqHUIpadme5KlcuvOb2Uzq9efC515CxLeC+PsAhqSz+dz8mYX690iHqCTfFgCWtN8wGwzfH+G4iJMIYd2hAyntJ1IqQKz1z5Mzltplztap/v+QCTn3pHwyiqbGvbkGLLcJoLm5uRZuta68IAZt1dXESj3b8Z6e4Wxv19253q7fPxc+dyUTbQJwF3w0/NdLGPhoe3u7Mw8CSuXbAkC4cP4dAHx9fOMihqy1N/mtJ1QpNQmEe6UjlNH8SOuaqu9WZ3bqJmropZejVzpEJTyyf8dRMI5K5yjR8ubm6+dKvPCoueI6+OC6xxD/UDqDUl52vKdnON/b+YNcOvUmM1J8CYNuY2AHAJ2bUSYEWvx4caZv28h9WwBgmPdJZxBSIGNuPXyg2zfHgJVSk5dPp3rho7VCBqaqcwAmKv7XVfM1p2lXMpn07aAoInLtFIAZDYdWS7wwhXxx/L9gRmp8NctEqUoaGNg5lE93fiefTm0IkVnKjE8CGJTO5QfM+Bh8eq/sy28qGlvXAXDVnxp5AYM/mt2f3CadQyklZ2JgkC9wlecAPF6oXwW3nqJ2SQeoKHLv+yMYkRYSsZaZsuLuQ4e2n5ZOoZSLDvUmB/OZ1P/LpVNLDWMDAf8F3SQwHcujbWtvkQ5RCb4sAIDwJ9IRZND38+muL0qnUErJKsLcJ52hjOKo6meV7BT3UrFh156Ql8TF788K9OEvbG+vBzt1cuUFMcE3M0yUEmQHMqkd2XTq94wpvgygvybghHQoFzGTL0+U+64AsLC9vZ7Bb5DOIWCwGK4JaOEjGJhZOoJyBA1ftgP+mRI8L7qyo6VaL8bCU9xLNDpSV3hYOkQlTcyyOSWdoxQEXL3o+uvrqvma9YWZHfDB1qMwQndLZ1DKTwb27zyeS3d+oqbw2MtAeDvgz5kxFXRDJJZYJB2i3HxXAKgvznoNgFnSOarMEtNtR3q2nZUOoiqITVUvKJW78vkHRkH0oHSOcrFM1ZwDINK/PRUM7A3ItHTXTgHUXjZUc001X9D4Yv0fZQ71JgelUyjlR/39/aO53tSduXRqJRFey8Au6UyOMAbFP5AOUW6+KwAQ8+9LZxDwtWym05droNTT2EALAGrSyLJv2gCMrc4cgKbYmiiA+dV4rXIw7t0YTwkTuzcHgKq7DpCBqg7LrAQi1qf/SlVBtjd1fz6dWsOG12F8e4C6CCbzbukM5earAkBT05pZAF4jnaPKTtUWxj4uHUJVAZPzxztVFdWY++GXlUCEODZtqvjnVREhp/r/XRyQNxVcdHAOgKleK0lDW2IOgFXVer1KYRhd/6dUFeX3d6Vy6dQGBt8IQkY6j3dxNBJLOD9j5Zl8VQAo1oVeAwTtKSl/qr9/t07MDQI9AaBKkO1JnoJPjvgxMGfpoV+1Vfp1iMil/n9bCNUG4uTX4WUv7QXgVIsbMVajStdYYWurPCiz/Bh8NNeb1N5kpQTk011bc72plQC9G8Bx6TxeRGTfKZ2hnJz+wHguAt8knaHKBvncrH+TDqGqhLUAoEpE7JuJ2iFjEhV/EbLxir9G+WQCM/dl82YLYI90jBLNrtbwSjLu9/8T013SGZQKOJtLd37zXPhcIwF/B7+cICyf10kHKCdfFQAA2iidoJqYcUc+/8CodA5VHYa0AKBKY41/JmpzhYecNTQnFoBpSSVfo8ycOxY/LYRO6Qgl4+qslGR2v/+fjfFNsVIplx3v6RnOplMfY0NrADooncdDFi2NJaq2kajSfFMAaGpZGwOwUDpHtRBwAsMzvyOdQ1URWy0AqJIc3pfMA5SVzlEmHYlEIlypLx6uYaf6/5koEP3/TyJLzhU8mCvfUrI0tno+AW5flDJOL5qDQLSzKOWK/P7OPbWFUyvB+KJ0Fq8wsK+WzlAuvikA2LDxzW/KZDD4K/r0P1iYSQsAqnTE90pHKJPZvzxdqNigM0L1hraVQ2GMAnXDZIfrHwbg2MpDrnhLSYjCiUq/RqWxwZZkMlmQzqGUerb+/v7RXCZ1O5jfBMfmsFQG3yidoFx8UwAAw6mLt2kqEGq+IR1CVRcRXiKdQbmHLPnmaC2TqdhRZ0J117ZNU36wP3lCOkQ15fMPjILwsHSOEi1sisUbKvkClW6NqQbDpNP/lfKwXKbrriKhnQG/nCicGqJ4LLaxXjpGOfinAAD21XqGS3gwm96hUzoDhkHO7CdX3pFtmr8LwCnpHOVAwCsr8XWbmtbMYuaKbxkoI+eOw5eFde+YeJEqXlhyvf9/pI5nbJUOoZS6uCO9qXyxWLMWoCCvC6wdMSMJ6RDl4IsCwJK2eATAPOkcVcP0XekIqvqYeIF0BuWgzZstE+6XjlEmq9vb28s+B6BYF6rayrayIA5U//+T2MFBgJVsLVnaEl8EIFKpr18VhK2ZzNZh6RhKqUt7pG/7yTGidWDntrKUD/O10hHKwZ0LnosIA6ulM1TRKF824peLeVUCYmgBQE2N5fukI5TJrDPFmdeU+4sSKj+srZyoyIE8ATCjYHYBcK1XvGInAEyYb6jU164aPf6vlFMGe5NnijW1NwLok84igWEqNouomnxRAGDw9dIZqoXAO/IPPaSDOIJJWwDUlITO2wcB+GJoqAES5f6aBKc2ABzPHug+Ih1CQn9/cogZvdI5SrR82bINcyvxhRlUkZaYKrJs7BbpEEqp0hzp2XbWMG4GcFI6S/WxFgA8gx1fgVMCC3LuCKQqm+C0uaiyGhjYOQQgKZ2jLLi8Q8/a29vDDJT9VEGlMNzrgy8nQ+5tPyjUjVakwETsfP//rvz+Ll/MJ1EqaAYyqUGCeRPcO5U1XQuvatng/AM5fxQAQMulE1RLiIJ59DPoJp4g1UrnUO5i8s02gNWRyE1l+7vw27EXXQ3Amam+xsE++DJz7vsna8reYrKstSMKYFG5v241EfT4v1Iuy6aT3UT4jHSOaquhyq0krhbnCwBNK9csBFCR43UeNFIcmrVXOoQSUDO2UDqCchsX+F7pDGVSR5edK9vWF4J16fg/qMDOPQEvq7B7JwBA5W8xKYJcf/oPWwzdLZ1BKTU9C+eYOwI3FJCgBQBpRRsKzPF/EB7O5x/wRR+vKk2BeJl0BuW2w32pY4Bz/dMviKl8cwAIcGYAIAFnBvq6Ajl46UnZnuQpAAelc5To6oXt7WU9ZUKgsrbCVB0hk+/bEchZFkr5STKZLHCI34sAtQIw2UbpDNPlfAGAGIG5MWLQLukMSoaBiUpnUO4jgi9OARDKNweAyZ0tMgzqBmClc3iAa61w4frii8o6Z4IrMAyzqtgf70VKKSC/v+sggK9J56gadrv9CvBDAYDoKukMVcO2XzqCkmENN0lnUO4rFq0/5gAQrlt0/fV10/0yjaviy+DScE1Cl3QET3Dw14G4fK0mTS1rY3Dpz+0LsNZq/79SPsKGPwFgSDpHVZBZLB1hupwvADDY+d+EyWIiPS4XUEE66aIq5/CB7n0AjknnKIPamedqpv3kniw51f/P5NyT74pga1z8dShbq0kx5Pz0/+MT70VKKZ/I7+86BQ7KKQDWEwDSmBGYAkBxzGgBILi0BUCViy/2blvCtHegW7Az/f8ARmaMntKbJgD5TPIYgEHpHCW6Dps2leWay/n+f/Bd0gmUUuVXCIX/AcGYBVDf3Hy90wPonS8AEAWmADA82J88IR1CVd/EvtE50jmUP5D1xzpAxvSfghLDmRMABOzp7+/XIbATHDwNMTsycKJtul8kkUiEAcTLkEcMmZAv3oOUUs/2yP4dR+GThwyXMlYbcvoUgNMFgIld0POlc1QHDUonUDJMqLBcOoPyj9HHKQkf9OkRcHUstnHKk9UnVsguKWOkCmPXbngrylh2bw4AzLQLTr88XVgFYHYZ4ogg4MyLzONJ6RxKqcog4HvSGarBWrNAOsN0OF0AqLl8yOnjF6XhQekESgaBy7bzXKnBweQIgK3SOcqgdphGpnxDVbQhZ57+AwBMyLkb3koiWOcKIkTTbzlhMk73/zNwf09PTxCOCCsVSDUFcz+AEekcFUc87UHEkpwuAIwVbHAKAMRnpSMoGQRcK51B+QzxfdIRysFg6nMAyK3+/0LNKPZIh/CSgczOLICT0jlKwZh+y0k5V2BKYGad/q+Uj/X3J4cAbJPOUWlkzZRPIHqB0wUAw+HAFAAYxvkju2rKyro/WqnQSO298ME++entQndqA8C+iYsq9Wzd0gFKtCDSsn7KbSfNzc21AKa9/ULQaOi8fVA6hFKqwoh8f2KNibUAIMUGaDAasfX/cRr1PEtb4osALJTOUWkEXFuuCdnq0g4d2n6a4Ysnylc3Na2ZVeq/FLn22tkAYhXIUxHs3o1udTB1SkcoFYXHpjzA73zt3OsAuHzRuW1gYKcWspTyOWLaJZ2h0gy0ACDGgANzAoBA+qEZQGSC0v9PfxY5erTkGzk1dUS+2AYQ5stCJd9Q8ROXrYZLn3/Ezt3oVoUh5+YAMMyaqf67xrp9/J+I9Pi/UgEw+lvshc/XATJBZwBIcf0XvxQMPiedQVUfGQpO//9oba10hEAxfK90hHLgKcwBMGSnfBMmwYRCvn+aMhW5xpdkADg1H4eYp9x6Uo7Vl4LsWCHsi/ccpdTFTQwbPiqdo5KYdQaAIA7MDQOBhqUzKBEbpQNUTTEUmIKeF+T2pQ4ByEvnmC4CTeGmaOo3YQIOZnuSp6RDeNLmzRbsXHvEsqWx1SWvLx5feUnOzoMhYM8jfdudGtqolJo6BgalM1QSETt9wsHpAgDBBKYAYIGwdAZVXdFbA9HdAAAgAElEQVTW9QvB7vQpT5sNzt9nr2C4fwqAmdsa2hKTngczPkiNXGqtce0Gt6qY4NywqRDVlDzIb5ie6ADg7Hskk07/VypIjM8LALAYlY4wHU4XAGyATgAYwkzpDKrKqPga6QhVVTOmJwCqzcAPcwBM2NpJzwE4XztvFeBQ+xhB+/8vggnOzQGwsCWvoHR9/V+I3S82KqVK4u+Ta8ROD2d3ugAAUGAKAGB3K/9qaizz70tnqCbikP4Zr7J8ZEE3GKelc0yXIZr0HABiTHkKu4RiyOoJgIuoG3tsLwCnWuRoCisomafS6uIVdPBQujsrnUIpVT0W5OvZZURGTwCoymNyevWPKlG0df1CmtaOc/ewdeiprF9s3myJ6H7pGNPF4EQJP9uZAYAMPnqkp9vXg5Smq7+/fxTgh6VzlGjVeE//5Cxe0TGHCKsqGaiSmKBP/5UKGAP4fHuZngAQY9jfKyaehfXmKEiYxt4Gx/9+lixU1BMAAiz4PukMZRBbtmzD5NbCWjgzANDAOHe8XYZx7ZREeARPTHoORV2IEnD488Cw1f5/pQLHOv2E/FKY3S5wOPuBAgBs/P2H6zl0R3pQbNpkwPQ+6RhVpycAZNSdfxBwe5gNAFOcMZa41E+KrFy7HITJFQq8wMEBdxLIkHNzEmwJbQDMTvf/H8+mu1w7oaGUmi72930LMTm91cTtAgCCcwKAgIXSGVR1RHMnbgGwRDqHgJJXY6npyz/00FkASekc08eXnANAtvTea1FF0hMAk1BXrN0Fx64HiFDCIEDjbP8/Me6WzqCUEkB0uXSEimJyesih0wUAA3L9qdWkWS0ABAZbul06gwQD0gKAEPJFGwAlLvkzwCVPXxd0KnsgeUg6hAsyma3DAPZJ5yjRdYlE4pLrfa9q2TAf4OXVCFQJltgPm0aUUqVizJaOUFG1bm85cLoAwExOTf6dDgIWSWdQlRdtTXSA3JpSXi7M9FLpDEFVCPtiRVfL+M3ShfEUpq8L0qf/JWDAtTkAs37xWCF2qZ8UNgVnn/4DODujcDopHUIpVX1MmCOdoYJstifp9AYlpwsAAJ+VTlBF9Q1tCT//ZVIAmO2npTNIYcN6AkDI+KR5ykjnmK5Q6MJzACKxxCIADVULM00M1v7/UjCcmwNAIbpksZdhHe7/p/vHtzQopYKGXZq3U7qTAKx0iOlwugBgGGekM1RTmMe0DcDHom3x1wT16T8AEGOBdIaAc/4UANGF5wAYFF16+o+QCbn2RFvUjOJYNxy7ICOmS7akkIGzJwAIrNP/lQoq9u8sKwaOSGeYLqcLAAW2gSoAgMLO9gGqi2tubq61jH+QziFMTwAIIoL7vbp84TkAlmhNFZNM19BLL0evdAiX9PfvPg3goHSOEl20KHXVyvWLweTqRfSoHd8wopQKmPb29jD5eZg1IS8dYbqcLgAQ1warAAC0SwdQlTEauuJDBESlcwjTEwCCsr2dewEcl84xTcte3r72Bf8cES593NpDdiWTSaem2nsBsXNzE+Yva+244Pt+mMdcfvq/Y2LDiFIqYM4WX9QC4JJDTp3FdFg6wnQ5XQAIjZ13egdjqQzbNukMqvyiKzqWgPAp6RweMG8yU7FVRW2RDjBdhSI976ZpSfsNswFukcgzRdr/PyXuzU0owFzwFAAxnO3/Z/jgRJFSakoIfI10hooi1hMAkgYGdg4BGJLOUS0MWiWdQZUfG/NVAPXSOTwgfPwxRKRDBJoPVnaxff4cgPDo2Go49HnHhl17ku0NVOPcr9vFVlMynl/McoQ1xjo/U0QpNTUW7FLLXckMKCudYbqcuSC6iGPSAapoftPKNToI0EcisXV/Crg75Knc2FidcyHoicsKOwA4vV6V6PlzAGzIXnLYmoeMjtQVHpYO4aJsesdxODec6YVXUzbF1kQBuPp5v3dg/07X24mUUlNkGBulM1RQYfiy0T7pENPlfAGA3e9ZLUnRhvVm0SeWxhItRBz0wX/PwVoAEHRs9+4RBm2VzjFNkaUt8UXP/Ad0gZssL2Jg77Hdu0ekc7iLXDsFELmqZcPzBqAW4e5nPQM6/V+pgGpambiafTzTiYFDfviMdr4AYMCBKgAQ8FrpDGr6Fra31xvi/wRQJ53FW0yzdALF90knmC4KPX0KIBK5qRYMZ/oRDZwbZOcp7OAcgLAZfV6Bioy7/f8Uwt3SGZRSMizb35POUEnE2CedoRycLwBYmJx0hmoi8Kt1UJr7Zhbrv65Pu18A6a+JNObCFji2T/25CPapm6fQrKGr4VKhjXQA4HRYcrGAQs9tUTFgTkgkmT7K5valDkmnUEoJ2LTJgPFW6RiVRT3SCcrB+QKAYev8IIZSMDDn+Gm+TjqHmrpoa/x/gcnnb5BTxFimBS5ZhzO7ToLheA/60ycAiuzO8X8AthCq7ZYO4bIjvak8gBPSOUrBwLP+jEZXdrQAmCcUZ1oIrE//lQqoaO7ELQAWXfInOoxDrl8fjXO+AGCJAldptsS3SmdQUxNtW/sGBj4nncPDanUTgDwm51d4NTTF4g0AQIBLAwAzR3q26e70aSLH2iiI0NbUtGbWk//bWmen/8Ma0v5/pQLKMn1QOkOFDV1uhvZKhygH5wsA9VwXqBMAAEDAOxoaEu4caVUAgOjKxA3M9D344O9dJbHREy7yis6v8LJPbwNYLZmjRE7duHqXc3MAwlxf89T7HsG42v9/Mr+/0xdPx5RSpYmsXHcd+X+rVaqnp6cgHaIcnL8RyWS2DoNxVDpHlc0LX158s3QINXmNK+JxtvYeuNSLLORie7FVdeTTOw+C2LF1as9GsBuWxhItAOZKZ5ksJnLtxtWTqOhgIcUW1wLAeAsUx6XjTNHdcHx+iFJqaqho75DOUGkEbJfOUC7OFwAAgIl8MZGxNPQ+6QRqchpjHdfA4EcA6qWzuMA+px9WySA2Tp8CYFDCUNGpP0uFMdL+/zIY6OvqI+CMdI5S2IlVlcdO42oAs4XjTAm53zqklJqCSGzd60B0g3SOSrPMSekM5eKLAgDB+mIiYykIWB1d2RGTzqEurnFFPA4y/wNg1iV/sgIAEBBd1pZokM4RdEU4fzG/CKB3S4coQX6wP+nU8DoPswy3iikEXNfe3h42YFeP0A7ZoZnbpEMopapr0fXX1xHxl6VzVBoBJ/KZrl7pHOXiiwIAyB87GUvFbHx/3MZljW1rXwODH8PRpzmSCuDXSGcIusPR+SkwTkvnmKZrpANMlmuD6zzPvXWK9Y8X6lcxsZP9/wzcn88/MCqdQylVXZcNhz8HoEE6R6Uxsa9anHxRAAiHglkAAOOWyMq1rvYK+lpjW/xtYNKe/ykiy6+VzhB4mzdbAA9KxwgKJucG13kaW3KvoMLmBrg1tPIpevxfqeCJtMY3AvRn0jmqgdlfG058sW/7Zz1dJxrb1h4B0xLpLNVGlj4H4FrpHOpp0dZ1/4uZPwefFNhEEDZe1bJh/iN9209KRwkyItzDwNukcwQBF2rcu2H1sMtrHt97tjBzGA7NXmHiD8LNonFhDOZ+6RDqKSbSlogbtjcBtJDB9Ux0miyfJEM/R5FS2QPJwK3QVuW1rLUjWgS+J52jGgg4Mzt8bod0jnLyRQEAAMCUBBC4AgCAaxrb4m/L9abulA4SdJHITbU0c+hfGfwu6Sw+EK4Jjf0BgC9IBwmyQrj2wVBhtAA/fVZ40/F83w6nty54TU9PTyHSGt/j2FqqBdIBpig52Jt0auiiXy1d0bHKGPN1sG1jAMD4fxIzQAAzA4bR2Bo/AdCDbOy/5/d3afFRlaS5+fq5ozA/gkNbdqbDEu71y/q/J/nmCSUxOqUziGF8ORJLLJKOEWRXtWyYj5nnfgLQu6Sz+AWD3iudIeiO9Gw7Cx9NvfUqBpwaWOeMIF8XVBERfHU01lVNKxNXG2N+AqBtEj99AcDvIkudja3xXDS27i9f3r7W1QKUqqL29vbwaDj83wAi0lmqxZD5tnSGcvNNAaBQY5PSGQTNNWS/DR/9frqkMdZxTdiM/ZQc7d30Ll4ebVt3tXQKZe6TTuB3hvRGtRJCWlipCmvdXhnqB83NzbVFa7+LqQ0djjDxpwsF+kW0Nb65KRZ36dSMqqLm5ubaxwszvwdQQjpLFQ1m9yd9dfwf8NEN45Ge7qMMZKVzSGEgEWmN/4V0joAxkdb4/wGZnSAslg7jRwyrpwCEGbBe3FcYFVhvVCvg8ZpzewD46timB+3NZ5LHpEME3Wh47nsIiE7zy4QZeLMlbG9sjf+sMRb/UENbYk5ZAirnNTcnZo2Gr7iPgTdLZ6myr8NH0/+f5JsCwIQt0gEkEXBHpHXtRukcQfDy9rULGlvj/0PAZ6H90ZXD9NaF7e3ODPHyo4FMapCBPukcfkXAmYG+Lv31rYDjPT3DAPZK5/A1Pf7vFW8v89dbBsKXatj+srE1/vWmlQk9jRdgy5ZtmDsattsBBO0ewzKbb0qHqAR/FQAMB30NTZhAP4zEEtdJB/Gzxrb42woFOgC3hku5as6ssXqdQi+MGHoKoEIY1A0fPl3wDtYBZxXEXLxbOkPQNTcnZgFUqRbEegDvsdb+NBKL/zTSGn+PFuWDpSm2JlqcMdYF4BrpLFVH2OLXE06+KgDkIwu6wTgtnUNYPZH9cXRlR0w6iN80xeIN0da1D4DxXQDzpPMEBRN9QDqDskEvrlYOoUs6gp8xG/31rZx8Pr3zoHSIoDsfQguqcD1PhKsJ+PrMwsxfNbbG/3XZinhLpV9TyYrG4u+wFOoBsFw6iwQD/lvpDJXiqwIANm+2bILdBjBhNlvzQHRFYpl0ED9ob28PR1rjf2EJ/Qx6tXSeAGqLrFynp1oE5TLdewGckM7hR0zQJ9QVNMpFPWFRKQR9+u8FVKz2NPbZAP64aHCgMRbvjLat+8Pm5usDsQ4uKCLXXju7sW3t95jwHwBmSecRwdgz0Nu1SzpGpfirAAAAzN+VjuARC9nYLu3bmp5oa/wtZ4v1AwT8LcaPwikBxkJPAciyTKTF1fIbnjF6ap90CD87eqD7DEhnWFQCsdGTQV7ARu4GjRBn5q+Ohmt+1dgav68xtu6tsdhGvVZy2NJY4tU0MmM/mN4qnUUSGf8+/Qd8WADIRxdsI31S9aR51tqfRGNrtVe9RE2x+PpILP5TBv4TTEuk8wQdg98SWblW2y4kWejFfpkR8HB/f/+odA6/Y9ZTFhVwMht9iW+fjrmEjPXCE9paAK8D8feeoJFfN8bi343E1r2uubm5VjqYmpzoisSyxlj8R4bsAwCCft17KNvb5evZR74rAGDzZsuM70vH8JBZTPRAtG3dH0oHcUF0xbpXR1vjP7GE7UTQ0xPeUUuW/lQ6RJCNzBzdBmBYOoe/6IC6KtE5AGVGwBZs3qytFR5A1nObiOpBeBsR3zcavuJXkbZ1X43E4rfoyQBvWryiY05jW/xLbOwBEF4jnccLCPRx+Lx1zH8FAAAM/rZ0Bo+pZeavNrbG/1v7tJ6vubm5trFt7bsaW+MH2PADDCSkM6kX9MGGhkSddIigOrZ79wgI26Rz+IoJ6Y1pFdSEtdBSbgyr6//UZMwl5j8kwj1P0Mhjja3xHzfG4h9auipR7bkF6jmWtsQXNcbWfW6GMT8H40PQldbjGKlsutP38018WQDIZ7r2AXhYOocHvXE0XJNe2rouIR3ECyKta5Y3tsU/Nxa+4udg+ncAOtHW2+bXXG7fIR0iyMjyfdIZfKRQM4o90iGC4Gc9XScA5KVz+Mjw2G/DWgxUpaoDsBGEL5mizTW2xnONsfg/NLatuyESuUlbBaok0hpva2yNf9eE8AiI/zfGhzqqcdayvV06RDX4ttrDoC+TngR4IYsM+CfR1vgPbDH8sXzfjiPSgappaWz1/BCF3mKZ3knA1WCApUOpUnwUmzZ9TY+eyhgthrbUhK2FT4vHVbavvz85JB0iQFIA9KljeTw4OJgckQ6hnBcB4c/B/Oc089xwpC2eIqCLibtH6goPH9u9W/+MlUlz8/Vzx2pq38iWbwMQl87jVUz4zuED3YEYzOvbAgDO1f8XZp77PID50lG8iIE3U6jwhsbW+DcsFz5xOLPrpHSmSlnWlmgoWnsLwDeDKMFAmEg6lZqiSGTgxBvzwA+kgwTRYH/yRGNr/GEAupZxmhjols4QKMRdYHqPdAw/YLAe/1flVk+MVwN4NTHhsuGaQrRtXYaZu5moC2ST+f1dp6RDuqShIVEXns03GOJ3jgK3gLkWeu17MWdDVPy4dIhq8W0BIJ9/YDTStvZrxPSX0lk8LAzgjw2F39bYGr+TjP1Kdn93RjrUdDU0JOpqX4wOLvKNTPzqItuW8Tc9fefzAyL6KLQAIIaY7mNiLQBMF3GndIQgoSKn2OhnQBkUZhQK90uHUL4XZuZVAFYR84fAhMbW+CEAu5ioh4rcdx42c/RA9xnpoF4SaV2znDh8A4hfBdj1AOr1lOvkMNPHBvbvPC6do1p8/Wm4NLZ6vqHwI9D97ZPH2MNEX0HdyL35hx46Kx1nMtrb28O/tbOupiJ3sMEGYsShv+e+ZhgbBjKpHdI5gmhpLNFiyB6QzuE6CpuXZHuS+kSrihpb478EsFA6h8sY2JFPpzZI51BPi8bW/h8m+qx0DiHHCNzHQIZhDgDcN6Pw2MFArFfdtMlED/06yqHidcRmA4NvALBAOpaTGHtymdQa+Hzy/zP59gQAABzO7DrZ2Bb/2sR0SzUZhOsIfB1GZhQirfGUAX5EXNwykNmZlY72pGVtiYYi21VgtAPoOFvANQSuAwEUlFInIQNGCwLai22JPwVACwACDmeSfY2t8UEADcJRHEYH9eZfAqUAfqt0CpeRHv9X3rKIQYsAvJomJjqNhq8oNMbieRhkAQwy+BEDDDJCg8VQ+MiRnm1OPNx6poXt7fWzirOWA1jFsCvB1IbsozE2qAcTWKdZTUfBWP4TBOjmH/B5AQAA2JrPEdk/BaATRksTJmA9A+uZQp+PtK49SqC9xNQDxr4xDu97pG97RecGLG2JLwoZjlqYKBG/HMzLQbSqyHZ8laGvz69cBONQbWHslaM1tf8K5jdLx5FBHZHWtRvz6a6t0kkCiXCvFlanQ9fSSWBCFzG0ADANxTDfK51BqUsIg7AMjGUAQHiyNGARKowi2ho/w8AggEEwBmH4l8x0GsSnDIdOc8iesoXC6cNNv3OqGgOHm5uba8/hJXPDtcW5xGYhAQ0WWEqwDbDUQIQGLmDB0zf5Qb34rQwifGagr8v59udS+b4AkM8kj0Vj8a8x4f3SWVxGoMUAFjPxG0FAGGNobI2fJKJjDD7GjGOG6ZcAH7OGhtnSUCiEAmzxbNFygQyPsKU6AKAwzTII1VrmOQaYy8AcsL2CgIXMtBiEhQAWA6jlZ7x1Qyf3AcDxQih8Yy6TOr1sRfxTRYM3IqCnAAh0BwAtAAggy/cwkRYAporQJR0hiNhSigJzTKwi9h3p6T4qHUKp6WBgDoA2AG0gAEzjt9RMYFigCBgKozH7KNAaP83AKWKcBngIRCBgYu4AjzBoePy/0lkitswoEMFg4rps4rXAzMYQzZn4Z3MBzGXwXALNHQVm1cACloCJZ/njV7sEkG6qqrCHF84xd3jmiHMV+b4AAAA2xJ8kS38A3XVZbvOZeT6AVePvoeNvU8QMIgZbACCYicFL9ORtqgUYdvx996kvNXGbr/f4F3MWZF77yP4dRwHg0IFUX2PburuCewoA1zS2drwul+7eIh0kaF5UM5x6vDDzzJMXN6o0xZDVDQACDmeSfY2x+GkQ5kpncZMe/1eBM5eAuc8cJP3M69an/ys/dQ37QjfsRPS8f056wSttOAR7WzKZKkgHkRCIJ4cTq0M+J51DqWkogOhNud5k7zP/IXPhkwhY39IzMcxnEZD3MS/p6ekpMPGD0jkcNahPUQUZXb84VSFLd0tnUEqpciCi2w+lu4P48B9AgC6cz4XPfQFAYNY7KJ8hvDPX27ntuf84n955EER3SUTyAgJaGmNr3yCdI5CsuUc6gosIrDeggoih6xenZvDQgVSfdAillJouAn6Q7e38N+kckgJTADje0zMMpo9I51CqVAT+YK43deeF/v+hIn8KAT4FANCnsWlTYN7LvGLM0IMAAnl0blrI6A2oKC3ATAVBn/4rpXyAcYhGiu+WjiEtUBfNuUzn96FDw5RDGHx7Nt31Txf7OYcOpPqCfAoAhGWR7KPvko4RNIO9yTMM6DT7UhVJb0AFLXxxaB+AIekcrrHGav+/Usp1Qwjj1oGBnYH/DAhUAQAAbMh8AMCIdA6lLon4o/l01xcn81ODfgqACB+WzhBIxPdJR3DMqeyB5CHpEEGWTCYLYN4jncMxp/KRBVq4Uko5jYH35val9DMYASwAHN6XzBPTHdI5lLoYYvqrXG/X30/25wf+FAAjFl3ZEZOOETSmqDvBS6Q3UV5AOgegNLSlGvvQ1dRYXZGs1CUx6JP5dOq/pHN4ReAKAACQzXT+DUiPripvYsYns5nOz5T+7wV8IwDTRukMQZM90H0EgA4GmyQm1htPD7AwWogpAbOu//M21lOtSl0M8ffz6c7/Jx3DSwJZAABgrTHvhfYBKo9hxifzmdSU3qTGNwJwcKubTNdLRwgiJtoincEVIQrpjacHnK8f3QNgVDqHI4aHa849bwON8hCms9IRlPKwHbNDw7dJh/CaoBYAxlsBiG6XzqHUBEvgD0715v9JIYQ+juBe2C6WDhBIBF0HODlDL70cvdIhFHBs9+4RAvZK53ABg7Ye7+kZls6hLuqUdAClvIkyxXDtrT09Pbqx6DkCWwAAgGxv59cA+r50DhV4BRBuu9S0/8k41JscBNM/liOUg+ZIBwii/P7OhwGclM7hgF3JZFIvQrxD2wAngchqgc/jwmR1qJlSz0MH2dgNR3q26QmZFxDoAgAAXMYz3gvQQekcKrCGydLNud7UneX6gmOGPg3G6XJ9PYfom7wMS4C2AVxal3QA9Qykvx+TYCkU0r/bHrfgxeEj0O1WSj2FgexYgTbk93fp6ZgLCHwBIJPZOhxC8VbozYOqMgLOWMKrsgc6Hyzn1x3sTZ4B6FPl/JouYNJhdFIssT4lvAQ2rE+cPaQQqu1GgIemTgqjO9uT1Atoj0smkwUGdknnUMojjoDNhsH+5AnpIF4W+AIAABxKd2eZ6e3QiwFVPYMWxTWHe1MV+dCuLZ76FwD5SnxtrzKWH5DOEFTDoeFt0CdQFzM6Uld4WDqEetrEsdCMdA4vY6PT/11hmLZLZ1BKHh0khNfmM8lj0km8TgsAE/KZzi0E/rB0DhUI3Wz4Ffn0zoq1nvT3948C+Filvr4HnRg9G7pbOkRQjQ8JI50UfgEM7D22e7cWSLxHT2VcRMiSvqc6gsN8l3QGpYTtqS2Mrs2mdxyXDuICLQA8Qzbd9U8M/oJ0DuVfBHyjtvBYVfqScunUXQAHYu0YEX1icDCpN1iCSLcBXJDRG01PYmadA3BBlBnIpAalU6jJye1LHQJjj3QOpYRsvYzrNvT37w7i/Ksp0QLAc+TTXR8lILi71FWlWAbfnk2n3jvxdL46mD9StdcSQuAHxzd6KEmhkNVhYReiA+c8qWhrtTBzAQSrT/8dw8Rfkc6gVPXRN2sLj92cyWzVdaUl0ALA89kXhc+9HTrVWpXPGcvmtfl01xer/cK5TPfDBP5OtV+3eihbUyi8XTqFAn7W03UCgPa5P5+dGDinPOaRvu0nAcpK5/AiC9L+f8fkowvuBNArnUOpKrEE+kgu3fnuqj5Y8wktALyAnp6eAp+b+SYAW6WzKOc9bBgrD2eSZZ30XwpzvvbD8Oee9kMFE3qVHvnylPukA3hQRvcQexeTtmc8F4OP5tMpvZF0zebNllF8O4Ah6ShKVdgZy+a12XSntm1PkRYALiCff2D0ifqx1zOwQzqLchMDX5gdPrdGuo/y0KHtp5n5A5IZyo2AXaHzNWse2b/jqHQW9TRT5HulM3gOIykdQV0Eo1M6gtcQdPifq/LpnQct6GboVhblW3TQcPFayQdrfqAFgIs4tnv3SOG35rUg6EWtKsUpEL82n059pKenpyAdBgDyma4fgOgH0jnKgugHw/VjGw4d2q5P/j1moK8rA8Yh6RxewgRdT+lhXOSkdAbPsfhv6Qhq6g6nO5OA3QTAE9cfSpULE751Gc94xUBmp7ZuTZMWAC5hcDA58jtzzJuY8C3pLMoBhBQh3Jrr7bpfOspzFQrhD8DhVgACzhDhnbnezk26Us3DCN+VjuAhwzg3MykdQl3Y4b7UMQB56Rwecix3IKUzKxyXS3dvIWNuAlDxjUNKVcEIM96b7029U4f9lYcWACYhmUwW8r2pd+qKQHURIwR8JNd45Su9uoP0kb7tJ8nSO6VzTA1tIVNszvamtBDncWTtndIZPIOwLZ9/QIcTeZ+2+k0g0A8AWOkcavqy+5PbCibcDmCfdBalpqHPFPnafCb1DekgfqIFgBLk010fIaI/gR6rUs/WXSSsyKZTX8DmzZ6+cMoe6HyQQFXfRjBVTz31T3fePLB/pycLK+rZsge6j+g+6gnMevzfAcT8E+kM3mG/J51Alc8j+3ccfaJ+bA0x/hla2FFusQT8DZ+b2T7Q15WRDuM3WgAoUba389+YzKvA0P5jNUTgD+bSqXVHelPOHCG15+o/BidWBelTf1cx8FXpDB4warl4l3QINQk1oW0A9KQGkM+mu3SVp88c2717JJtJfYANrWGgTzqPUpNwCGyvz6ZTH9dTdJWhBYApyPcmk2zDr4ATN1GqIpi3GcaKbLrrn+BYVT2ff2A0BPt7ADy5mkyf+vvA8MzvEHBCOoYkAu49nNnl7MyNIMn2JE8xoJPvwV+STqAqJ7+/c8/l4XMrGfgYdFWg8qZRJv7ME/VjK3OZbi1GVlBIOoCrTp985DdzX7T836l27HIA10rnUZNRLqoAACAASURBVFVzjBgfzGW6/vdjj/78jHSYqTr16NHH5l7Z0EeEtwIg6TxPYsKDzOamXLqzSzqLmrrTp/PFuS992QwAG6SzSCFjPvzYicEj0jnU5My7cvFpkKszUsridG0h9K5f/3pQn7b52K9+9St7+tGf75y36KqvkmUAeAX0XkB5AAM7KISb8/u7/uvssWPaal1hnrnwd1lja/yNAL4OYI50FlUxwwA++0T92N/7aQJ9JBb/v0T4lHQOAs6A8eFsRo/7+0Vz8/VzR8M1vwBQL52l6oiP5Hq7GuHY6aCga2yN5wBEpHMI+etcOvUJ6RCquiIt65eYUPFTDH4rgLB0HhVIg0R8e7a3S09hVZFW/crg9KM//9ncK6/6LoGXgdAonUeVGeNOhnl9PtO5xW9VydOP/rxz3pUvWwVCk1wK2mJM8aZsultXT/nIr3997Im5C15mCbhBOku1EeP9jz169IB0DlWaeS9tOA/gZukcAs5YLtz2m0d/cU46iKqu0ycf+c1jj/78h/NfetW3GTYMUAuAGulcKhBOMfivcG7WO3MHt/dLhwkaPQFQZtG2+DvA+BLraQD3MW9jhD6RzyR9PdE8cu21s+n8jC4wYtV8XX3q73/t7e3h3xZm7iegRTpLtRCwK5tOrZHOoUqXSCTCvzxtD4CwTDpLNRHzH2UzXV+TzqHkRdsT87hQ/FOA/gTAIuk8ypeGAPoi1418Lv/QQ56cRRUEWgCogJe3r11QKOIfwPRW6SxqKjhJbD6RzXQG5ol0tHX9QkbhIVTtA5+2GFP4Ex3y53+RleuuI8s7EYyhswUiuj7b27lXOoiamqVt8dWG0YVg/HkFAzvy6VRgZ3WoC9i0yURyJ15nGO9j0EYE5O+DqqghEP6lUKj53CN923VArjAtAFRQtDXRwbBfArBKOoualG4m84l8bzIpHURCpHXNcoPQzkqeXtGn/sHUGIt/CAT/TxhnfDSXSf29dAw1PY1t8b8E49PSOSqNgBNjJnztI/t3HJXOoryrKRZvKBK9g8C3IbgzMtTUnQThS+eL9p+PHuh2dni232gBoPJMNLb2PUz0SehxKi+yYDxogM8PZFI7pMNIa1wRj8PgfwDUlv+r61P/IIu0rv1zAn0evn2SxH+XS3d9TDqFKo/G1vi/Avhj6RyVQsAJGHtjdn93RjqLckdk5brrTJFvY+CtIMyVzqO8jLJE/KXhy8a+4afh2X6hBYAqaWhI1IXnFP+UmD4OYL50HoUhBr4Zhv3yoXR3VjqMl0Ra4xsN8J/lOgmgT/3Vk6IrEzewtf8OfxVDTzHhw/ne1J3SQVR5RVrX/V8CfxJ+K1oR/YAt3Z7PJI9JR1FuSiQS4V+e4QSYNwF4A/S6Vo2zDLqXCF/J9XZukw6jLkwLAFUWi22sf8I88X4w3Q5goXSeADrC4C/b8IxvHOnZpsNHLiDSsn4JQoV7pj+8TZ/6q2eLxTbWD9PIhwj4ANwuBAyC8NViqPaf9L3EvyKt8TYC/hbARuks02TBvMOAPqun3VRZbdpkIvkTHWTpTQBeB2CJdCRVdceY+Fs2xP96pKdbW4ocoAUAIc3NzbVjoSveyoTbAbRJ5/G5YQLdxYT/yPV27oDu5p6UWGxj/RM4/ykQfwiltgQQHxl/wpS6tzLplA+YyMp115gi1lviVgKWA1gGD+6iJuAMgIOW6CDY9hOFkrneZK90LlU9S9rikbDlNzPhRjDFnDj+zDgN8D4Y/Ji45s5seocWYlXFNa6KL4Pl18HSzSCshgff01VZDDHhLkPm29n9Sb22dowWADygKRZfb4n+COA3oiK914FkCUiB8O/0RPGugYGdQ9KBXLWstSNahPksgFtwqQ9yQoZAX7ZD9d/K5x8YrUpA5SuLV3TMqaXwrDAV6scsZklkCIVRQAFDqA2frRurHc5ktg5L5FDetTS2ej6Z2uXG2sVMqGNgjgHPBKhOIg+DHwebswQ+Y0Gni6FQRof7KWmLV3TMmWHMemJsYMJ6IFgrNn1oFMA2Bn2vnmfcpZ+N7tICgIc0N18/dzRU8wcweG+1d7L7hCVgjwXusWH7fT2GVF7R9sQ8FO1bmPEqAFEAdQDOgHAMoJ22WNx2+ED3PuGYSimllPKgppVrFhZteD0xvwrjBQGX28CCYhjAgyD8N884vyX/0EPa8uYDWgDwqMjKtctRpDcTYROm3Yfta+NvTKD72Ngt+f1dp6QDKaWUUkqpi1vSFo+EmG8g0AYGEgDmSWdSAIBjAO4n4geGQsNbj/f06JN+n9ECgAPG+6noFma+kYAOBLtNwBJRLxgpWPx49HFKDg4mdb2IUkoppZS7THRlRwvYdDBjDYDroAMFq6UAwi5mPBAq8v0DfV26HtTntADgmIktAgmAbmSL1URog78HrIwysNcAKVjqtPUju/T4kVJKKaWUv13VsmF+KDx6HTHWEOgaHh+aXZYVxQFXYOBhECfB1FnPdd3azx8sWgBwXCy2sf4cnb/GgDsY1E7gGNytmJ4FkGGg1zCnKRTqPVd3vu/Y7t36hF8ppZRSKuCiKzqWMFEbQO0YfwjWBl2rfSnHibGXCT8lY/bUFWt36Q1/sGkBwIci1147O3S+tqVoTcwQmph4CRhLAEQwPrhN0jBAgwCOAHaQgcNgOhICMgOZ1KBwNqWUUkop5ZCGtsScsMUykF1OTC8H8ZNrZRsAGNl0VWUBHGFQH4H7mPinIbJ7B/bv1BWg6lm0ABAwTSvXLCwWzQIyWMCWFhDxQgZdacBzwDTbEmYZojkMOwdMAFBLeP4qLmacBaGA8Z78swDAlodAOAXgFBOfMmweA/Epa+k0QKeKNnTkkb7tJ6v7HSullFJKqaBpbm6uHZnxksVUtEsIaAB4KcgsAXMDxk8NLICbBYKTAAYZGATREbDtB+PgyMzCQT01qyZDCwBKKaWUUkqpYNm0yTTljy8oFGgBUWghES8EeD6YriDieQyaC2AuA3OJMQ+EWajcIO4hAENgnAFwEkTHAT4J4NcMHCfiE8x2cDg8MqhT+dV0aQFAKaWUUkoppSZh8YqOOTNrqa44yvXWmNlsrSEK15rQs0/M2mJxDhlzhmj8dqtouQBbPAsAZHjEhmmoMIqzRw90nxH4NpRSSimllFJKKaWUUkoppZRSSimllFJKKaWUUkoppZRSSimllFJKKaWUUkoppZRSSimllFJKKaWUUkoppZRSSimllFJKKaWUUkoppZRSSimllFJKKaWUUkoppZRSSimllFJKKaWUUkoppZRSSimllFJKKaWUUkoppZRSSimllFJKKaWUUkoppZRSSimllFJKKaWUUkoppZRSSimllFJKKaWUUkoppZRSSimllFJKKaWUUkoppZRSSimllFJKKaWUUkoppZRSSiml1P/P3t2H2V3V995/rz1DiDHNHVKahhhzOJFSGiliDIgoVDECakRKNdKq2EgyOyE2Kj1Iua0lPdwcaq1YoiGzJ0kRqE8Rn4ByELi9KVKKiDGNNNIIaQwhycE0pLlz4hBm9vf8sSfIw2Qyyey91354v65rXyR7//ZvfVRMZn1/a32XJEmSJEmSJEmSJEmSJEmSJEmSJEmSJEmSJEmSJEmSJEmSJEmSJEmSJEmSJEmSJEmSJEmSJEmSJEmSJEmSJEmSJEmSJEmSJEmSJEmSJEmSJEmSJEmSJEmSJEmSJEmSJEmSJEmSJEmSJEmSJEmSJEmSJEmSJEmSJEmSJEmSJEmSJEmSJEmSJEmSJEmSJEmSJEmSJEmSJEmSJEmSJEmSJEmSJEmSJEmSJEmSJEmSJEmSJEmSJEmSJEmSJEmSJEmSJEmSJEmSJEmSJEmSJEmSJEmSJEmSJEmSJEmSJEmSJEmSJEmSJEmSJEmSJEmSJEmSWkLKHUCSJEmS1B7iBkbTywQSRwPjSYwlMY5gHDAe+DVgNDCu8gXGkhgFFJ57b2i9Ay+APcA+oJdgL/A0BfYQ7CHYSwc76WcHHeykkx1p7nPfa1kWACRJkiRJIxJ/x9HsYzIFplJmCgVeQTAVOPp5r4nA2KxBh7YX2AE8BWwFtpLYBmyhzHZgE3vZmC5t3kKBBQBJkiRJ0pDiWkbzMo4jMQ04DngVPPf7KVSe2reL7cBGgk3AYxT4Kf08yi95tNGLAxYAJEmSJEkAxFLG8TKmE5xI8GrgRGA6MDlztGZQBjaTWE+wluDHJNakIhtzB9vPAoAkSZIktaFYxhQ6mQmcAsygMtGfmjdVS9pNYg3BAyT+meDBVGRHjiAWACRJkiSpxQ3s0T8NOIUCMwlmUtmTrzw2APcS3E0n30vz2FmPQS0ASJIkSVKLiZVMpcyZBGcAZwIn5M6kAyoDa4A7SHwrdbG2VgNZAJAkSZKkJhfLmEIHZ5N4K5UJ/5TcmXTYNgHfBm5ORdZU88YWACRJkiSpycRNjGEvbwbOIXE2PuFvVY8ANwA3VaNvgAUASZIkSWoCsYJj6ecC4J0k3gSMyp1JdbOXxE308bl0CRsO9yYWACRJkiSpQUUP0ykzmwLvJjg9dx41hFsoc1layKZD/aIFAEmSJElqIFHiVBLvI7gAODZ3HjWkXuAqjuKv0hzKw/2SBQBJkiRJyixKTCPxAYL3A8fnzqOmcT9l3pcWsnU4F1sAkCRJkqQM4nrGU+A8Eh8EZuXOo6a1mQK/l+YffEuABQBJkiRJqqMo8WZgEXA+0Jk3jVrEOrbxurSEvqEu8l82SZIkSaqxuJ7xdPDHQBGP7FP1ncRkPgb8zVAXuQJAkiRJkmokuplJYhFwITA6dx61tO3AK1PxwKsAXAEgSZIkSVUWJd4BXA6cmTuL2sYkEhcAqw90gQUASZIkSaqCKNFJ8EckLgNOzJ1HbSh4L0MUANwCIEmSJEkjEKsYSx9dwMeBKbnzqK3t5Ch+I82hPNiHw14BECU6gbOBN7L/XMrEboJ/Ax5gGw+kJYMPIkmSJEmtJq5lNGO4hD6uAI7OnUcCJrCTGcDDg304rAJAdLMA+BQw+YUfPO/Xx7A1StwEfDYV2XF4WSVJkiSpsQ08HP0wcCUvniNJuaUDFwCG3AIQqxnF03yNyvmUw7UHWEon16SL2XMI35MkSZKkhhVLKHAMFwDXAMflziMdwPWpyKLBPigM+bWnuYFDm/wDjAX+b/r4WZSYF6sPMoYkSZIkNbjoYRbH8BPg6zj5V2M7YAPKA64AiB7OJ/hWFQZ/lODjaQF3VuFekiRJklQ3sYIplLkG+EDuLNIwbU5F/stgHxy4AFDih8DMKoa4h+CjaQHrq3hPSZIkSaq6uJbRvJwrgE8Ao3PnkQ5BH0dx5GAnAQxaAIiVTKWfn9cgyD7gC4ziqjSXXTW4vyRJkiSNSJR4D/BZYGruLNJh6eOYtIjtL3578P35fQfeMzBCo4BL2cfj0cPiWDL8YwglSZIkqZZiFZOjm9uo7PN38q/mNYqJg719oAZ9E2oYpXL/4DqO4V+ixNk1HkuSJEmShhQl3kMfPyExO3cWacT6GDvY2wcqANRref504LtR4u5YXrNVB5IkSZI0qCgxKXr4DpWn/rV+ECrVRwfjBnt78AJAue6N+mZR4MdRYlksH3ypgiRJkiRVU3TzYeDfCM7LnUWqqvIhFADSJWwENtUyzyA6gUso8Hh08+dRYkydx5ckSZLUBuJaRkeJG0msgsEnSlKTG/TkigNtAQAo1SjIwYwlcRXwsyjRZaNASZIkSdUSK5jIy/kBcFHuLFLNDHre31AFgGe4HthZmzTDMhkocQz/Ej024pAkSZI0MrGMSZT5R+Ck3FmkmkqDz/UPWABIi9lNML92iYZtOsFtUeKfYzmn5w4jSZIkqfnEDYymg28BJ+TOItVcefC3h9oCQFrAN4GVNYhzOE6jwD9Fia/F9UzLHUaSJElSE3mGT5M4LXcMqS4OMNMfsgAAwFEUga9WN82IzKGDf4sSpVjhiQGSJEmShhYrmEHiI7lzSHXUO9ibBy0ApDmUgQ8SrK56pMPXCXRR5mdR4s88MUCSJEnSAZX5FMN5+Cm1ijJ7B3v7AL0BBxcl/hL4i6oEqq4dBJ9hH3+bFrMvdxhJkiRJjSGuZzwd/AI8XUxt5ZxU5K4Xv3lIBQCAKLEY+ByNWUHbDFzNUawcWLkgSZIkqY1FN+8g8Q+5czSh3VRaye0c+OfuF31+oBPjyuyfKwZjSYwaeH/8wD8LA78eA899pmoLfi8t4L4Xv33IBQCAKHE+8BVg9Ehz1cijwKdSkVtyB5EkSZKUT5SYB6zInaOOdgJPATuAXcAugt0kdhM8TRr4PQPvFdjNs+wh2Euilw72pCJ99QgaJcZQZjwwgU7GE0wgBn6f+HWCY+G512Qa8yF0Ywpekxaw7sVvH1YBACBWcBplbgOOHlGwWko8RJmr0gJuzx1FkiRJUv1FDxcQfCN3jsNUpjKRr7wST1HmKRI7gF+Q2EGwnTI7KLODX7AjLanP5L3eYjWj2M1U+pgKHEvit0icRHASMCV3vobTxyvTIra8+O3DLgAARIlpwHeB40Zyn5pLPECZKwZbAiFJkiSpdcUKJlLmSRqrB8BeYDPBVhJbgS0ET1JgK+WByf4onkofZkfmnE0hrmc8BU4D3kDiTcBp0OaN4l/Gy9NFL20EOKICAEAsYxKd/AMwY6T3qoN7KHNZWsja3EEkSZIk1UeUuA5YXIehysB2EluA7QSbgW0EWwYm91vZx5a0+CX76VVFsZRRjOJMEu8EzgOm5c5UZ72pyMsG+2DEBQCAWMZYOvk6cG417ldjZYKvkvhUKrIxdxhJkiRJtRUlOoGbgQtHeKsdVJ7cbwY2k/h3gs0ktlBmC7/OdpuRN57o5jQSH6Lyv//4g13fAramIq8Y7IOqFAAAYjUFdrGMYEG17lljfcBX6eAv0zweyx1GkiRJUm1FN7NJLALeBIx90cf7gC3AFhKbBib5P4eByf7/ZlO6lN76JlY1DTy4ngd8HJiaO08NrUlFXjfYB1UrAOwX3XyCxKerfd8aqhQC4EpXBEiSJEmtL1ZTYDdTCMZTZh8FdvIkO9ISn963g4EVIR8DruSlhaDmF9yeFvCuwT6qegEAIEpcBKyisRptHIyFAEmSJElqE7GKyfRzI8Gs3FmqrCcVKQ72QU3OUUxFbhpouNBMzS06gQ8AP41ulsUKj5KQJEmSpFaVLmYr4zmH4K9yZ6mqxJMH+qgmBQCA1MVdJE4BNtRqjBoZReISyjweJUqxnMm5A0mSJEmSqi/NoZwWcAXwydxZqibYeqCPalYAAEhdbOBZ3gDcV8txamQU0EWBf7cQIEmSJEmtKxX5HyS6c+eoimDTgT6qaQEAIH2EnTzD20jcVOuxauSFhYBVFgIkSZIkqeUEfwotcEJcOnBPu5o0ATyQ6GExweeoQ+GhhvYBX6SPq9IituQOI0mSJEmqjujmPBLfyZ1jBPqAl6UifYN9WNcCAED0cAHBzcCYeo9dZZVTAxJXpa6m63MgSZIkSRpElPgpcELuHIdpUyryXw/0Yd2fxKcuvknijdD0T88rpwYEP40SX49upucOJEmSJEkasVLuACMw5JH2WZbipy7W0snrgTU5xq+yAvAeEj+Jbm6LHmbmDiRJkiRJOmy35g4wAkP2MMi2Fz9dzFZexhnAt3NlqLICidkEP4wSd0c3p+UOJEmSJEk6NKnIRprvOPv9fjrUh1mb8aWL2JuK/D7w33PmqIFZJP45evin6GZ27jCSJEmSpEPyQO4AhyWxfqiPG6IbfypyJTAfBu9U2LSC00ncFj38U/Rwbu44kiRJkqRh+ZfcAQ7Ls0MXAOp+CsBQooczCb4BHJ07S42sAz7NNlanJS1W7JAkSZKkFhE9zCK4O3eOQ7QnFfm1oS5oiBUA+6Uu7qPAa4GHc2epkZOAL3EMj0cPi+Ompj8KUZIkSZJaT2rKU+sePdgFDVUAAEjz2cIoziD4Yu4sNTSV4Dp+yc+jh09HiUm5A0mSJEmSBjzL9twRDsMjB7ug4QoAAGkuvWkBc4EirdYX4IWOJvgE8PMocXP0cHzuQJIkSZLU7tIl7KL55qI/PtgFDVkA2C8V6SF4K/BU7iw1Ngr4AMFPo5vbooeZuQNJkiRJUpvbmzvAIVpzsAsaugAAkBZwH328jmH8h2kBBRKzCX7oEYKSJEmSlFVzrQB4hnUHu6ShTgEYSixjLEdwA8F7cmeps4dJfIatfNOTAyRJkiSpPqLEk8Dk3DmG6bFU5LcOdlHDrwDYLy1iT+rivQSXA+XceepoJsHXOIYnosRfxvWMzx1IkiRJktrAqNwBhi2Gt2K+aQoA+6UF/DXBO4FdubPU2STgL+jgiShRiuttGChJkiRJNTQ6d4BhS/xwOJc1XQEAIC3gTjo4BVifO0sGY4EuOp5rGDgrdyBJkiRJakHNUwAIHhrOZU3TA2AwsZRxjOZmgvNyZ8kq8RDwObZyi30CJEmSJGlkYimjOJJncucYpj5exv+VLjr4qQVNXQDYL3pYTPBZoDN3lsy2Az10cF2ax87cYSRJkiSpGcUKplDmidw5hmltKvLa4VzYlFsAXix1sZTgrVQmwO2s0iegn59HiVKUOCF3IEmSJElqOsHRuSMcgmEt/4cWKQAApAXcxxH8LvC93FkaQKVPAPxrlLg7upmdO5AkSZIkNY1yExUAgn8e7qUtUwAASB9mB9s4B/jvtNdRgQdSAGaRuC1K/Cy6+YTHCEqSJEnSQSQm544wbGUeGO6lLdEDYDDRzWwSN4MT3hfZA3yZMp9PC3kkdxhJkiRJajTRw1UEf547xzBsT0WOGe7FLVsAAIiVHEc/3wBOyp2lQd1F8Hm2c0da4ooJSZIkSS8VNzGGZziJMicRjAdGUeDXCLYRPErwaFrIptw5qylKfAW4MHeOgwpWpwW8b7iXt3QBACCuZTQvZznwx7mzNLCNJJbTx8p0Cbtyh5EkSZKUV5SYCnwA+ENgOgffPr6J4KskvpSKzb/SOEr8EJiZO8dBJRalLq4f/uVtIrr5MIllwOjcWRrYXoIv08Hn03zW5Q4jSZIkqX5iNaN4mvcA84EzOdyecYlbCC5PRTZWM189RYmnaYbt5IlXpy7WD//yNhLLOZkC3wCm5c7SBO4DSjzDLWkx+3KHkSRJklQbsZKp9LGQxIeBiVW67T7gk6nI31TpfnUTX2ACR/AfuXMMw0628RuHsp27rQoAAHED43mWGwnOy52lSewAvkgHpTSPx3KHkSRJkjRysYQCkzibxEJgNrU6IS74MkdycZpLb03uXwOxnFMp8IPcOYbhm6nIHxzKF9quALBfdHMRiRJuCRi+xAMEnwO+nYr05Y4jSZIk6dBEiXFUmtt9lMre/nq4g6N4V5rTHI3Ho5sLSXwld45hKKYiPYfyhdpUeZpAWsBNJF4Hw98v0faC04GvA09ED5+OFRybOZEkSZKkYYgVzIgSJWAbUKJ+k3+Ad/A0V9dxvJF6Te4Aw9LPPYf6lbZdAbBfrGIsfSyn0uFSh6ZM4k6gxHhub5aKniRJktQOYhljOYILCYo0Rkf7M1KR+3OHOJgo8V3g7Nw5DmJjKvKqQ/1S2xcA9hvYErAMGJs7S5PaTuImCixL89icO4wkSZLUrqKb6RT4EEEXjdTJPvFQ6uL1uWMcTJT4BXB07hwH0Z2KLDzUL1kAeJ64nuPp4GvAybmzNLE+EndQZgXbuTMtsVeAJEmSVGsDK5v/CCgCM3LnOaDE21MXd+aOcSBRYirw89w5Dirx+6mLbx/q19q2B8Bg0iVs4BleDyzNnaWJdRKcR+I2juGJKHFdLOfE3KEkSZKkVjSwt/86+niCyt7+xp38AwTvzR3hIBr7v7+KPo7g3sP5oisADiC6OY/EDcCE3FlaxH0Eq0jckorszR1GkiRJalZN87R/cDvYxm8eytn19RQ9XEXw57lzDClxb+riLYfzVVcAHEBawK0UeA1wX+4sLeJMEjcC26LEzdHDrNyBJEmSpGbyXCf/vuc6+Tfb5B/gaI5hYu4QBxQN0SxxaGVuO9yvugLgIGI1BZ7mSuDPsWBSbY8S3EDwxbSQp3KHkSRJkhpNlJhEYg7BfGiRrbXBKWkBD+eOMZgosQ2YlDvHkILfSgt47HC+agFgmKLEm4GbgSmZo7SifcCtJFawlXsadTmQJEmSVA9RopPEbMpcTOJcoDN3pqoK3pYWHPoZ9rUWK5hCmSdy5ziIR1OR3zncL/tEe5hSkXvp53eB1bmztKBRwHsIvssx/Dy6uSZWcELuUJIkSVI9RTfTo8RngScJvkViNq02+QfoaNDVv2XOzB1hGG4dyZddAXAYopsPkFgGjMudpaUlHiK4mWf5cvoIO3PHkSRJkqotbmA8+5hDMJfEabnz1MlvpCI7cod4sShRArpy5ziIM1KR+w/3yxYADlOsZCr93AxNUSVqdvuAO0jcyHjuSHPYlzuQJEmSdLhiCZ0cw9kEHyJxHjA6d6Y62p6KHJM7xGCixL8C03PnGMJTHMUxac7hb5m2ADACsYQCx3ApcDWVZeyqvZ3AV4EbU5GHcoeRJEmShiu6OYnEXOCPoIE74ddS8MW0gLm5Y7xY/B1H8yy/yJ1jSInu1MXCkd1CIzbwf+Qv0SpdOZvHo8DN9HFTWsSW3GEkSZKkF4tlTKKDPyLxIeCk3HkawFtSkXtzh3ix6OECgm/kzjGkxNtS18iaJ1oAqJK4gdHs4xrgY7mztKEywb0kbuQZvp0Wszt3IEmSJLWvuIHRPMN5A5P+s2nFRn6HZ00q8rrcIQYTJa4DFufOMYSdbOM30xL6RnITCwBVFt2cReJGPC4wl17gDoIvcSR3pLn05g4kSZKk1herKbCTs4D3k7gAG4YP5pxU5K7cIQYTJX4MnJw7xxBWpiLzR3oTCwA1ENczng5KwJzcWdrcboJvkvgKR3HPSJplSJIkSYOJHmYSvB+4EJiUO08D+3Iq8v7cIQYTJcYBTwOF3FkO+trdSwAAH81JREFUKHh7WsCdI72NBYAaihLvAUrAhNxZxE7gFuDmkRybIUmSJMVKptLHhSQuBo7PnacJPAa8LhUbc6tudDObxG25cwxh50D3/xGfhmYBoMaixFRgBZW9P2oMm4AvU+YraSGP5A4jSZKkxhfLmMQRzAHeT3Bq7jxNZCcF3pjm82juIAcSJZYBl+TOMYSeVKRYjRtZAKiT6GEewWdxL1CjeYTEl+jnq2khm3KHkSRJUuOILzCBI7gAeB9wFo28RLwx7aLMOWlhYx/fHSV+BhyXO8cQzqjWKmYLAHXkaoAGl3gI+Dr93GIxQJIkqT0N7Ac/H/hDYBZ28D9c2ylwTprPutxBhhIrOJYy/547xxA2pyL/pVo3swCQwUBvgBXA+NxZdEDrgVtIfCl1sSF3GEmSJNVOXMtoxjCLxPuAC4AxuTM1uTXA76cim3MHOZjo4RKCZblzHFDi/0ldfKp6t1MWUWISlSLA7NxZdFAWAyRJklpM3MBonnlu0n8+MDZ3phaxlGe4LC0eecO6eogS3wHOy53jgBKvTl2sr97tlJW9AZrOGuDrwOpUZGPuMJIkSRq+uIkx/JJ3AO8F3oGT/mraSuJDqYt7cgcZrijRCfwHjTsXezgVOaWaN7QA0ABcDdC0KisD4Cup2LhdTSVJktpZlBhDcJZP+msouIt+PpQWsT13lEMRPZxJ8I+5cwzhT1KRL1TzhhYAGoirAZraOuAbJG5NXazNHUaSJKmdxUom0Md5JN5LpZHfqNyZWlQv8PFUpDt3kMMR3VxD4s9y5ziAXvo5Jl3Crmre1AJAg3E1QEvYDHybxG0E96YifbkDSZIktbr4AhPoZDbwXhJn46S/1tZT4A8bvcv/UKLEj4AZuXMMKvhyWsD7q31bCwANKkrMAz6DJwU0ux0kbgW+xRHck+bSmzuQJElSq4jrmUaB84HfJ3E6UMidqU38Lc9webM0+htMLGcyBZ7MneOAyrwlLeTeat/WAkADi2VMopPPAB/InUVV0UtwD/B1juTWNLe6y3kkSZLaQfQwnTKzKfBugtNz52kzTwFzU5E7cgcZqQY//m9jKvKqWtzYAkATiG5mk1gOTMmdRVXTR+Jegm9Q5ta0kK25A0mSJDWiWEInr+BMyrybShO/qbkztaXgdoKL00Keyh2lGqLEd4Gzc+c4gCtSkb+qxY0tADSJWMVY+rga+AgubWpFDwN3ENyWFvBw7jCSJEk5xU2MYS/nDjzlnw1MyJ2pje0m+GhawBdzB6mWWMo4juQXNGafiD7glalYmxMVLAA0mVjOyRRYRaM2q1A17ADuBL7DM9yVFrM7dyBJkqRai5VMpZ9zCd5lE7+GcQ9wcSqyOXeQaopu5pD4Wu4cB7A6FXlfrW5uAaAJxRI6mcwlBNcAY3LnUU31kXiIMt8hcWsq8mjuQJIkSdUQSyjwCk4eWNo/Gx9wNZJegivZzt+kJZRzh6m26OErBBfmzjGoMm9MC3mgVre3ANDE4nqm0UmJYFbuLKqbjcDtHjEoSZKa0cDS/rNIvAs4D5iUO5Ne4kESH0pdbMgdpBaiRCfwCxrztLW1qchrazmABYAWED38McFncW9Uu9lJ4i6C24C7UpEduQNJkiS9WHQzncS5wDuBM4HOzJE0uF7gk2zjb1vxqf9+0cMsgrtz5xhUMLfWvRYsALSIWMkE+rkG6MqdRVmUgbUk7gHuZjz3pTnNey6rJElqXlFiDInTCd6FXfubxTqCD6YFrMsdpNaixOepNFZvNDv437wyXUpvLQexANBioptzSSwDpuXOoqx2Ad8j8T95ljvTIrbkDiRJklpX9DAdeAfB24E3YQO/ZrGP4Cq281dpSXtsLY0SP6cRi1KJv05dXF77YdRy4gZG8yyfILgCGJ07jxrCehJ3EnyXUdyX5ta2sihJklrbwDFqZwFvB86lESdUGlrwIMH8tJBHckeplyhxKvCD3DkG0Qe8qh6nLVgAaGGxgimU+RzwntxZ1FB6gfsJ7qaDe9J81uQOJEmSGluspsB/cjL9zCLxNip7+X3K35z2EvwlE/ibNKd19/oPJnr4LMGluXMM4u9TkQ/WYyALAG0guplN4vPAsbmzqCFtprJd4G6C76Ui23MHkiRJ+UWJacDZBOeQeDON2TVdh+ZOOiimebV/0tyIGnj5/2tTF2vrM5TaQlzLaF7OFcAncFuAhrYRBpoJ9nNPuoRduQNJkqTai2WM5QhOA95GMBuYnjuTqmYXcHkq0pM7SC6xnFMpNOTy/ztTkbfXazALAG0mVnIc/Xyeyl4t6WDKJB6mzPeAu9nLA7XuTCpJkuojSowhOJ3EW0mcRTATKOTOpar7e+Dj7X5kdHTzGRL/LXeOQbwlFbm3XoNZAGhTbgvQYeoD1nncoCRJzSeW0MkrOOl5+/jfhCtDW9kmEsXUxV25gzSCKPE4jXdS2sOpyCn1HNACQBuLEmOATwL/DZu46PDsBu4D/j8S97GVte1yhIwkSY0ullDgFZxMmbOAt1Jp3DcmcyzVXhlYysv4ZLqIvbnDNILoZiaJH+bO8RKJ96UuVtd3SLW96OF4YBnBrNxZ1PT2APcD/0jiPoKHUtGCgCRJ9RCrKfA0JwNnkngLwZuACblzqY4SD5FY6ClPLxQlPk2lF1ojeYyj+O16n8RgAUDPiW4uIPEZGm9pjJrXXuBBEv8I3MsRPJTm2kNAkqRqGFjSP5MyZwK/R2VJ/7jMsZTHTuAKtrEyLWmvo/2Go0GX/78/FflyvQe1AKAXiBKdJC4huAr/AlH1/aqHQJnvk7gvFdmdO5QkSc3gBXv44QwSZ+LPa4K/p8yfpoU8lTtII2rQ7v8bOIrfqffTf7AAoAOIFUykzNXAh7EbrGqnj+BhCjxAmX8i8UAqsj13KEmSGkHcwHie4XQSb6TydP9UbNqnX1lHmYVpIQ/kDtLIosTngI/lzvECwR+mBXw1x9AWADSkWMEJ9HMdibNzZ1Hb2A7cT+L7BGuAB+0jIElqB7GKyfRxOnAGlQn/yfggRi+1F/gbjuJqT2MaWiyhwDE8AUzOneV5HmUbr861VcMCgIZl4NjA62i8vTNqfXtIrAPup8z36eSBNI+duUNJkjQSsZoCuzhhoFHf/gn/sXlTqeEFt9PPwrSILbmjNIPoYRbB3blzvEDGp/9gAUCHIJYyilF8jMSngLG586htlYH1JO4H/okCD6Z5PJY7lCRJQ4nlTKSD0yjzBgqcRjATf57S8G0gsSh1cU/uIM0kelhF8OHcOZ5nPdv43ZyNGi0A6JDFF5jAEVwJfASXpakx7CbxCPtXCXTwUJpvIxxJUh6xhE4mc/zznu7PAKZnjqXmtIvgGvbxt2mxy/0PRaxmFE+zjUY6CjPxrtTF7XkjSIcplnMyBa4DzsydRRrEJoKHSPyAAg9xJGvSRezNHUqS1HpiJVPp51TgDSROI5iBzfo0MmUSPXTyqfRhduQO04yih/MJvpU7x3OC+9MCzsgdwwKARix6uIDg08BxubNIQygDj5B4GPhnyjzEdtanJTYYlCQNXyxnIgVmAq8nMXNgKf/E3LnUQoLv0cHH03zW5Y7SzKLE14H35M7xnMQbU1f+ExssAKgqokQn0AVciX8JqnnsBdYMvH5EgbU8aVFAklQRSxnHy5hJPzNJvB6YCUzNnUstayPwp6nIt3MHaXaxirH08QsaZyXON1ORP8gdAiwAqMpiGWPp5DLgUmxso+bUCzzC/qJAmbX8knXpUnoz55Ik1VBcz3gKzKDADILXUtm3fzz2O1Lt7Qau5hn3+VdLdHMRiRtz5xjQRz+vTpewIXcQsACgGokSR5O4jOBjwKjceaQRKgOPAuuB9QQ/pI8H0kc8jlCSmlFcz3g6OJHEDIJTsEmf8igDX6aPy9IitucO00qixN3ArNw5BvSkIsXcIfazAKCaih6OB64mGmj/jVQ9jxGsocCPgUcosC7NY3PuUJKkilhCgckcR3AS8FoSJw806JuUO5va3r2U+XhayNrcQVpNLGcyBZ6gMVbv7KaP326kAo8FANVF9DCT4DPAm3NnkWpsN/AYsJ7ED4H1dLLWDr6SVFuxlHEcyUlUnuS/eqBB38nAmMzRpOd7FPhUKnJL7iCtKkr8GXBN7hwDPpqKLM0d4vksAKiuoofZBNcAJ+bOItXZJoJHqPQX+DEFHmErG2w4KEmHJpbQySs4jjInAq8FThp42ZxPjWwLiU+xlZvSEsq5w7SyKPETGmOusR54TSo21s96FgBUd7GaAju5iMRVwJTceaSM9lH5y+EREv/K/j4DW9loYUBSuxv4eWEaBU4kmA68hsrT/eOxv5Caxy6Ca9jLUhsK116sYAZlfpQ7x4BzUpG7cod4MQsAyiauZTQvZzFwOTAhdx6pgewDHiOxnmADwU8IHqXAhlRkb+5wklRNsZoCu5lGHyeQOJHgd0lMB06gcY7wkg7VPhJfYB9X2zS4fqKb60gszp2DYHVawPtyxxiMBQBlF8sYSweXkLgCGJ87j9TgtlPZRrBxYNXAep7lkUZqLiNJg4mljGI0xxFMJ5hG4nfhuYm++/TVSm6hn8vTJWzMHaSdxBI6OYYngYmZo/TSwW83amNoCwBqGANH8lwGLAbG5s4jNZkdVJoPbiD4GbCBDh7jlzyWFrM7czZJbSJWU+A/mUpwHMFxJF4NnEBwPO7RV6tL3EM/l9nZP48o8Q7gH3LnAK5IRf4qd4gDsQCghhNfYAJH8FHgUiwESNWwC9hIZdXARsr8Kx08YnFA0uGI1YxiB1PoZNrAk/xXEUwDplF5ou+yfbWX4EEKfCp1cU/uKO0suvkaiTmZY6xlG6c0ci8nCwBqWLGMSXRyBbAAm/1ItbKd4DESjwGPE2wisYkyG9NCtuYOJymPKDEOOI7EcVQm9r8FTCM4Dhv4SvutIfHJ1MWduYO0u4EHiNvIO2coU+CNaT4PZsxwUBYA1PBiBVMocxkWAqR62wdsobJ6YDuJrQSPk9hIHxt5ik0eZSQ1r7ie8RzBNMrPe5LPc0/yp2WOJzWy9cCVqcgtuYOoInpYTHBd5hjXpiJ/mjnDQVkAUNOIFRxLP1eS+ADQmTuPJHqBTcAmgo0kfk5iC4nNPMtW+tiSFrMvc0apLcUqxtLPVCr77qdQ5pUkjqXy9H7KwPsu1ZcOzQaCK9nOagvgjSVK/Bg4OWOEzfTx6rSIPRkzDIsFADWdWMGxlLkCmAcUcueRNKRdwNaBV2UlATxJYiOwlQ42p4sb/y9LqZHEUkbRyRQ6mAxMGnh6/wpgMpUn95X3JVXLZuBqtvF3jby3u13FCmZQ5kdZQyTOSV3clTXDMFkAUNOKHqZT5pMkLsRCgNTMdgBbCTaT2Eplu8H/IthK4in62E4H21ORvbmDSrUWK5lAMJF+JpIGntYnXkkMPMmvvHIfcSW1iy0EVzOBv0tzXNHWqKKbZSQuyReAL6YFzM02/iGyAKCmFys5jn6uAC7CrQFSK9tDpVDwFIntJLZT5n8BW0g8RYHt9LGdX2eHP6ipUQycS300BSZSZhKJiZSZSOIYYCKJowkmUXlifzT2upEawRbg04xiZZpLb+4wOrC4gdHsYxswPlOETTzDa5rpVCULAGoZUWIqcDnwYdzXKLW7PVRWFvzqFewk8QsSOwd+/xQFdtLHDp5lh/0KNByxhAJTGM8+xtPB0SQmAhMJJhH8JomjqSzBn0hlQu/Teql5bAKu4Si+aCG5OUQPf0TwpUzDlynz1rSQezONf1gsAKjlRIlJJC4jWACMyZ1HUtPYAwPFAdhJYhewm2A38PTAryvvwS462EX5V79PRfeFNotYyjiOZDwFxtPPeGA8aeAVjCf49Rf8nhe8xmUNL6kWNpC4hq38vXv8m0uU+H+Bs7IMnvjr1MXlWcYeAQsAallR4mjg48BH8Ac2SbXXC88VBHYP/HovleMUdwK9JHqBpwl6gb0EuynQC+yhzB6CXoLddLCXfnp5ij3t/MNoXM94RtNJL+PoZDSJ0fQxjkTnwAR9FMFYYAzBKOAoEp1U/swfTWLMwAR+Ai+cxNs3RhJUjvO7mqP4appjV/9mE8s5lgKPk+fP9PWM4nXNuEXEAoBaXtzAePbxESrFgAm580jSYSjDc/sL98JzP3DsGvhn78D7DFxXJtE3sHrhhYLegaLDSwVlgqcPIddRFAb5wSuA5+/HDMaSBva2B50kxj7v6vHwvEl7ZeXWWOzpIql21hJczXa+6XF+zSu6+UsSf5Fh6H0UOCXNZ12GsUfMAoDaRtzEGHqZR3A5lf2ZkiRJah/rgKtSkVtyB9HIxBIKHMO/A1PrPnjio6mLpXUft0osAKjtxLWM5uXMA/4UODZzHEmSJNXWPQSfTgu4J3cQVUeUOBv4boahb01F3p1h3KpxD5zaTrqU3lTkC2zjVQTvIngwdyZJkiRVVZngdsq8PhV5m5P/lnNxhjE3Ah/MMG5VuQJAAqLEmwguJzE7dxZJkiQdtn3AahJXpS425A6j6ouVTKCfJ6nvsd/7gDekImvqOGZN2GBHAlKR+4H7o5vjSPwJ0EV9/1CRJEnS4dtB4u8IPpeKbM8dRjXUzweo/8/pf9IKk39wBYA0qFjBRMosAhbz/E7WkiRJaiSbSHyOYGUqPncailpYlPgxcHIdh1ydiryvjuPVlAUAaQixlHGMpovgo8CU3HkkSZIEwBqCTzOBW9Icj/JrF1FiBvCjOg65jj7emBaxp45j1pQFAGkYokQncD5wOTAzcxxJkqR2VCa4gwLXpS6b+rWjKFGislW3HnbQz+vTJWys03h1YQFAOkTRzbkkPg6cnTuLJElSG9hNYiWJz6f5bModRnnEMsbSyZPAuDoM10firamL++owVl1ZAJAOU3RzHAXmE3RhnwBJkqRq20hQ4kh60lx25Q6jvKKHeQQr6jTc/FRkZZ3GqisLANIIxVLGcSQXAh8HTsidR5IkqaklHiD4HEfxTff3a78o8UPqsRU38depi8trPk4mFgCkKoklFJjMWZT5KInZufNIkiQ1kX3Aagp8Js1nXe4waiyxnJMp8OM6DHUr2/j9tKR1C08WAKQaiBWcQJmPAh8AxubOI0mS1KA2k1hOJyvTh9mRO4waU52a/z3Ey3hLuqi1j5O0ACDVkNsDJEmSXqIMfA8osY1vpyX05Q6kxlWn5n/r6eCMNI+dNRyjIVgAkOrA7QGSJEnsAm6in+ta7Wg11U4dmv9tAd6Yimyu4RgNwwKAVGexghPoZyGJi/D0AEmS1PoeJLGMI7glzaU3dxg1lxo3/9sBnJGKPFqj+zccCwBSJrGUURzJeUARmJU7jyRJUhX1ArdQ5rNpIWtzh1Fzim5OIvEvNbr9XoK3pgU8WKP7NyQLAFIDiBInUikEXERt9zdJkiTV0iMEJRI3pSK7c4dRc4selhMsqMGt91LgXWk+36vBvRuaBQCpgcQNjGYfs3FVgCRJah69wO0kSqmLe3KHUWuImxjDL9lG9R+Ote3kHywASA0rVnACwVyCecCE3HkkSZJeZA1QopMvp4vZkzuMWkuUmAdVb/63F3hnKnJvle/bNCwASA3OVQGSJKmB7AJWEyxLC1iXO4xaV/TwA4JTq3jLPcDbU5H7q3jPpmMBQGoiUWIGifkEF+IJApIkqT7KJL5HmRXs49tpMftyB1JrixLTgMereMu9lHlnWti+T/73swAgNaG4gdE8y/mUmUtiFlDInUmSJLWczcBNlFmVFrIpdxi1jyjxZ8A1VbrdTipP/h+q0v2amgUAqcnFKibTz3sILgZOyp1HkiQ1tUpDv+BGJnBHmkM5dyC1nyjxHeC8KtxqE5XJ/6NVuFdLsAAgtZBYwQzKfAj4ADYOlCRJw1Mm8SDBjfTx5bTIhn7KK0r8G3D8CG+zlj7enhaxvRqZWoUFAKkFxVJGcSTnEXyIxLlAZ+5MkiSp4awHbqGDVWkem3OHkfaLEk8AU0Zwi7vo5A88neKlLABILc4tApIk6Xl2ArcAN7d7N3Q1rijxY+Dkw/z63wNzU5G+KkZqGRYApDYSPZwOfJBgDm4RkCSpXewBvk3iS4znLvf1q9FFieXAgkP8Whn4VCryP2oQqWVYAJDaUKymwC7OIvgQcD4wNncmSZJUVfsI7gK+Tj/fdF+/mkl0cxKJHzH8baybKHBxms/3apmrFVgAkNpc3MBonmEWifcBFwBjcmeSJEmH5VfN/OCrqcju3IGkwxUlLgU+e5DL9gBLeRlXp4vYW4dYTc8CgKTnxA2M5xnOA95r80BJkprGGhI38iyr7XiuVhI9zCa4Epj5vLf7gDUEX6OTL6Z57MwUrylZAJA0qCgxCbiQxB8SnJo7jyRJeoE1JL7Cs3w1LWJL7jBSLcVKJtDHFGAv+9icFrMvd6ZmZQFA0kHFSqZS5nyCuRx+R1ZJkjQylWP7+vlSuoQNucNIaj4WACQdkljBSfTzByQuAE7MnUeSpBZWBh4AvgF8MxXZnDmPpCZnAUDSYYsVHEtwHvA+gtNz55EkqQVUGvnB1+jglnQxW3MHktQ6LABIqoooMZXE+QTvAt6MDQQlSRquX036beQnqYYsAEiquljFZPo5nzJ/QOLNQCF3JkmSGswe4E6C73Akt6e57ModSFLrswAgqaYGurbOpnK04NnAqNyZJEnK5CngLoKvsY+77GQuqd4sAEiqmygxDpgNvBs4GxifN5EkSTW3Brgd+E4qsiZ3GEntzQKApCxiNQWe5nQS7yKYDUzPnUmSpCp4/n7+b6ZFbMkdSJL2swAgqSHE9RxPJ+cB7yR4EzYRlCQ1j+3AncA/8Ax3pcXszh1IkgZjAUBSw4mbGMNeziLxLuB8YGLuTJIkPU8ZWAvcToHvpPku7ZfUHCwASGposZoC/8nJlHk3lf4BM3JnkiS1paeA+whuo8yt6RK79ktqPhYAJDWVWMlx9HEucM7AEYNjM0eSJLWmPuAB4H+SuDN1sTZ3IEkaKQsAkppWlOgkcTrBOVROFZgBFDLHkiQ1rw0E91DgboLvpaJ7+SW1FgsAklpGfIEJHMFZwNuAc4GpmSNJkhrbDuBe4G7K3JUWsilvHEmqLQsAklpWXM80OphFpSBwNjAucyRJUl57gQcI7qaDe3iStWkJ5dyhJKleLABIaguxmlH8B6eTOIfELNwuIEntoA94mMQ9wN2M58E0h325Q0lSLhYAJLWlWMZYjuA0KqsD3kRwKtCZOZYkaWT6gHUk7qHM90nc5z5+SfoVCwCSxPMKAsEZwOnAmcCozLEkSUN74YR/H/elxU74JelALABI0iDiJsbQy+kWBCSpofxqwg93s4f706X05g4lSc3CAoAkDUOsYiz9vAl4C2XOJDETtwxIUq3tIPEAwfcp8wDP8nBa7B5+STpcFgAk6TDETYzhl8wgMWNglcCbgaMzx5KkZrcReAD4Pon7UxfrcweSpFZiAUCSqiRWMZk+TgfOIDHTxoKSNKS9JNYSPAx8H7g3FdmRO5QktTILAJJUI7GUcYziVAqcTvAG4DRgfO5ckpRBGdhA4iGCH5J4kGBtKtKXO5gktRMLAJJUR9HNdOA0Em+kUhA4ASjkTSVJVbeV4CEK/IAyD5F42OP4JCk/CwCSlNGLegmcAszAooCk5rKHxDqChwl+RJn70yVszB1KkvRSFgAkqcFYFJDUwHYAa0ispcyPKLA2dbEhdyhJ0vBYAJCkJmBRQFIG2wkeJrEG+AmJ9Xbll6TmZgFAkppULGMsBU4icRKJ1xCcSOJEbDQo6dD0UWnQt47gRyTWUmBNmsfO3MEkSdVlAUCSWkxcz3g6OHFgtcCrSZxIMAMYnTubpOy2A48A6wl+RAeP8P+zPl1Kb+5gkqTaswAgSW0gltDJRKZSYDqJU4DpAy+3EUitaReJ9QSPkPhXKhP+tanIjtzBJEn5WACQpDYWyxhLJ9NJTKfMb5M4nkpR4DhgVOZ4kg5uM8GjwKPATwkepZP1aT5P5Q4mSWo8FgAkSYOKVUymn+kE04BXU1kxMA04FlcNSPW0D9hCsJ4C6wkeB9bTx9q0iD25w0mSmocFAEnSIYlVjKXM8fRzPInfgResGhibN53UtHqBjQOvx4CfEWykzAaeYlNaQjlvPElSK7AAIEmqmrie8RzBNPqZTGIyiVcNrCCYRqVQYIFA7awX2PqCJ/mJjfSxkaPZlOY4yZck1ZYFAElS3cQqJrOPY+ngWMpMo8B/pcyxJKYBU4DO3BmlEdgJbCaxmTKbSPw7weaB9zbZgE+SlJsFAElSQ4gldDKFyTzLFDqYQjAZeCUwiWAqiUlUigQeZ6gc9gFbSWyl0nhvE/BzBib3PMtm9+NLkhqdBQBJUlOJaxnNaCbTwWQqxYFpJF4BA9sOgknYqFCHZhewdeC1ncRWgscJttLBVgps5wm2uw9f0v9p745W4gbCMAy/E6MsS42xRC/Pi/AKegWe97SHXpYnXYPYuMQgupu/B5mKilKkFHV9H/iZyQQmyWG+kBnpozMAkCRtnDil4IqGoAEaRg4pOAQa4OB+LOXzU7nt4eYYgAVBS+ICaHP/nOCCgpaRBYmWn7S+2EuSPgsDAEmSgPhORTwKChqCryT2gJqgAiqCikQN1JDHDA/+l57pv/ou19RPXDLyi/TgeM0lBQuuadMxN29505IkvVcGAJIk/aM4YcYuFUHNSEVBzUhNkQMDmJHYJyiAikSZx0umnRF2HrTzXLPcfoRwocvtElgxrXb/pwagI+iBgYKe4AoYSPQEHcFAMFCyZM2SHTrO6NI3Vm/yNJIkbSgDAEmS3rn4wZw+BwHb1Nw9Wd+gpCQ9s8XiihlbzF9xqYH0wtfzkY41sE3PHbd84TYdMbxibkmSJEmSJEmSJEmSJEmSJEmSJEmS9He/AXVzwvM4308bAAAAAElFTkSuQmCC;" vertex="1" parent="1">
          <mxGeometry x="165.55" y="132" width="53.45" height="32" as="geometry" />
        </mxCell>
        <mxCell id="gg1GSGkbbHf50dHX3CCL-39" value="&lt;h3&gt;&lt;font face=&quot;Comic Sans MS&quot;&gt;User&lt;/font&gt;&lt;/h3&gt;" style="text;strokeColor=none;align=center;fillColor=none;html=1;verticalAlign=middle;whiteSpace=wrap;rounded=0;" vertex="1" parent="1">
          <mxGeometry x="41" y="211" width="60" height="30" as="geometry" />
        </mxCell>
        <mxCell id="gg1GSGkbbHf50dHX3CCL-40" value="&lt;h4&gt;&lt;font face=&quot;Comic Sans MS&quot;&gt;website.nouhailachab.me&lt;/font&gt;&lt;/h4&gt;" style="text;strokeColor=none;align=center;fillColor=none;html=1;verticalAlign=middle;whiteSpace=wrap;rounded=0;" vertex="1" parent="1">
          <mxGeometry x="53" y="387" width="60" height="30" as="geometry" />
        </mxCell>
        <mxCell id="gg1GSGkbbHf50dHX3CCL-42" value="&lt;h3&gt;&lt;font face=&quot;Comic Sans MS&quot;&gt;Route 53&lt;/font&gt;&lt;/h3&gt;" style="text;strokeColor=none;align=center;fillColor=none;html=1;verticalAlign=middle;whiteSpace=wrap;rounded=0;" vertex="1" parent="1">
          <mxGeometry x="213" y="328" width="70" height="30" as="geometry" />
        </mxCell>
        <mxCell id="gg1GSGkbbHf50dHX3CCL-43" value="&lt;h3&gt;&lt;font face=&quot;Comic Sans MS&quot;&gt;DynamoDB&lt;/font&gt;&lt;/h3&gt;" style="text;strokeColor=none;align=center;fillColor=none;html=1;verticalAlign=middle;whiteSpace=wrap;rounded=0;" vertex="1" parent="1">
          <mxGeometry x="275" y="508" width="60" height="30" as="geometry" />
        </mxCell>
        <mxCell id="gg1GSGkbbHf50dHX3CCL-44" value="&lt;h3&gt;&lt;font face=&quot;Comic Sans MS&quot;&gt;Lambda&lt;/font&gt;&lt;/h3&gt;" style="text;strokeColor=none;align=center;fillColor=none;html=1;verticalAlign=middle;whiteSpace=wrap;rounded=0;" vertex="1" parent="1">
          <mxGeometry x="491.5" y="503" width="60" height="30" as="geometry" />
        </mxCell>
        <mxCell id="gg1GSGkbbHf50dHX3CCL-46" value="&lt;h3&gt;&lt;font face=&quot;Comic Sans MS&quot;&gt;Github&lt;/font&gt;&lt;/h3&gt;" style="text;strokeColor=none;align=center;fillColor=none;html=1;verticalAlign=middle;whiteSpace=wrap;rounded=0;" vertex="1" parent="1">
          <mxGeometry x="780" y="314" width="60" height="30" as="geometry" />
        </mxCell>
        <mxCell id="gg1GSGkbbHf50dHX3CCL-47" value="&lt;h3&gt;&lt;font face=&quot;Comic Sans MS&quot;&gt;Github Actions&lt;/font&gt;&lt;/h3&gt;" style="text;strokeColor=none;align=center;fillColor=none;html=1;verticalAlign=middle;whiteSpace=wrap;rounded=0;" vertex="1" parent="1">
          <mxGeometry x="699.5" y="320" width="60" height="30" as="geometry" />
        </mxCell>
        <mxCell id="gg1GSGkbbHf50dHX3CCL-48" value="&lt;h3&gt;&lt;font face=&quot;Comic Sans MS&quot;&gt;S3 Bucket&lt;/font&gt;&lt;/h3&gt;" style="text;strokeColor=none;align=center;fillColor=none;html=1;verticalAlign=middle;whiteSpace=wrap;rounded=0;" vertex="1" parent="1">
          <mxGeometry x="544" y="326" width="75" height="30" as="geometry" />
        </mxCell>
        <mxCell id="gg1GSGkbbHf50dHX3CCL-49" value="&lt;h3&gt;&lt;font face=&quot;Comic Sans MS&quot;&gt;CloudFront&lt;/font&gt;&lt;/h3&gt;" style="text;strokeColor=none;align=center;fillColor=none;html=1;verticalAlign=middle;whiteSpace=wrap;rounded=0;" vertex="1" parent="1">
          <mxGeometry x="393" y="328" width="60" height="30" as="geometry" />
        </mxCell>
        <mxCell id="gg1GSGkbbHf50dHX3CCL-50" value="&lt;h3&gt;&lt;font face=&quot;Comic Sans MS&quot;&gt;Terraform&lt;/font&gt;&lt;/h3&gt;" style="text;strokeColor=none;align=center;fillColor=none;html=1;verticalAlign=middle;whiteSpace=wrap;rounded=0;" vertex="1" parent="1">
          <mxGeometry x="769" y="499" width="60" height="30" as="geometry" />
        </mxCell>
        <mxCell id="gg1GSGkbbHf50dHX3CCL-51" value="&lt;h3&gt;&lt;font face=&quot;Comic Sans MS&quot;&gt;Developer&lt;/font&gt;&lt;/h3&gt;" style="text;strokeColor=none;align=center;fillColor=none;html=1;verticalAlign=middle;whiteSpace=wrap;rounded=0;" vertex="1" parent="1">
          <mxGeometry x="769" y="166" width="60" height="30" as="geometry" />
        </mxCell>
        <mxCell id="gg1GSGkbbHf50dHX3CCL-52" value="&lt;h3&gt;&lt;font face=&quot;Comic Sans MS&quot;&gt;Python&lt;/font&gt;&lt;/h3&gt;" style="text;strokeColor=none;align=center;fillColor=none;html=1;verticalAlign=middle;whiteSpace=wrap;rounded=0;" vertex="1" parent="1">
          <mxGeometry x="696" y="421" width="60" height="30" as="geometry" />
        </mxCell>
        <mxCell id="gg1GSGkbbHf50dHX3CCL-53" value="&lt;b&gt;Caching and serving client&lt;/b&gt;" style="text;strokeColor=none;align=center;fillColor=none;html=1;verticalAlign=middle;whiteSpace=wrap;rounded=0;" vertex="1" parent="1">
          <mxGeometry x="460" y="263" width="80" height="30" as="geometry" />
        </mxCell>
        <mxCell id="gg1GSGkbbHf50dHX3CCL-54" value="&lt;b&gt;Get/Post Request&lt;/b&gt;" style="text;strokeColor=none;align=center;fillColor=none;html=1;verticalAlign=middle;whiteSpace=wrap;rounded=0;" vertex="1" parent="1">
          <mxGeometry x="622" y="266" width="37" height="30" as="geometry" />
        </mxCell>
        <mxCell id="gg1GSGkbbHf50dHX3CCL-57" value="&lt;b&gt;Providing SSL Certificate&lt;/b&gt;" style="text;strokeColor=none;align=center;fillColor=none;html=1;verticalAlign=middle;whiteSpace=wrap;rounded=0;" vertex="1" parent="1">
          <mxGeometry x="311" y="204" width="115" height="30" as="geometry" />
        </mxCell>
        <mxCell id="gg1GSGkbbHf50dHX3CCL-58" value="" style="endArrow=classic;html=1;rounded=0;exitX=1;exitY=0.5;exitDx=0;exitDy=0;exitPerimeter=0;entryX=0;entryY=0.5;entryDx=0;entryDy=0;entryPerimeter=0;" edge="1" parent="1" source="gg1GSGkbbHf50dHX3CCL-5" target="gg1GSGkbbHf50dHX3CCL-6">
          <mxGeometry width="50" height="50" relative="1" as="geometry">
            <mxPoint x="398" y="317" as="sourcePoint" />
            <mxPoint x="448" y="267" as="targetPoint" />
          </mxGeometry>
        </mxCell>
        <mxCell id="gg1GSGkbbHf50dHX3CCL-59" value="" style="endArrow=classic;html=1;rounded=0;entryX=1;entryY=0.75;entryDx=0;entryDy=0;entryPerimeter=0;" edge="1" parent="1">
          <mxGeometry width="50" height="50" relative="1" as="geometry">
            <mxPoint x="551" y="304" as="sourcePoint" />
            <mxPoint x="453" y="306.5" as="targetPoint" />
          </mxGeometry>
        </mxCell>
        <mxCell id="gg1GSGkbbHf50dHX3CCL-60" value="&lt;b style=&quot;border-color: var(--border-color); color: rgb(0, 0, 0); font-family: Helvetica; font-size: 12px; font-style: normal; font-variant-ligatures: normal; font-variant-caps: normal; letter-spacing: normal; orphans: 2; text-indent: 0px; text-transform: none; widows: 2; word-spacing: 0px; -webkit-text-stroke-width: 0px; background-color: rgb(251, 251, 251); text-decoration-thickness: initial; text-decoration-style: initial; text-decoration-color: initial;&quot;&gt;Sending Static Website&lt;/b&gt;" style="text;whiteSpace=wrap;html=1;align=center;" vertex="1" parent="1">
          <mxGeometry x="456" y="305" width="94" height="36" as="geometry" />
        </mxCell>
        <mxCell id="gg1GSGkbbHf50dHX3CCL-61" value="&lt;b style=&quot;border-color: var(--border-color); color: rgb(0, 0, 0); font-family: Helvetica; font-size: 12px; font-style: normal; font-variant-ligatures: normal; font-variant-caps: normal; letter-spacing: normal; orphans: 2; text-indent: 0px; text-transform: none; widows: 2; word-spacing: 0px; -webkit-text-stroke-width: 0px; background-color: rgb(251, 251, 251); text-decoration-thickness: initial; text-decoration-style: initial; text-decoration-color: initial;&quot;&gt;Requesting Distribution to CF&lt;/b&gt;" style="text;whiteSpace=wrap;html=1;align=center;" vertex="1" parent="1">
          <mxGeometry x="272" y="263" width="128" height="36" as="geometry" />
        </mxCell>
        <mxCell id="gg1GSGkbbHf50dHX3CCL-62" value="&lt;div style=&quot;text-align: center;&quot;&gt;&lt;b&gt;Retrieving/Updating&amp;nbsp;&lt;/b&gt;&lt;/div&gt;&lt;div style=&quot;text-align: center;&quot;&gt;&lt;b&gt;Table count&lt;/b&gt;&lt;/div&gt;" style="text;whiteSpace=wrap;html=1;" vertex="1" parent="1">
          <mxGeometry x="358" y="476" width="129" height="36" as="geometry" />
        </mxCell>
        <mxCell id="gg1GSGkbbHf50dHX3CCL-64" value="&lt;div style=&quot;text-align: center;&quot;&gt;&lt;b&gt;Creating Lambda function using Terraform&lt;/b&gt;&lt;/div&gt;" style="text;whiteSpace=wrap;html=1;" vertex="1" parent="1">
          <mxGeometry x="564" y="478" width="102" height="36" as="geometry" />
        </mxCell>
        <mxCell id="gg1GSGkbbHf50dHX3CCL-67" value="&lt;b&gt;Push&lt;/b&gt;" style="text;strokeColor=none;align=center;fillColor=none;html=1;verticalAlign=middle;whiteSpace=wrap;rounded=0;" vertex="1" parent="1">
          <mxGeometry x="759.5" y="211" width="37" height="30" as="geometry" />
        </mxCell>
        <mxCell id="gg1GSGkbbHf50dHX3CCL-68" value="" style="endArrow=classic;html=1;rounded=0;exitX=0.493;exitY=1.233;exitDx=0;exitDy=0;exitPerimeter=0;entryX=0.5;entryY=0;entryDx=0;entryDy=0;entryPerimeter=0;" edge="1" parent="1" source="gg1GSGkbbHf50dHX3CCL-48" target="gg1GSGkbbHf50dHX3CCL-8">
          <mxGeometry width="50" height="50" relative="1" as="geometry">
            <mxPoint x="398" y="377" as="sourcePoint" />
            <mxPoint x="448" y="327" as="targetPoint" />
            <Array as="points">
              <mxPoint x="581" y="418" />
              <mxPoint x="522" y="418" />
            </Array>
          </mxGeometry>
        </mxCell>
        <mxCell id="gg1GSGkbbHf50dHX3CCL-70" value="&lt;div style=&quot;text-align: center;&quot;&gt;&lt;span style=&quot;background-color: initial;&quot;&gt;&lt;b&gt;Triggering&lt;/b&gt;&lt;/span&gt;&lt;b style=&quot;background-color: initial;&quot;&gt;&amp;nbsp;lambda function&amp;nbsp;&lt;/b&gt;&lt;/div&gt;&lt;div style=&quot;text-align: center;&quot;&gt;&lt;b style=&quot;background-color: initial;&quot;&gt;when website is visited&lt;/b&gt;&lt;/div&gt;" style="text;whiteSpace=wrap;html=1;" vertex="1" parent="1">
          <mxGeometry x="420" y="374" width="166" height="36" as="geometry" />
        </mxCell>
        <mxCell id="gg1GSGkbbHf50dHX3CCL-71" value="" style="rounded=0;whiteSpace=wrap;html=1;fillColor=none;" vertex="1" parent="1">
          <mxGeometry x="160" y="118" width="529" height="424" as="geometry" />
        </mxCell>
      </root>
    </mxGraphModel>
  </diagram>
</mxfile>
